ISO-10303-21;
HEADER;
FILE_DESCRIPTION (( 'STEP AP214' ),
    '1' );
FILE_NAME ('PESD3V3L1BSLZ.STEP',
    '2025-01-14T05:16:45',
    ( '' ),
    ( '' ),
    'SwSTEP 2.0',
    'SolidWorks 2023',
    '' );
FILE_SCHEMA (( 'AUTOMOTIVE_DESIGN' ));
ENDSEC;

DATA;
#1 = CARTESIAN_POINT ( 'NONE',  ( 0.3600000000000000422, 0.4100000000000000311, -0.5350000000000000311 ) ) ;
#2 = FACE_OUTER_BOUND ( 'NONE', #309, .T. ) ;
#3 = EDGE_CURVE ( 'NONE', #8, #567, #260, .T. ) ;
#4 = SURFACE_STYLE_FILL_AREA ( #592 ) ;
#5 = ORIENTED_EDGE ( 'NONE', *, *, #501, .T. ) ;
#6 = DIRECTION ( 'NONE',  ( -0.000000000000000000, -1.000000000000000000, -0.000000000000000000 ) ) ;
#7 = CARTESIAN_POINT ( 'NONE',  ( 1.000000000000000000, 0.4000000000000000222, 0.000000000000000000 ) ) ;
#8 = VERTEX_POINT ( 'NONE', #611 ) ;
#9 = DIRECTION ( 'NONE',  ( 0.000000000000000000, 0.000000000000000000, -1.000000000000000000 ) ) ;
#10 = ORIENTED_EDGE ( 'NONE', *, *, #157, .F. ) ;
#11 = EDGE_CURVE ( 'NONE', #238, #707, #84, .T. ) ;
#12 = FACE_OUTER_BOUND ( 'NONE', #243, .T. ) ;
#13 = VERTEX_POINT ( 'NONE', #28 ) ;
#14 = VECTOR ( 'NONE', #745, 1000.000000000000000 ) ;
#15 = CARTESIAN_POINT ( 'NONE',  ( 0.1150000000000001021, 0.4100000000000000311, -0.06499999999999994671 ) ) ;
#16 = FILL_AREA_STYLE_COLOUR ( '', #115 ) ;
#17 = CIRCLE ( 'NONE', #443, 0.02763636363636368803 ) ;
#18 =( LENGTH_UNIT ( ) NAMED_UNIT ( * ) SI_UNIT ( .MILLI., .METRE. ) );
#19 = LINE ( 'NONE', #263, #565 ) ;
#20 = EDGE_LOOP ( 'NONE', ( #693, #172, #251, #430 ) ) ;
#21 = FACE_OUTER_BOUND ( 'NONE', #583, .T. ) ;
#22 = PRESENTATION_LAYER_ASSIGNMENT (  '', '', ( #88 ) ) ;
#23 = APPLICATION_PROTOCOL_DEFINITION ( 'draft international standard', 'automotive_design', 1998, #190 ) ;
#24 = SURFACE_STYLE_USAGE ( .BOTH. , #720 ) ;
#25 = ADVANCED_FACE ( 'NONE', ( #419 ), #500, .F. ) ;
#26 = EDGE_LOOP ( 'NONE', ( #403, #422, #749, #594 ) ) ;
#27 = CARTESIAN_POINT ( 'NONE',  ( 0.04000000000000004940, 0.4100000000000000311, -0.5350000000000000311 ) ) ;
#28 = CARTESIAN_POINT ( 'NONE',  ( 0.3040153059433678417, 0.02000000000000000042, -0.5267564959791225521 ) ) ;
#29 = VECTOR ( 'NONE', #561, 1000.000000000000000 ) ;
#30 =( GEOMETRIC_REPRESENTATION_CONTEXT ( 3 ) GLOBAL_UNCERTAINTY_ASSIGNED_CONTEXT ( ( #661 ) ) GLOBAL_UNIT_ASSIGNED_CONTEXT ( ( #195, #559, #424 ) ) REPRESENTATION_CONTEXT ( 'NONE', 'WORKASPACE' ) );
#31 = CARTESIAN_POINT ( 'NONE',  ( 1.000000000000000000, 0.4000000000000000222, -0.5999999999999999778 ) ) ;
#32 = CARTESIAN_POINT ( 'NONE',  ( 0.3600000000000000977, 0.4100000000000000311, -0.5350000000000000311 ) ) ;
#33 = FILL_AREA_STYLE_COLOUR ( '', #273 ) ;
#34 = EDGE_CURVE ( 'NONE', #415, #411, #214, .T. ) ;
#35 = CARTESIAN_POINT ( 'NONE',  ( 0.3040153059433678417, 0.02000000000000000042, -0.4991201323427588710 ) ) ;
#36 = CARTESIAN_POINT ( 'NONE',  ( 0.000000000000000000, 0.000000000000000000, 0.000000000000000000 ) ) ;
#37 = VECTOR ( 'NONE', #274, 1000.000000000000000 ) ;
#38 = CARTESIAN_POINT ( 'NONE',  ( 0.000000000000000000, 0.4000000000000000222, -0.5999999999999999778 ) ) ;
#39 = PLANE ( 'NONE',  #481 ) ;
#40 = VECTOR ( 'NONE', #324, 1000.000000000000000 ) ;
#41 = PRESENTATION_LAYER_ASSIGNMENT (  '', '', ( #518 ) ) ;
#42 = SURFACE_SIDE_STYLE ('',( #730 ) ) ;
#43 = ORIENTED_EDGE ( 'NONE', *, *, #743, .F. ) ;
#44 = FACE_OUTER_BOUND ( 'NONE', #249, .T. ) ;
#45 = ADVANCED_FACE ( 'NONE', ( #392 ), #509, .F. ) ;
#46 = ORIENTED_EDGE ( 'NONE', *, *, #703, .F. ) ;
#47 = AXIS2_PLACEMENT_3D ( 'NONE', #36, #162, #566 ) ;
#48 = CARTESIAN_POINT ( 'NONE',  ( 1.000000000000000000, 0.000000000000000000, 0.000000000000000000 ) ) ;
#49 = VERTEX_POINT ( 'NONE', #742 ) ;
#50 = AXIS2_PLACEMENT_3D ( 'NONE', #62, #6, #350 ) ;
#51 =( NAMED_UNIT ( * ) PLANE_ANGLE_UNIT ( ) SI_UNIT ( $, .RADIAN. ) );
#52 = LINE ( 'NONE', #410, #14 ) ;
#53 = ORIENTED_EDGE ( 'NONE', *, *, #564, .T. ) ;
#54 = ADVANCED_FACE ( 'NONE', ( #107 ), #149, .F. ) ;
#55 = CARTESIAN_POINT ( 'NONE',  ( 0.04000000000000004940, 0.4000000000000000222, -0.5350000000000000311 ) ) ;
#56 = CARTESIAN_POINT ( 'NONE',  ( 0.04000000000000007716, 0.4000000000000000222, -0.1399999999999999301 ) ) ;
#57 = ORIENTED_EDGE ( 'NONE', *, *, #520, .T. ) ;
#58 =( NAMED_UNIT ( * ) PLANE_ANGLE_UNIT ( ) SI_UNIT ( $, .RADIAN. ) );
#59 = DIRECTION ( 'NONE',  ( 0.000000000000000000, 1.000000000000000000, 0.000000000000000000 ) ) ;
#60 = CARTESIAN_POINT ( 'NONE',  ( 0.6399999999999999023, 0.4000000000000000222, -0.5350000000000001421 ) ) ;
#61 = EDGE_LOOP ( 'NONE', ( #704, #545, #301, #663 ) ) ;
#62 = CARTESIAN_POINT ( 'NONE',  ( 0.3040153059433678417, 0.02000000000000000042, -0.4991201323427588710 ) ) ;
#63 = UNCERTAINTY_MEASURE_WITH_UNIT (LENGTH_MEASURE( 1.000000000000000082E-05 ), #109, 'distance_accuracy_value', 'NONE');
#64 = MECHANICAL_DESIGN_GEOMETRIC_PRESENTATION_REPRESENTATION (  '', ( #689 ), #210 ) ;
#65 = EDGE_LOOP ( 'NONE', ( #373, #649, #207, #286 ) ) ;
#66 = DIRECTION ( 'NONE',  ( -1.000000000000000000, -0.000000000000000000, 0.000000000000000000 ) ) ;
#67 = DIRECTION ( 'NONE',  ( 1.000000000000000000, 0.000000000000000000, -0.000000000000000000 ) ) ;
#68 = ORIENTED_EDGE ( 'NONE', *, *, #501, .F. ) ;
#69 = DIRECTION ( 'NONE',  ( -0.000000000000000000, -1.000000000000000000, -0.000000000000000000 ) ) ;
#70 = PRESENTATION_STYLE_ASSIGNMENT (( #600 ) ) ;
#71 = COLOUR_RGB ( '',0.6313725490196078205, 0.6392156862745097534, 0.5686274509803921351 ) ;
#72 = VECTOR ( 'NONE', #236, 1000.000000000000000 ) ;
#73 = CARTESIAN_POINT ( 'NONE',  ( 0.000000000000000000, 0.4000000000000000222, 0.000000000000000000 ) ) ;
#74 = LINE ( 'NONE', #1, #554 ) ;
#75 =( GEOMETRIC_REPRESENTATION_CONTEXT ( 3 ) GLOBAL_UNCERTAINTY_ASSIGNED_CONTEXT ( ( #748 ) ) GLOBAL_UNIT_ASSIGNED_CONTEXT ( ( #562, #328, #379 ) ) REPRESENTATION_CONTEXT ( 'NONE', 'WORKASPACE' ) );
#76 = LINE ( 'NONE', #137, #744 ) ;
#77 = AXIS2_PLACEMENT_3D ( 'NONE', #73, #117, #524 ) ;
#78 = ORIENTED_EDGE ( 'NONE', *, *, #204, .T. ) ;
#79 = PLANE ( 'NONE',  #353 ) ;
#80 = EDGE_CURVE ( 'NONE', #411, #279, #382, .T. ) ;
#81 = CARTESIAN_POINT ( 'NONE',  ( 0.000000000000000000, 0.4000000000000000222, -0.5999999999999999778 ) ) ;
#82 =( LENGTH_UNIT ( ) NAMED_UNIT ( * ) SI_UNIT ( .MILLI., .METRE. ) );
#83 = MECHANICAL_DESIGN_GEOMETRIC_PRESENTATION_REPRESENTATION (  '', ( #88 ), #547 ) ;
#84 = LINE ( 'NONE', #724, #635 ) ;
#85 = CARTESIAN_POINT ( 'NONE',  ( 1.000000000000000000, 0.4000000000000000222, 0.000000000000000000 ) ) ;
#86 = PRESENTATION_LAYER_ASSIGNMENT (  '', '', ( #413 ) ) ;
#87 = DIRECTION ( 'NONE',  ( 1.000000000000000000, 0.000000000000000000, -0.000000000000000000 ) ) ;
#88 = STYLED_ITEM ( 'NONE', ( #205 ), #347 ) ;
#89 = EDGE_CURVE ( 'NONE', #13, #316, #563, .T. ) ;
#90 = ORIENTED_EDGE ( 'NONE', *, *, #180, .F. ) ;
#91 = CIRCLE ( 'NONE', #50, 0.02763636363636368803 ) ;
#92 = STYLED_ITEM ( 'NONE', ( #134 ), #247 ) ;
#93 = PRESENTATION_STYLE_ASSIGNMENT (( #102 ) ) ;
#94 = FACE_BOUND ( 'NONE', #211, .T. ) ;
#95 = PRODUCT_RELATED_PRODUCT_CATEGORY ( 'part', '', ( #570 ) ) ;
#96 = DIRECTION ( 'NONE',  ( 1.000000000000000000, 0.000000000000000000, -1.029305859954592956E-16 ) ) ;
#97 = FACE_OUTER_BOUND ( 'NONE', #167, .T. ) ;
#98 = UNCERTAINTY_MEASURE_WITH_UNIT (LENGTH_MEASURE( 1.000000000000000082E-05 ), #18, 'distance_accuracy_value', 'NONE');
#99 = DIRECTION ( 'NONE',  ( 0.000000000000000000, 0.000000000000000000, 1.000000000000000000 ) ) ;
#100 = ORIENTED_EDGE ( 'NONE', *, *, #89, .T. ) ;
#101 = CARTESIAN_POINT ( 'NONE',  ( 0.000000000000000000, 0.4000000000000000222, 0.000000000000000000 ) ) ;
#102 = SURFACE_STYLE_USAGE ( .BOTH. , #191 ) ;
#103 =( LENGTH_UNIT ( ) NAMED_UNIT ( * ) SI_UNIT ( .MILLI., .METRE. ) );
#104 = EDGE_LOOP ( 'NONE', ( #202, #114, #68, #478, #230 ) ) ;
#105 =( GEOMETRIC_REPRESENTATION_CONTEXT ( 3 ) GLOBAL_UNCERTAINTY_ASSIGNED_CONTEXT ( ( #397 ) ) GLOBAL_UNIT_ASSIGNED_CONTEXT ( ( #297, #582, #176 ) ) REPRESENTATION_CONTEXT ( 'NONE', 'WORKASPACE' ) );
#106 = ADVANCED_FACE ( 'NONE', ( #514, #94 ), #218, .T. ) ;
#107 = FACE_OUTER_BOUND ( 'NONE', #370, .T. ) ;
#108 = VERTEX_POINT ( 'NONE', #272 ) ;
#109 =( LENGTH_UNIT ( ) NAMED_UNIT ( * ) SI_UNIT ( .MILLI., .METRE. ) );
#110 = CARTESIAN_POINT ( 'NONE',  ( 0.04000000000000008410, 0.4000000000000000222, -0.1399999999999999301 ) ) ;
#111 = VECTOR ( 'NONE', #398, 1000.000000000000000 ) ;
#112 = CARTESIAN_POINT ( 'NONE',  ( 0.3040153059433678417, 0.02000000000000000042, -0.4714837687063951899 ) ) ;
#113 = ADVANCED_FACE ( 'NONE', ( #512 ), #39, .F. ) ;
#114 = ORIENTED_EDGE ( 'NONE', *, *, #127, .F. ) ;
#115 = COLOUR_RGB ( '',0.6313725490196078205, 0.6392156862745097534, 0.5686274509803921351 ) ;
#116 = MECHANICAL_DESIGN_GEOMETRIC_PRESENTATION_REPRESENTATION (  '', ( #702 ), #128 ) ;
#117 = DIRECTION ( 'NONE',  ( 0.000000000000000000, -1.000000000000000000, 0.000000000000000000 ) ) ;
#118 = DIRECTION ( 'NONE',  ( -1.000000000000000000, 0.000000000000000000, 0.000000000000000000 ) ) ;
#119 = EDGE_LOOP ( 'NONE', ( #342, #46, #643, #332 ) ) ;
#120 = EDGE_CURVE ( 'NONE', #197, #49, #740, .T. ) ;
#121 = CARTESIAN_POINT ( 'NONE',  ( 0.1150000000000000883, 0.4000000000000000222, -0.06499999999999994671 ) ) ;
#122 = VERTEX_POINT ( 'NONE', #56 ) ;
#123 = DIRECTION ( 'NONE',  ( 0.7071067811865475727, -0.000000000000000000, 0.7071067811865474617 ) ) ;
#124 = DIRECTION ( 'NONE',  ( 0.000000000000000000, -0.000000000000000000, -1.000000000000000000 ) ) ;
#125 = ORIENTED_EDGE ( 'NONE', *, *, #703, .T. ) ;
#126 = PLANE ( 'NONE',  #283 ) ;
#127 = EDGE_CURVE ( 'NONE', #122, #634, #293, .T. ) ;
#128 =( GEOMETRIC_REPRESENTATION_CONTEXT ( 3 ) GLOBAL_UNCERTAINTY_ASSIGNED_CONTEXT ( ( #587 ) ) GLOBAL_UNIT_ASSIGNED_CONTEXT ( ( #496, #431, #323 ) ) REPRESENTATION_CONTEXT ( 'NONE', 'WORKASPACE' ) );
#129 = STYLED_ITEM ( 'NONE', ( #531 ), #732 ) ;
#130 = PLANE ( 'NONE',  #666 ) ;
#131 = MECHANICAL_DESIGN_GEOMETRIC_PRESENTATION_REPRESENTATION (  '', ( #727 ), #105 ) ;
#132 = ORIENTED_EDGE ( 'NONE', *, *, #615, .F. ) ;
#133 = CARTESIAN_POINT ( 'NONE',  ( 0.1150000000000001021, 0.4100000000000000311, -0.06499999999999994671 ) ) ;
#134 = PRESENTATION_STYLE_ASSIGNMENT (( #24 ) ) ;
#135 = SURFACE_STYLE_FILL_AREA ( #146 ) ;
#136 = FACE_BOUND ( 'NONE', #104, .T. ) ;
#137 = CARTESIAN_POINT ( 'NONE',  ( 0.000000000000000000, 0.4000000000000000222, 0.000000000000000000 ) ) ;
#138 = EDGE_LOOP ( 'NONE', ( #240, #335 ) ) ;
#139 = ADVANCED_FACE ( 'NONE', ( #633 ), #532, .F. ) ;
#140 = AXIS2_PLACEMENT_3D ( 'NONE', #253, #543, #609 ) ;
#141 = VECTOR ( 'NONE', #441, 1000.000000000000000 ) ;
#142 = EDGE_LOOP ( 'NONE', ( #597, #492, #522, #519 ) ) ;
#143 = EDGE_LOOP ( 'NONE', ( #358, #407, #100, #294 ) ) ;
#144 = PLANE ( 'NONE',  #308 ) ;
#145 = EDGE_CURVE ( 'NONE', #163, #415, #281, .T. ) ;
#146 = FILL_AREA_STYLE ('',( #671 ) ) ;
#147 = CIRCLE ( 'NONE', #575, 0.02763636363636368803 ) ;
#148 = EDGE_CURVE ( 'NONE', #316, #574, #147, .T. ) ;
#149 = PLANE ( 'NONE',  #516 ) ;
#150 = VECTOR ( 'NONE', #296, 1000.000000000000000 ) ;
#151 = DIRECTION ( 'NONE',  ( 1.000000000000000000, 0.000000000000000000, 0.000000000000000000 ) ) ;
#152 =( NAMED_UNIT ( * ) SI_UNIT ( $, .STERADIAN. ) SOLID_ANGLE_UNIT ( ) );
#153 = VERTEX_POINT ( 'NONE', #341 ) ;
#154 = DIRECTION ( 'NONE',  ( 1.000000000000000000, -0.000000000000000000, 0.000000000000000000 ) ) ;
#155 = CARTESIAN_POINT ( 'NONE',  ( 0.000000000000000000, 0.4000000000000000222, 0.000000000000000000 ) ) ;
#156 = ORIENTED_EDGE ( 'NONE', *, *, #669, .T. ) ;
#157 = EDGE_CURVE ( 'NONE', #153, #346, #701, .T. ) ;
#158 = STYLED_ITEM ( 'NONE', ( #70 ), #25 ) ;
#159 = DIRECTION ( 'NONE',  ( -1.000000000000000000, 0.000000000000000000, 0.000000000000000000 ) ) ;
#160 = ORIENTED_EDGE ( 'NONE', *, *, #157, .T. ) ;
#161 =( NAMED_UNIT ( * ) SI_UNIT ( $, .STERADIAN. ) SOLID_ANGLE_UNIT ( ) );
#162 = DIRECTION ( 'NONE',  ( 0.000000000000000000, -1.000000000000000000, 0.000000000000000000 ) ) ;
#163 = VERTEX_POINT ( 'NONE', #706 ) ;
#164 =( LENGTH_UNIT ( ) NAMED_UNIT ( * ) SI_UNIT ( .MILLI., .METRE. ) );
#165 = EDGE_CURVE ( 'NONE', #465, #197, #464, .T. ) ;
#166 = DIRECTION ( 'NONE',  ( 0.7071067811865476838, 0.000000000000000000, 0.7071067811865474617 ) ) ;
#167 = EDGE_LOOP ( 'NONE', ( #227, #78, #529, #390 ) ) ;
#168 =( NAMED_UNIT ( * ) PLANE_ANGLE_UNIT ( ) SI_UNIT ( $, .RADIAN. ) );
#169 = UNCERTAINTY_MEASURE_WITH_UNIT (LENGTH_MEASURE( 1.000000000000000082E-05 ), #164, 'distance_accuracy_value', 'NONE');
#170 =( GEOMETRIC_REPRESENTATION_CONTEXT ( 3 ) GLOBAL_UNCERTAINTY_ASSIGNED_CONTEXT ( ( #292 ) ) GLOBAL_UNIT_ASSIGNED_CONTEXT ( ( #103, #680, #152 ) ) REPRESENTATION_CONTEXT ( 'NONE', 'WORKASPACE' ) );
#171 = SURFACE_STYLE_USAGE ( .BOTH. , #694 ) ;
#172 = ORIENTED_EDGE ( 'NONE', *, *, #591, .F. ) ;
#173 = VECTOR ( 'NONE', #201, 1000.000000000000000 ) ;
#174 =( LENGTH_UNIT ( ) NAMED_UNIT ( * ) SI_UNIT ( .MILLI., .METRE. ) );
#175 = SURFACE_STYLE_USAGE ( .BOTH. , #698 ) ;
#176 =( NAMED_UNIT ( * ) SI_UNIT ( $, .STERADIAN. ) SOLID_ANGLE_UNIT ( ) );
#177 = VERTEX_POINT ( 'NONE', #60 ) ;
#178 = LINE ( 'NONE', #578, #111 ) ;
#179 = ORIENTED_EDGE ( 'NONE', *, *, #479, .F. ) ;
#180 = EDGE_CURVE ( 'NONE', #707, #605, #178, .T. ) ;
#181 = LINE ( 'NONE', #526, #380 ) ;
#182 = CARTESIAN_POINT ( 'NONE',  ( 0.3600000000000001532, 0.4000000000000000222, 0.000000000000000000 ) ) ;
#183 = ORIENTED_EDGE ( 'NONE', *, *, #381, .F. ) ;
#184 = DIRECTION ( 'NONE',  ( 0.000000000000000000, 1.000000000000000000, -0.000000000000000000 ) ) ;
#185 = AXIS2_PLACEMENT_3D ( 'NONE', #362, #284, #225 ) ;
#186 =( NAMED_UNIT ( * ) PLANE_ANGLE_UNIT ( ) SI_UNIT ( $, .RADIAN. ) );
#187 = ORIENTED_EDGE ( 'NONE', *, *, #491, .T. ) ;
#188 = LINE ( 'NONE', #747, #677 ) ;
#189 = DIRECTION ( 'NONE',  ( -1.000000000000000000, -0.000000000000000000, 3.388131789017202835E-16 ) ) ;
#190 = APPLICATION_CONTEXT ( 'automotive_design' ) ;
#191 = SURFACE_SIDE_STYLE ('',( #486 ) ) ;
#192 = EDGE_CURVE ( 'NONE', #238, #471, #345, .T. ) ;
#193 = VERTEX_POINT ( 'NONE', #233 ) ;
#194 = DIRECTION ( 'NONE',  ( 0.000000000000000000, 1.000000000000000000, 0.000000000000000000 ) ) ;
#195 =( LENGTH_UNIT ( ) NAMED_UNIT ( * ) SI_UNIT ( .MILLI., .METRE. ) );
#196 = FACE_OUTER_BOUND ( 'NONE', #142, .T. ) ;
#197 = VERTEX_POINT ( 'NONE', #48 ) ;
#198 =( GEOMETRIC_REPRESENTATION_CONTEXT ( 3 ) GLOBAL_UNCERTAINTY_ASSIGNED_CONTEXT ( ( #169 ) ) GLOBAL_UNIT_ASSIGNED_CONTEXT ( ( #164, #168, #161 ) ) REPRESENTATION_CONTEXT ( 'NONE', 'WORKASPACE' ) );
#199 = ORIENTED_EDGE ( 'NONE', *, *, #213, .F. ) ;
#200 = AXIS2_PLACEMENT_3D ( 'NONE', #709, #604, #67 ) ;
#201 = DIRECTION ( 'NONE',  ( 0.000000000000000000, -1.000000000000000000, -0.000000000000000000 ) ) ;
#202 = ORIENTED_EDGE ( 'NONE', *, *, #315, .F. ) ;
#203 = DIRECTION ( 'NONE',  ( -0.000000000000000000, 0.000000000000000000, 1.000000000000000000 ) ) ;
#204 = EDGE_CURVE ( 'NONE', #298, #574, #401, .T. ) ;
#205 = PRESENTATION_STYLE_ASSIGNMENT (( #675 ) ) ;
#206 =( NAMED_UNIT ( * ) SI_UNIT ( $, .STERADIAN. ) SOLID_ANGLE_UNIT ( ) );
#207 = ORIENTED_EDGE ( 'NONE', *, *, #223, .T. ) ;
#208 = PLANE ( 'NONE',  #313 ) ;
#209 = PRESENTATION_STYLE_ASSIGNMENT (( #557 ) ) ;
#210 =( GEOMETRIC_REPRESENTATION_CONTEXT ( 3 ) GLOBAL_UNCERTAINTY_ASSIGNED_CONTEXT ( ( #325 ) ) GLOBAL_UNIT_ASSIGNED_CONTEXT ( ( #82, #617, #676 ) ) REPRESENTATION_CONTEXT ( 'NONE', 'WORKASPACE' ) );
#211 = EDGE_LOOP ( 'NONE', ( #525, #187 ) ) ;
#212 =( NAMED_UNIT ( * ) PLANE_ANGLE_UNIT ( ) SI_UNIT ( $, .RADIAN. ) );
#213 = EDGE_CURVE ( 'NONE', #153, #177, #52, .T. ) ;
#214 = LINE ( 'NONE', #454, #733 ) ;
#215 = DIRECTION ( 'NONE',  ( -1.000000000000000000, -0.000000000000000000, -0.000000000000000000 ) ) ;
#216 = PRESENTATION_LAYER_ASSIGNMENT (  '', '', ( #158 ) ) ;
#217 = PRESENTATION_STYLE_ASSIGNMENT (( #340 ) ) ;
#218 = PLANE ( 'NONE',  #47 ) ;
#219 = EDGE_LOOP ( 'NONE', ( #639, #125, #710, #495, #387 ) ) ;
#220 = VECTOR ( 'NONE', #265, 1000.000000000000000 ) ;
#221 = MECHANICAL_DESIGN_GEOMETRIC_PRESENTATION_REPRESENTATION (  '', ( #129 ), #456 ) ;
#222 = PRODUCT_DEFINITION_SHAPE ( 'NONE', 'NONE',  #306 ) ;
#223 = EDGE_CURVE ( 'NONE', #49, #681, #637, .T. ) ;
#224 =( GEOMETRIC_REPRESENTATION_CONTEXT ( 3 ) GLOBAL_UNCERTAINTY_ASSIGNED_CONTEXT ( ( #577 ) ) GLOBAL_UNIT_ASSIGNED_CONTEXT ( ( #369, #254, #544 ) ) REPRESENTATION_CONTEXT ( 'NONE', 'WORKASPACE' ) );
#225 = DIRECTION ( 'NONE',  ( -0.7071067811865475727, 0.000000000000000000, -0.7071067811865474617 ) ) ;
#226 = CARTESIAN_POINT ( 'NONE',  ( 0.000000000000000000, 0.000000000000000000, 0.000000000000000000 ) ) ;
#227 = ORIENTED_EDGE ( 'NONE', *, *, #679, .F. ) ;
#228 = FILL_AREA_STYLE_COLOUR ( '', #586 ) ;
#229 = DIRECTION ( 'NONE',  ( 0.000000000000000000, 1.000000000000000000, 0.000000000000000000 ) ) ;
#230 = ORIENTED_EDGE ( 'NONE', *, *, #145, .F. ) ;
#231 = FILL_AREA_STYLE_COLOUR ( '', #259 ) ;
#232 = COLOUR_RGB ( '',0.6313725490196078205, 0.6392156862745097534, 0.5686274509803921351 ) ;
#233 = CARTESIAN_POINT ( 'NONE',  ( 0.04000000000000007716, 0.4100000000000000311, -0.1399999999999999301 ) ) ;
#234 = VERTEX_POINT ( 'NONE', #527 ) ;
#235 = LINE ( 'NONE', #289, #246 ) ;
#236 = DIRECTION ( 'NONE',  ( -1.000000000000000000, -0.000000000000000000, -0.000000000000000000 ) ) ;
#237 = ADVANCED_FACE ( 'NONE', ( #647 ), #477, .F. ) ;
#238 = VERTEX_POINT ( 'NONE', #364 ) ;
#239 = DIRECTION ( 'NONE',  ( -0.000000000000000000, -1.000000000000000000, -0.000000000000000000 ) ) ;
#240 = ORIENTED_EDGE ( 'NONE', *, *, #632, .T. ) ;
#241 =( LENGTH_UNIT ( ) NAMED_UNIT ( * ) SI_UNIT ( .MILLI., .METRE. ) );
#242 = VECTOR ( 'NONE', #229, 1000.000000000000000 ) ;
#243 = EDGE_LOOP ( 'NONE', ( #53, #654, #10, #475 ) ) ;
#244 = EDGE_CURVE ( 'NONE', #634, #616, #372, .T. ) ;
#245 = FILL_AREA_STYLE_COLOUR ( '', #354 ) ;
#246 = VECTOR ( 'NONE', #348, 1000.000000000000000 ) ;
#247 = MANIFOLD_SOLID_BREP ( 'Cut-Extrude1', #317 ) ;
#248 = FILL_AREA_STYLE ('',( #16 ) ) ;
#249 = EDGE_LOOP ( 'NONE', ( #457, #608, #57, #179 ) ) ;
#250 = DIRECTION ( 'NONE',  ( 0.000000000000000000, -1.000000000000000000, 0.000000000000000000 ) ) ;
#251 = ORIENTED_EDGE ( 'NONE', *, *, #511, .T. ) ;
#252 = SURFACE_SIDE_STYLE ('',( #375 ) ) ;
#253 = CARTESIAN_POINT ( 'NONE',  ( 0.000000000000000000, 0.000000000000000000, 0.000000000000000000 ) ) ;
#254 =( NAMED_UNIT ( * ) PLANE_ANGLE_UNIT ( ) SI_UNIT ( $, .RADIAN. ) );
#255 = EDGE_LOOP ( 'NONE', ( #715, #445, #426, #665 ) ) ;
#256 = VECTOR ( 'NONE', #517, 1000.000000000000000 ) ;
#257 = SURFACE_STYLE_USAGE ( .BOTH. , #252 ) ;
#258 = DIRECTION ( 'NONE',  ( 0.000000000000000000, 1.000000000000000000, 0.000000000000000000 ) ) ;
#259 = COLOUR_RGB ( '',0.6313725490196078205, 0.6392156862745097534, 0.5686274509803921351 ) ;
#260 = LINE ( 'NONE', #81, #550 ) ;
#261 = VECTOR ( 'NONE', #551, 1000.000000000000000 ) ;
#262 = EDGE_CURVE ( 'NONE', #108, #465, #599, .T. ) ;
#263 = CARTESIAN_POINT ( 'NONE',  ( 0.6399999999999999023, 0.4100000000000000311, -0.5350000000000000311 ) ) ;
#264 = APPLICATION_PROTOCOL_DEFINITION ( 'draft international standard', 'automotive_design', 1998, #282 ) ;
#265 = DIRECTION ( 'NONE',  ( -0.000000000000000000, -0.000000000000000000, 1.000000000000000000 ) ) ;
#266 = CARTESIAN_POINT ( 'NONE',  ( 1.000000000000000000, 0.4000000000000000222, 0.000000000000000000 ) ) ;
#267 = CARTESIAN_POINT ( 'NONE',  ( 0.3040153059433678417, 0.000000000000000000, -0.4714837687063951899 ) ) ;
#268 = VECTOR ( 'NONE', #166, 1000.000000000000000 ) ;
#269 = EDGE_CURVE ( 'NONE', #177, #707, #357, .T. ) ;
#270 = DIRECTION ( 'NONE',  ( 0.000000000000000000, 0.000000000000000000, 1.000000000000000000 ) ) ;
#271 = VECTOR ( 'NONE', #510, 1000.000000000000000 ) ;
#272 = CARTESIAN_POINT ( 'NONE',  ( 0.000000000000000000, 0.4000000000000000222, 0.000000000000000000 ) ) ;
#273 = COLOUR_RGB ( '',0.6313725490196078205, 0.6392156862745097534, 0.5686274509803921351 ) ;
#274 = DIRECTION ( 'NONE',  ( -0.000000000000000000, -1.000000000000000000, -0.000000000000000000 ) ) ;
#275 = ORIENTED_EDGE ( 'NONE', *, *, #658, .F. ) ;
#276 = DIRECTION ( 'NONE',  ( 0.000000000000000000, 0.000000000000000000, -1.000000000000000000 ) ) ;
#277 = DIRECTION ( 'NONE',  ( -1.000000000000000000, 0.000000000000000000, 1.153406566473941013E-16 ) ) ;
#278 = EDGE_CURVE ( 'NONE', #49, #108, #76, .T. ) ;
#279 = VERTEX_POINT ( 'NONE', #713 ) ;
#280 = CARTESIAN_POINT ( 'NONE',  ( 0.000000000000000000, 0.4100000000000000311, 0.000000000000000000 ) ) ;
#281 = LINE ( 'NONE', #182, #589 ) ;
#282 = APPLICATION_CONTEXT ( 'automotive_design' ) ;
#283 = AXIS2_PLACEMENT_3D ( 'NONE', #485, #405, #712 ) ;
#284 = DIRECTION ( 'NONE',  ( 0.7071067811865474617, 0.000000000000000000, -0.7071067811865475727 ) ) ;
#285 = FILL_AREA_STYLE_COLOUR ( '', #458 ) ;
#286 = ORIENTED_EDGE ( 'NONE', *, *, #479, .T. ) ;
#287 = FACE_BOUND ( 'NONE', #366, .T. ) ;
#288 = ORIENTED_EDGE ( 'NONE', *, *, #427, .F. ) ;
#289 = CARTESIAN_POINT ( 'NONE',  ( 0.04000000000000008410, 0.4100000000000000311, -0.1399999999999999301 ) ) ;
#290 = DIRECTION ( 'NONE',  ( 0.000000000000000000, -0.000000000000000000, 1.000000000000000000 ) ) ;
#291 = ADVANCED_FACE ( 'NONE', ( #12 ), #130, .F. ) ;
#292 = UNCERTAINTY_MEASURE_WITH_UNIT (LENGTH_MEASURE( 1.000000000000000082E-05 ), #103, 'distance_accuracy_value', 'NONE');
#293 = LINE ( 'NONE', #110, #268 ) ;
#294 = ORIENTED_EDGE ( 'NONE', *, *, #491, .F. ) ;
#295 = VECTOR ( 'NONE', #595, 1000.000000000000000 ) ;
#296 = DIRECTION ( 'NONE',  ( -0.000000000000000000, 0.000000000000000000, 1.000000000000000000 ) ) ;
#297 =( LENGTH_UNIT ( ) NAMED_UNIT ( * ) SI_UNIT ( .MILLI., .METRE. ) );
#298 = VERTEX_POINT ( 'NONE', #482 ) ;
#299 = SURFACE_STYLE_FILL_AREA ( #420 ) ;
#300 = FILL_AREA_STYLE_COLOUR ( '', #690 ) ;
#301 = ORIENTED_EDGE ( 'NONE', *, *, #615, .T. ) ;
#302 = ADVANCED_FACE ( 'NONE', ( #196 ), #304, .F. ) ;
#303 = LINE ( 'NONE', #133, #295 ) ;
#304 = PLANE ( 'NONE',  #606 ) ;
#305 = VECTOR ( 'NONE', #683, 1000.000000000000000 ) ;
#306 = PRODUCT_DEFINITION ( 'UNKNOWN', '', #653, #541 ) ;
#307 = PLANE ( 'NONE',  #404 ) ;
#308 = AXIS2_PLACEMENT_3D ( 'NONE', #446, #154, #388 ) ;
#309 = EDGE_LOOP ( 'NONE', ( #156, #684, #534, #5 ) ) ;
#310 = DIRECTION ( 'NONE',  ( 0.000000000000000000, 1.000000000000000000, 0.000000000000000000 ) ) ;
#311 = DIRECTION ( 'NONE',  ( 1.000000000000000000, 0.000000000000000000, -3.388131789017202835E-16 ) ) ;
#312 = DIRECTION ( 'NONE',  ( -1.000000000000000000, -0.000000000000000000, 0.000000000000000000 ) ) ;
#313 = AXIS2_PLACEMENT_3D ( 'NONE', #280, #59, #290 ) ;
#314 = PRESENTATION_LAYER_ASSIGNMENT (  '', '', ( #685 ) ) ;
#315 = EDGE_CURVE ( 'NONE', #634, #163, #376, .T. ) ;
#316 = VERTEX_POINT ( 'NONE', #686 ) ;
#317 = CLOSED_SHELL ( 'NONE', ( #371, #106, #601, #139, #327, #113, #45, #437, #542, #54, #732, #402, #452, #237, #573, #291, #25, #302, #347, #395 ) ) ;
#318 = CARTESIAN_POINT ( 'NONE',  ( 0.000000000000000000, 0.4000000000000000222, -0.5999999999999999778 ) ) ;
#319 = FILL_AREA_STYLE_COLOUR ( '', #593 ) ;
#320 = VECTOR ( 'NONE', #672, 1000.000000000000000 ) ;
#321 = DIRECTION ( 'NONE',  ( 1.153406566473941013E-16, 0.000000000000000000, 1.000000000000000000 ) ) ;
#322 = VECTOR ( 'NONE', #717, 1000.000000000000000 ) ;
#323 =( NAMED_UNIT ( * ) SI_UNIT ( $, .STERADIAN. ) SOLID_ANGLE_UNIT ( ) );
#324 = DIRECTION ( 'NONE',  ( -1.153406566473941013E-16, -0.000000000000000000, -1.000000000000000000 ) ) ;
#325 = UNCERTAINTY_MEASURE_WITH_UNIT (LENGTH_MEASURE( 1.000000000000000082E-05 ), #82, 'distance_accuracy_value', 'NONE');
#326 = DIRECTION ( 'NONE',  ( 0.000000000000000000, -0.000000000000000000, -1.000000000000000000 ) ) ;
#327 = ADVANCED_FACE ( 'NONE', ( #44 ), #678, .F. ) ;
#328 =( NAMED_UNIT ( * ) PLANE_ANGLE_UNIT ( ) SI_UNIT ( $, .RADIAN. ) );
#329 = CARTESIAN_POINT ( 'NONE',  ( 0.04000000000000004940, 0.4100000000000000311, -0.5350000000000000311 ) ) ;
#330 =( NAMED_UNIT ( * ) SI_UNIT ( $, .STERADIAN. ) SOLID_ANGLE_UNIT ( ) );
#331 = STYLED_ITEM ( 'NONE', ( #93 ), #302 ) ;
#332 = ORIENTED_EDGE ( 'NONE', *, *, #315, .T. ) ;
#333 = CARTESIAN_POINT ( 'NONE',  ( 0.000000000000000000, 0.4100000000000000311, 0.000000000000000000 ) ) ;
#334 = FILL_AREA_STYLE_COLOUR ( '', #232 ) ;
#335 = ORIENTED_EDGE ( 'NONE', *, *, #679, .T. ) ;
#336 = CARTESIAN_POINT ( 'NONE',  ( 0.3600000000000000977, 0.4000000000000000222, -0.5350000000000000311 ) ) ;
#337 = EDGE_CURVE ( 'NONE', #234, #361, #508, .T. ) ;
#338 = CARTESIAN_POINT ( 'NONE',  ( 1.000000000000000000, 0.4000000000000000222, 0.000000000000000000 ) ) ;
#339 =( GEOMETRIC_REPRESENTATION_CONTEXT ( 3 ) GLOBAL_UNCERTAINTY_ASSIGNED_CONTEXT ( ( #98 ) ) GLOBAL_UNIT_ASSIGNED_CONTEXT ( ( #18, #503, #206 ) ) REPRESENTATION_CONTEXT ( 'NONE', 'WORKASPACE' ) );
#340 = SURFACE_STYLE_USAGE ( .BOTH. , #537 ) ;
#341 = CARTESIAN_POINT ( 'NONE',  ( 0.9600000000000000755, 0.4000000000000000222, -0.5350000000000001421 ) ) ;
#342 = ORIENTED_EDGE ( 'NONE', *, *, #625, .T. ) ;
#343 = PRESENTATION_LAYER_ASSIGNMENT (  '', '', ( #702 ) ) ;
#344 = SURFACE_STYLE_FILL_AREA ( #660 ) ;
#345 = LINE ( 'NONE', #572, #687 ) ;
#346 = VERTEX_POINT ( 'NONE', #385 ) ;
#347 = ADVANCED_FACE ( 'NONE', ( #513 ), #741, .T. ) ;
#348 = DIRECTION ( 'NONE',  ( 0.000000000000000000, 1.000000000000000000, 0.000000000000000000 ) ) ;
#349 = EDGE_LOOP ( 'NONE', ( #160, #43, #688, #393 ) ) ;
#350 = DIRECTION ( 'NONE',  ( 0.000000000000000000, 0.000000000000000000, -1.000000000000000000 ) ) ;
#351 = DIRECTION ( 'NONE',  ( 1.000000000000000000, -0.000000000000000000, -4.235164736271503544E-17 ) ) ;
#352 = ORIENTED_EDGE ( 'NONE', *, *, #629, .T. ) ;
#353 = AXIS2_PLACEMENT_3D ( 'NONE', #620, #250, #326 ) ;
#354 = COLOUR_RGB ( '',0.6313725490196078205, 0.6392156862745097534, 0.5686274509803921351 ) ;
#355 = SURFACE_STYLE_USAGE ( .BOTH. , #705 ) ;
#356 = PRESENTATION_LAYER_ASSIGNMENT (  '', '', ( #92 ) ) ;
#357 = LINE ( 'NONE', #667, #322 ) ;
#358 = ORIENTED_EDGE ( 'NONE', *, *, #204, .F. ) ;
#359 = LINE ( 'NONE', #650, #700 ) ;
#360 = DIRECTION ( 'NONE',  ( 3.388131789017202835E-16, -0.000000000000000000, 1.000000000000000000 ) ) ;
#361 = VERTEX_POINT ( 'NONE', #32 ) ;
#362 = CARTESIAN_POINT ( 'NONE',  ( 0.04000000000000009104, 0.4100000000000000311, -0.1399999999999999301 ) ) ;
#363 = CARTESIAN_POINT ( 'NONE',  ( 0.6399999999999999023, 0.4100000000000000311, -0.5350000000000000311 ) ) ;
#364 = CARTESIAN_POINT ( 'NONE',  ( 0.6399999999999999023, 0.4100000000000000311, -0.06499999999999994671 ) ) ;
#365 = MECHANICAL_DESIGN_GEOMETRIC_PRESENTATION_REPRESENTATION (  '', ( #158 ), #339 ) ;
#366 = EDGE_LOOP ( 'NONE', ( #199, #288, #90, #515 ) ) ;
#367 = CARTESIAN_POINT ( 'NONE',  ( 0.04000000000000004940, 0.4000000000000000222, 0.000000000000000000 ) ) ;
#368 = AXIS2_PLACEMENT_3D ( 'NONE', #15, #708, #428 ) ;
#369 =( LENGTH_UNIT ( ) NAMED_UNIT ( * ) SI_UNIT ( .MILLI., .METRE. ) );
#370 = EDGE_LOOP ( 'NONE', ( #132, #718, #434, #440 ) ) ;
#371 = ADVANCED_FACE ( 'NONE', ( #97 ), #450, .F. ) ;
#372 = LINE ( 'NONE', #490, #655 ) ;
#373 = ORIENTED_EDGE ( 'NONE', *, *, #658, .T. ) ;
#374 = MECHANICAL_DESIGN_GEOMETRIC_PRESENTATION_REPRESENTATION (  '', ( #685 ), #198 ) ;
#375 = SURFACE_STYLE_FILL_AREA ( #435 ) ;
#376 = LINE ( 'NONE', #614, #271 ) ;
#377 = ORIENTED_EDGE ( 'NONE', *, *, #165, .T. ) ;
#378 = AXIS2_PLACEMENT_3D ( 'NONE', #438, #159, #99 ) ;
#379 =( NAMED_UNIT ( * ) SI_UNIT ( $, .STERADIAN. ) SOLID_ANGLE_UNIT ( ) );
#380 = VECTOR ( 'NONE', #416, 1000.000000000000000 ) ;
#381 = EDGE_CURVE ( 'NONE', #465, #8, #432, .T. ) ;
#382 = LINE ( 'NONE', #329, #305 ) ;
#383 = LINE ( 'NONE', #27, #320 ) ;
#384 = CARTESIAN_POINT ( 'NONE',  ( 0.6399999999999999023, 0.4100000000000000311, -0.5350000000000001421 ) ) ;
#385 = CARTESIAN_POINT ( 'NONE',  ( 0.9600000000000000755, 0.4100000000000000311, -0.5350000000000001421 ) ) ;
#386 = SURFACE_SIDE_STYLE ('',( #444 ) ) ;
#387 = ORIENTED_EDGE ( 'NONE', *, *, #533, .T. ) ;
#388 = DIRECTION ( 'NONE',  ( 0.000000000000000000, 0.000000000000000000, -1.000000000000000000 ) ) ;
#389 = DIRECTION ( 'NONE',  ( 0.000000000000000000, 0.000000000000000000, -1.000000000000000000 ) ) ;
#390 = ORIENTED_EDGE ( 'NONE', *, *, #89, .F. ) ;
#391 =( LENGTH_UNIT ( ) NAMED_UNIT ( * ) SI_UNIT ( .MILLI., .METRE. ) );
#392 = FACE_OUTER_BOUND ( 'NONE', #143, .T. ) ;
#393 = ORIENTED_EDGE ( 'NONE', *, *, #427, .T. ) ;
#394 = PRESENTATION_LAYER_ASSIGNMENT (  '', '', ( #727 ) ) ;
#395 = ADVANCED_FACE ( 'NONE', ( #734 ), #208, .T. ) ;
#396 = FACE_OUTER_BOUND ( 'NONE', #26, .T. ) ;
#397 = UNCERTAINTY_MEASURE_WITH_UNIT (LENGTH_MEASURE( 1.000000000000000082E-05 ), #297, 'distance_accuracy_value', 'NONE');
#398 = DIRECTION ( 'NONE',  ( 1.000000000000000000, 0.000000000000000000, 0.000000000000000000 ) ) ;
#399 = ORIENTED_EDGE ( 'NONE', *, *, #3, .T. ) ;
#400 = AXIS2_PLACEMENT_3D ( 'NONE', #735, #626, #630 ) ;
#401 = LINE ( 'NONE', #112, #256 ) ;
#402 = ADVANCED_FACE ( 'NONE', ( #396 ), #576, .F. ) ;
#403 = ORIENTED_EDGE ( 'NONE', *, *, #244, .T. ) ;
#404 = AXIS2_PLACEMENT_3D ( 'NONE', #612, #96, #726 ) ;
#405 = DIRECTION ( 'NONE',  ( 0.000000000000000000, 0.000000000000000000, -1.000000000000000000 ) ) ;
#406 =( NAMED_UNIT ( * ) SI_UNIT ( $, .STERADIAN. ) SOLID_ANGLE_UNIT ( ) );
#407 = ORIENTED_EDGE ( 'NONE', *, *, #632, .F. ) ;
#408 = LINE ( 'NONE', #480, #150 ) ;
#409 = AXIS2_PLACEMENT_3D ( 'NONE', #333, #739, #622 ) ;
#410 = CARTESIAN_POINT ( 'NONE',  ( 0.000000000000000000, 0.4000000000000000222, -0.5350000000000001421 ) ) ;
#411 = VERTEX_POINT ( 'NONE', #55 ) ;
#412 = LINE ( 'NONE', #641, #553 ) ;
#413 = STYLED_ITEM ( 'NONE', ( #209 ), #54 ) ;
#414 = CARTESIAN_POINT ( 'NONE',  ( 0.9600000000000000755, 0.4100000000000000311, -0.5350000000000001421 ) ) ;
#415 = VERTEX_POINT ( 'NONE', #336 ) ;
#416 = DIRECTION ( 'NONE',  ( 0.000000000000000000, 1.000000000000000000, -0.000000000000000000 ) ) ;
#417 = COLOUR_RGB ( '',0.6313725490196078205, 0.6392156862745097534, 0.5686274509803921351 ) ;
#418 = SURFACE_SIDE_STYLE ('',( #539 ) ) ;
#419 = FACE_OUTER_BOUND ( 'NONE', #349, .T. ) ;
#420 = FILL_AREA_STYLE ('',( #245 ) ) ;
#421 = FILL_AREA_STYLE ('',( #300 ) ) ;
#422 = ORIENTED_EDGE ( 'NONE', *, *, #725, .F. ) ;
#423 = CARTESIAN_POINT ( 'NONE',  ( 0.9600000000000000755, 0.4100000000000000311, -0.06499999999999994671 ) ) ;
#424 =( NAMED_UNIT ( * ) SI_UNIT ( $, .STERADIAN. ) SOLID_ANGLE_UNIT ( ) );
#425 = SURFACE_STYLE_USAGE ( .BOTH. , #418 ) ;
#426 = ORIENTED_EDGE ( 'NONE', *, *, #278, .F. ) ;
#427 = EDGE_CURVE ( 'NONE', #605, #153, #188, .T. ) ;
#428 = DIRECTION ( 'NONE',  ( -1.000000000000000000, 0.000000000000000000, 2.212657494868376934E-16 ) ) ;
#429 = STYLED_ITEM ( 'NONE', ( #662 ), #291 ) ;
#430 = ORIENTED_EDGE ( 'NONE', *, *, #223, .F. ) ;
#431 =( NAMED_UNIT ( * ) PLANE_ANGLE_UNIT ( ) SI_UNIT ( $, .RADIAN. ) );
#432 = LINE ( 'NONE', #266, #613 ) ;
#433 = ADVANCED_BREP_SHAPE_REPRESENTATION ( 'PESD3V3L1BSLZ', ( #247, #140 ), #30 ) ;
#434 = ORIENTED_EDGE ( 'NONE', *, *, #625, .F. ) ;
#435 = FILL_AREA_STYLE ('',( #33 ) ) ;
#436 = DIRECTION ( 'NONE',  ( -0.000000000000000000, -0.000000000000000000, -1.000000000000000000 ) ) ;
#437 = ADVANCED_FACE ( 'NONE', ( #136, #540, #287 ), #571, .F. ) ;
#438 = CARTESIAN_POINT ( 'NONE',  ( 0.9600000000000000755, 0.4100000000000000311, -0.5350000000000001421 ) ) ;
#439 = VECTOR ( 'NONE', #459, 1000.000000000000000 ) ;
#440 = ORIENTED_EDGE ( 'NONE', *, *, #145, .T. ) ;
#441 = DIRECTION ( 'NONE',  ( -0.000000000000000000, -1.000000000000000000, 0.000000000000000000 ) ) ;
#442 =( GEOMETRIC_REPRESENTATION_CONTEXT ( 3 ) GLOBAL_UNCERTAINTY_ASSIGNED_CONTEXT ( ( #646 ) ) GLOBAL_UNIT_ASSIGNED_CONTEXT ( ( #241, #186, #651 ) ) REPRESENTATION_CONTEXT ( 'NONE', 'WORKASPACE' ) );
#443 = AXIS2_PLACEMENT_3D ( 'NONE', #603, #69, #584 ) ;
#444 = SURFACE_STYLE_FILL_AREA ( #448 ) ;
#445 = ORIENTED_EDGE ( 'NONE', *, *, #262, .F. ) ;
#446 = CARTESIAN_POINT ( 'NONE',  ( 0.6399999999999999023, 0.4100000000000000311, -0.5350000000000000311 ) ) ;
#447 = CARTESIAN_POINT ( 'NONE',  ( 0.6399999999999999023, 0.4100000000000000311, -0.06499999999999994671 ) ) ;
#448 = FILL_AREA_STYLE ('',( #334 ) ) ;
#449 = ORIENTED_EDGE ( 'NONE', *, *, #462, .F. ) ;
#450 = CYLINDRICAL_SURFACE ( 'NONE', #648, 0.02763636363636368803 ) ;
#451 = CARTESIAN_POINT ( 'NONE',  ( 0.000000000000000000, 0.000000000000000000, 0.000000000000000000 ) ) ;
#452 = ADVANCED_FACE ( 'NONE', ( #2 ), #307, .F. ) ;
#453 = FILL_AREA_STYLE ('',( #231 ) ) ;
#454 = CARTESIAN_POINT ( 'NONE',  ( 0.000000000000000000, 0.4000000000000000222, -0.5350000000000000311 ) ) ;
#455 = MECHANICAL_DESIGN_GEOMETRIC_PRESENTATION_REPRESENTATION (  '', ( #518 ), #472 ) ;
#456 =( GEOMETRIC_REPRESENTATION_CONTEXT ( 3 ) GLOBAL_UNCERTAINTY_ASSIGNED_CONTEXT ( ( #640 ) ) GLOBAL_UNIT_ASSIGNED_CONTEXT ( ( #174, #58, #590 ) ) REPRESENTATION_CONTEXT ( 'NONE', 'WORKASPACE' ) );
#457 = ORIENTED_EDGE ( 'NONE', *, *, #511, .F. ) ;
#458 = COLOUR_RGB ( '',0.6313725490196078205, 0.6392156862745097534, 0.5686274509803921351 ) ;
#459 = DIRECTION ( 'NONE',  ( 0.000000000000000000, -0.000000000000000000, -1.000000000000000000 ) ) ;
#460 = ORIENTED_EDGE ( 'NONE', *, *, #743, .T. ) ;
#461 = PRESENTATION_STYLE_ASSIGNMENT (( #581 ) ) ;
#462 = EDGE_CURVE ( 'NONE', #746, #238, #729, .T. ) ;
#463 = UNCERTAINTY_MEASURE_WITH_UNIT (LENGTH_MEASURE( 1.000000000000000082E-05 ), #391, 'distance_accuracy_value', 'NONE');
#464 = LINE ( 'NONE', #338, #674 ) ;
#465 = VERTEX_POINT ( 'NONE', #85 ) ;
#466 = AXIS2_PLACEMENT_3D ( 'NONE', #7, #118, #692 ) ;
#467 = CARTESIAN_POINT ( 'NONE',  ( 0.9600000000000000755, 0.4100000000000000311, -0.06499999999999994671 ) ) ;
#468 = SURFACE_STYLE_FILL_AREA ( #453 ) ;
#469 = CARTESIAN_POINT ( 'NONE',  ( 0.3040153059433678417, 0.000000000000000000, -0.4991201323427588710 ) ) ;
#470 = PRESENTATION_LAYER_ASSIGNMENT (  '', '', ( #129 ) ) ;
#471 = VERTEX_POINT ( 'NONE', #423 ) ;
#472 =( GEOMETRIC_REPRESENTATION_CONTEXT ( 3 ) GLOBAL_UNCERTAINTY_ASSIGNED_CONTEXT ( ( #63 ) ) GLOBAL_UNIT_ASSIGNED_CONTEXT ( ( #109, #51, #406 ) ) REPRESENTATION_CONTEXT ( 'NONE', 'WORKASPACE' ) );
#473 = LINE ( 'NONE', #363, #652 ) ;
#474 = DIRECTION ( 'NONE',  ( 0.000000000000000000, 1.000000000000000000, 0.000000000000000000 ) ) ;
#475 = ORIENTED_EDGE ( 'NONE', *, *, #213, .T. ) ;
#476 = PLANE ( 'NONE',  #368 ) ;
#477 = PLANE ( 'NONE',  #200 ) ;
#478 = ORIENTED_EDGE ( 'NONE', *, *, #34, .F. ) ;
#479 = EDGE_CURVE ( 'NONE', #681, #580, #488, .T. ) ;
#480 = CARTESIAN_POINT ( 'NONE',  ( 1.000000000000000000, 0.000000000000000000, 0.000000000000000000 ) ) ;
#481 = AXIS2_PLACEMENT_3D ( 'NONE', #155, #738, #389 ) ;
#482 = CARTESIAN_POINT ( 'NONE',  ( 0.3040153059433678417, 0.02000000000000000042, -0.4714837687063951899 ) ) ;
#483 = ORIENTED_EDGE ( 'NONE', *, *, #262, .T. ) ;
#484 = VECTOR ( 'NONE', #184, 1000.000000000000000 ) ;
#485 = CARTESIAN_POINT ( 'NONE',  ( 0.000000000000000000, 0.4000000000000000222, 0.000000000000000000 ) ) ;
#486 = SURFACE_STYLE_FILL_AREA ( #248 ) ;
#487 = ORIENTED_EDGE ( 'NONE', *, *, #564, .F. ) ;
#488 = LINE ( 'NONE', #722, #579 ) ;
#489 = CARTESIAN_POINT ( 'NONE',  ( 0.9600000000000000755, 0.4100000000000000311, -0.5350000000000001421 ) ) ;
#490 = CARTESIAN_POINT ( 'NONE',  ( 0.1150000000000001021, 0.4100000000000000311, -0.06499999999999994671 ) ) ;
#491 = EDGE_CURVE ( 'NONE', #574, #316, #638, .T. ) ;
#492 = ORIENTED_EDGE ( 'NONE', *, *, #192, .F. ) ;
#493 = PRESENTATION_STYLE_ASSIGNMENT (( #257 ) ) ;
#494 = CARTESIAN_POINT ( 'NONE',  ( 0.000000000000000000, 0.4000000000000000222, 0.000000000000000000 ) ) ;
#495 = ORIENTED_EDGE ( 'NONE', *, *, #711, .T. ) ;
#496 =( LENGTH_UNIT ( ) NAMED_UNIT ( * ) SI_UNIT ( .MILLI., .METRE. ) );
#497 = AXIS2_PLACEMENT_3D ( 'NONE', #38, #270, #87 ) ;
#498 = VECTOR ( 'NONE', #203, 1000.000000000000000 ) ;
#499 = VECTOR ( 'NONE', #436, 1000.000000000000000 ) ;
#500 = PLANE ( 'NONE',  #378 ) ;
#501 = EDGE_CURVE ( 'NONE', #411, #122, #664, .T. ) ;
#502 = PRODUCT_CONTEXT ( 'NONE', #190, 'mechanical' ) ;
#503 =( NAMED_UNIT ( * ) PLANE_ANGLE_UNIT ( ) SI_UNIT ( $, .RADIAN. ) );
#504 = CARTESIAN_POINT ( 'NONE',  ( 0.6399999999999999023, 0.4100000000000000311, -0.5350000000000000311 ) ) ;
#505 = DIRECTION ( 'NONE',  ( -0.000000000000000000, -0.000000000000000000, -1.000000000000000000 ) ) ;
#506 = MECHANICAL_DESIGN_GEOMETRIC_PRESENTATION_REPRESENTATION (  '', ( #413 ), #170 ) ;
#507 = FACE_OUTER_BOUND ( 'NONE', #255, .T. ) ;
#508 = LINE ( 'NONE', #560, #40 ) ;
#509 = CYLINDRICAL_SURFACE ( 'NONE', #400, 0.02763636363636368803 ) ;
#510 = DIRECTION ( 'NONE',  ( 1.000000000000000000, 0.000000000000000000, 0.000000000000000000 ) ) ;
#511 = EDGE_CURVE ( 'NONE', #567, #681, #607, .T. ) ;
#512 = FACE_OUTER_BOUND ( 'NONE', #20, .T. ) ;
#513 = FACE_OUTER_BOUND ( 'NONE', #219, .T. ) ;
#514 = FACE_OUTER_BOUND ( 'NONE', #65, .T. ) ;
#515 = ORIENTED_EDGE ( 'NONE', *, *, #269, .F. ) ;
#516 = AXIS2_PLACEMENT_3D ( 'NONE', #691, #277, #321 ) ;
#517 = DIRECTION ( 'NONE',  ( -0.000000000000000000, -1.000000000000000000, -0.000000000000000000 ) ) ;
#518 = STYLED_ITEM ( 'NONE', ( #217 ), #402 ) ;
#519 = ORIENTED_EDGE ( 'NONE', *, *, #180, .T. ) ;
#520 = EDGE_CURVE ( 'NONE', #8, #580, #731, .T. ) ;
#521 = PRESENTATION_STYLE_ASSIGNMENT (( #171 ) ) ;
#522 = ORIENTED_EDGE ( 'NONE', *, *, #11, .T. ) ;
#523 = FACE_OUTER_BOUND ( 'NONE', #119, .T. ) ;
#524 = DIRECTION ( 'NONE',  ( 0.000000000000000000, -0.000000000000000000, -1.000000000000000000 ) ) ;
#525 = ORIENTED_EDGE ( 'NONE', *, *, #148, .T. ) ;
#526 = CARTESIAN_POINT ( 'NONE',  ( 0.3600000000000001532, 0.4100000000000000311, -0.06499999999999998834 ) ) ;
#527 = CARTESIAN_POINT ( 'NONE',  ( 0.3600000000000001532, 0.4100000000000000311, -0.06499999999999998834 ) ) ;
#528 = MECHANICAL_DESIGN_GEOMETRIC_PRESENTATION_REPRESENTATION (  '', ( #429 ), #442 ) ;
#529 = ORIENTED_EDGE ( 'NONE', *, *, #148, .F. ) ;
#530 = PRESENTATION_LAYER_ASSIGNMENT (  '', '', ( #429 ) ) ;
#531 = PRESENTATION_STYLE_ASSIGNMENT (( #355 ) ) ;
#532 = PLANE ( 'NONE',  #466 ) ;
#533 = EDGE_CURVE ( 'NONE', #279, #193, #383, .T. ) ;
#534 = ORIENTED_EDGE ( 'NONE', *, *, #80, .F. ) ;
#535 = SURFACE_STYLE_FILL_AREA ( #421 ) ;
#536 = SURFACE_SIDE_STYLE ('',( #135 ) ) ;
#537 = SURFACE_SIDE_STYLE ('',( #631 ) ) ;
#538 = CARTESIAN_POINT ( 'NONE',  ( 0.6399999999999999023, 0.4000000000000000222, -0.06499999999999994671 ) ) ;
#539 = SURFACE_STYLE_FILL_AREA ( #723 ) ;
#540 = FACE_OUTER_BOUND ( 'NONE', #659, .T. ) ;
#541 = PRODUCT_DEFINITION_CONTEXT ( 'detailed design', #282, 'design' ) ;
#542 = ADVANCED_FACE ( 'NONE', ( #558 ), #79, .T. ) ;
#543 = DIRECTION ( 'NONE',  ( 0.000000000000000000, 0.000000000000000000, 1.000000000000000000 ) ) ;
#544 =( NAMED_UNIT ( * ) SI_UNIT ( $, .STERADIAN. ) SOLID_ANGLE_UNIT ( ) );
#545 = ORIENTED_EDGE ( 'NONE', *, *, #711, .F. ) ;
#546 = CARTESIAN_POINT ( 'NONE',  ( 0.000000000000000000, 0.4000000000000000222, -0.5999999999999999778 ) ) ;
#547 =( GEOMETRIC_REPRESENTATION_CONTEXT ( 3 ) GLOBAL_UNCERTAINTY_ASSIGNED_CONTEXT ( ( #463 ) ) GLOBAL_UNIT_ASSIGNED_CONTEXT ( ( #391, #212, #330 ) ) REPRESENTATION_CONTEXT ( 'NONE', 'WORKASPACE' ) );
#548 = ORIENTED_EDGE ( 'NONE', *, *, #520, .F. ) ;
#549 = DIRECTION ( 'NONE',  ( 0.000000000000000000, 0.000000000000000000, -1.000000000000000000 ) ) ;
#550 = VECTOR ( 'NONE', #312, 1000.000000000000000 ) ;
#551 = DIRECTION ( 'NONE',  ( 1.000000000000000000, -0.000000000000000000, 0.000000000000000000 ) ) ;
#552 = DIRECTION ( 'NONE',  ( -0.000000000000000000, -1.000000000000000000, -0.000000000000000000 ) ) ;
#553 = VECTOR ( 'NONE', #716, 1000.000000000000000 ) ;
#554 = VECTOR ( 'NONE', #66, 1000.000000000000000 ) ;
#555 = FILL_AREA_STYLE ('',( #319 ) ) ;
#556 = MECHANICAL_DESIGN_GEOMETRIC_PRESENTATION_REPRESENTATION (  '', ( #92 ), #224 ) ;
#557 = SURFACE_STYLE_USAGE ( .BOTH. , #386 ) ;
#558 = FACE_OUTER_BOUND ( 'NONE', #138, .T. ) ;
#559 =( NAMED_UNIT ( * ) PLANE_ANGLE_UNIT ( ) SI_UNIT ( $, .RADIAN. ) );
#560 = CARTESIAN_POINT ( 'NONE',  ( 0.3600000000000001532, 0.4100000000000000311, -0.06499999999999998834 ) ) ;
#561 = DIRECTION ( 'NONE',  ( -0.000000000000000000, -0.000000000000000000, 1.000000000000000000 ) ) ;
#562 =( LENGTH_UNIT ( ) NAMED_UNIT ( * ) SI_UNIT ( .MILLI., .METRE. ) );
#563 = LINE ( 'NONE', #619, #37 ) ;
#564 = EDGE_CURVE ( 'NONE', #177, #746, #19, .T. ) ;
#565 = VECTOR ( 'NONE', #310, 1000.000000000000000 ) ;
#566 = DIRECTION ( 'NONE',  ( 0.000000000000000000, -0.000000000000000000, -1.000000000000000000 ) ) ;
#567 = VERTEX_POINT ( 'NONE', #546 ) ;
#568 = DIRECTION ( 'NONE',  ( -0.000000000000000000, -1.000000000000000000, -0.000000000000000000 ) ) ;
#569 = EDGE_LOOP ( 'NONE', ( #548, #183, #377, #275 ) ) ;
#570 = PRODUCT ( 'PESD3V3L1BSLZ', 'PESD3V3L1BSLZ', '', ( #502 ) ) ;
#571 = PLANE ( 'NONE',  #77 ) ;
#572 = CARTESIAN_POINT ( 'NONE',  ( 0.6399999999999999023, 0.4100000000000000311, -0.06499999999999994671 ) ) ;
#573 = ADVANCED_FACE ( 'NONE', ( #21 ), #144, .F. ) ;
#574 = VERTEX_POINT ( 'NONE', #267 ) ;
#575 = AXIS2_PLACEMENT_3D ( 'NONE', #469, #474, #9 ) ;
#576 = PLANE ( 'NONE',  #185 ) ;
#577 = UNCERTAINTY_MEASURE_WITH_UNIT (LENGTH_MEASURE( 1.000000000000000082E-05 ), #369, 'distance_accuracy_value', 'NONE');
#578 = CARTESIAN_POINT ( 'NONE',  ( 0.000000000000000000, 0.4000000000000000222, -0.06499999999999994671 ) ) ;
#579 = VECTOR ( 'NONE', #151, 1000.000000000000000 ) ;
#580 = VERTEX_POINT ( 'NONE', #624 ) ;
#581 = SURFACE_STYLE_USAGE ( .BOTH. , #585 ) ;
#582 =( NAMED_UNIT ( * ) PLANE_ANGLE_UNIT ( ) SI_UNIT ( $, .RADIAN. ) );
#583 = EDGE_LOOP ( 'NONE', ( #728, #449, #487, #623 ) ) ;
#584 = DIRECTION ( 'NONE',  ( 0.000000000000000000, 0.000000000000000000, -1.000000000000000000 ) ) ;
#585 = SURFACE_SIDE_STYLE ('',( #344 ) ) ;
#586 = COLOUR_RGB ( '',0.6313725490196078205, 0.6392156862745097534, 0.5686274509803921351 ) ;
#587 = UNCERTAINTY_MEASURE_WITH_UNIT (LENGTH_MEASURE( 1.000000000000000082E-05 ), #496, 'distance_accuracy_value', 'NONE');
#588 = ORIENTED_EDGE ( 'NONE', *, *, #591, .T. ) ;
#589 = VECTOR ( 'NONE', #124, 1000.000000000000000 ) ;
#590 =( NAMED_UNIT ( * ) SI_UNIT ( $, .STERADIAN. ) SOLID_ANGLE_UNIT ( ) );
#591 = EDGE_CURVE ( 'NONE', #567, #108, #682, .T. ) ;
#592 = FILL_AREA_STYLE ('',( #285 ) ) ;
#593 = COLOUR_RGB ( '',0.6313725490196078205, 0.6392156862745097534, 0.5686274509803921351 ) ;
#594 = ORIENTED_EDGE ( 'NONE', *, *, #127, .T. ) ;
#595 = DIRECTION ( 'NONE',  ( 1.000000000000000000, -0.000000000000000000, -2.212657494868376934E-16 ) ) ;
#596 = CARTESIAN_POINT ( 'NONE',  ( 0.6399999999999999023, 0.4100000000000000311, -0.5350000000000000311 ) ) ;
#597 = ORIENTED_EDGE ( 'NONE', *, *, #644, .T. ) ;
#598 = CARTESIAN_POINT ( 'NONE',  ( 0.1150000000000000883, 0.4100000000000000311, -0.06499999999999994671 ) ) ;
#599 = LINE ( 'NONE', #494, #261 ) ;
#600 = SURFACE_STYLE_USAGE ( .BOTH. , #536 ) ;
#601 = ADVANCED_FACE ( 'NONE', ( #507 ), #126, .F. ) ;
#602 = FILL_AREA_STYLE ('',( #628 ) ) ;
#603 = CARTESIAN_POINT ( 'NONE',  ( 0.3040153059433678417, 0.02000000000000000042, -0.4991201323427588710 ) ) ;
#604 = DIRECTION ( 'NONE',  ( 0.000000000000000000, 0.000000000000000000, 1.000000000000000000 ) ) ;
#605 = VERTEX_POINT ( 'NONE', #645 ) ;
#606 = AXIS2_PLACEMENT_3D ( 'NONE', #447, #618, #670 ) ;
#607 = LINE ( 'NONE', #318, #173 ) ;
#608 = ORIENTED_EDGE ( 'NONE', *, *, #3, .F. ) ;
#609 = DIRECTION ( 'NONE',  ( 1.000000000000000000, 0.000000000000000000, 0.000000000000000000 ) ) ;
#610 = DIRECTION ( 'NONE',  ( 0.000000000000000000, 1.000000000000000000, 0.000000000000000000 ) ) ;
#611 = CARTESIAN_POINT ( 'NONE',  ( 1.000000000000000000, 0.4000000000000000222, -0.5999999999999999778 ) ) ;
#612 = CARTESIAN_POINT ( 'NONE',  ( 0.04000000000000004940, 0.4100000000000000311, -0.5350000000000000311 ) ) ;
#613 = VECTOR ( 'NONE', #505, 1000.000000000000000 ) ;
#614 = CARTESIAN_POINT ( 'NONE',  ( 0.000000000000000000, 0.4000000000000000222, -0.06499999999999994671 ) ) ;
#615 = EDGE_CURVE ( 'NONE', #361, #415, #412, .T. ) ;
#616 = VERTEX_POINT ( 'NONE', #598 ) ;
#617 =( NAMED_UNIT ( * ) PLANE_ANGLE_UNIT ( ) SI_UNIT ( $, .RADIAN. ) );
#618 = DIRECTION ( 'NONE',  ( -4.235164736271503544E-17, 0.000000000000000000, -1.000000000000000000 ) ) ;
#619 = CARTESIAN_POINT ( 'NONE',  ( 0.3040153059433678417, 0.02000000000000000042, -0.5267564959791225521 ) ) ;
#620 = CARTESIAN_POINT ( 'NONE',  ( 0.3040153059433678417, 0.02000000000000000042, -0.4991201323427588710 ) ) ;
#621 = SHAPE_DEFINITION_REPRESENTATION ( #222, #433 ) ;
#622 = DIRECTION ( 'NONE',  ( 0.000000000000000000, -0.000000000000000000, 1.000000000000000000 ) ) ;
#623 = ORIENTED_EDGE ( 'NONE', *, *, #269, .T. ) ;
#624 = CARTESIAN_POINT ( 'NONE',  ( 1.000000000000000000, 0.000000000000000000, -0.5999999999999999778 ) ) ;
#625 = EDGE_CURVE ( 'NONE', #163, #234, #181, .T. ) ;
#626 = DIRECTION ( 'NONE',  ( -0.000000000000000000, -1.000000000000000000, -0.000000000000000000 ) ) ;
#627 = EDGE_LOOP ( 'NONE', ( #460, #352, #695, #668 ) ) ;
#628 = FILL_AREA_STYLE_COLOUR ( '', #71 ) ;
#629 = EDGE_CURVE ( 'NONE', #346, #746, #473, .T. ) ;
#630 = DIRECTION ( 'NONE',  ( 0.000000000000000000, 0.000000000000000000, -1.000000000000000000 ) ) ;
#631 = SURFACE_STYLE_FILL_AREA ( #602 ) ;
#632 = EDGE_CURVE ( 'NONE', #13, #298, #91, .T. ) ;
#633 = FACE_OUTER_BOUND ( 'NONE', #569, .T. ) ;
#634 = VERTEX_POINT ( 'NONE', #121 ) ;
#635 = VECTOR ( 'NONE', #552, 1000.000000000000000 ) ;
#636 = DIRECTION ( 'NONE',  ( 0.000000000000000000, -0.000000000000000000, -1.000000000000000000 ) ) ;
#637 = LINE ( 'NONE', #226, #439 ) ;
#638 = CIRCLE ( 'NONE', #737, 0.02763636363636368803 ) ;
#639 = ORIENTED_EDGE ( 'NONE', *, *, #725, .T. ) ;
#640 = UNCERTAINTY_MEASURE_WITH_UNIT (LENGTH_MEASURE( 1.000000000000000082E-05 ), #174, 'distance_accuracy_value', 'NONE');
#641 = CARTESIAN_POINT ( 'NONE',  ( 0.3600000000000000977, 0.4100000000000000311, -0.5350000000000000311 ) ) ;
#642 = PRESENTATION_STYLE_ASSIGNMENT (( #175 ) ) ;
#643 = ORIENTED_EDGE ( 'NONE', *, *, #244, .F. ) ;
#644 = EDGE_CURVE ( 'NONE', #605, #471, #697, .T. ) ;
#645 = CARTESIAN_POINT ( 'NONE',  ( 0.9600000000000000755, 0.4000000000000000222, -0.06499999999999994671 ) ) ;
#646 = UNCERTAINTY_MEASURE_WITH_UNIT (LENGTH_MEASURE( 1.000000000000000082E-05 ), #241, 'distance_accuracy_value', 'NONE');
#647 = FACE_OUTER_BOUND ( 'NONE', #61, .T. ) ;
#648 = AXIS2_PLACEMENT_3D ( 'NONE', #35, #568, #276 ) ;
#649 = ORIENTED_EDGE ( 'NONE', *, *, #120, .T. ) ;
#650 = CARTESIAN_POINT ( 'NONE',  ( 0.04000000000000009104, 0.4100000000000000311, -0.1399999999999999301 ) ) ;
#651 =( NAMED_UNIT ( * ) SI_UNIT ( $, .STERADIAN. ) SOLID_ANGLE_UNIT ( ) );
#652 = VECTOR ( 'NONE', #189, 1000.000000000000000 ) ;
#653 = PRODUCT_DEFINITION_FORMATION_WITH_SPECIFIED_SOURCE ( 'ANY', '', #570, .NOT_KNOWN. ) ;
#654 = ORIENTED_EDGE ( 'NONE', *, *, #629, .F. ) ;
#655 = VECTOR ( 'NONE', #610, 1000.000000000000000 ) ;
#656 = CARTESIAN_POINT ( 'NONE',  ( 0.000000000000000000, 0.000000000000000000, -0.5999999999999999778 ) ) ;
#657 = FILL_AREA_STYLE_COLOUR ( '', #417 ) ;
#658 = EDGE_CURVE ( 'NONE', #580, #197, #408, .T. ) ;
#659 = EDGE_LOOP ( 'NONE', ( #483, #721, #399, #588 ) ) ;
#660 = FILL_AREA_STYLE ('',( #228 ) ) ;
#661 = UNCERTAINTY_MEASURE_WITH_UNIT (LENGTH_MEASURE( 1.000000000000000082E-05 ), #195, 'distance_accuracy_value', 'NONE');
#662 = PRESENTATION_STYLE_ASSIGNMENT (( #425 ) ) ;
#663 = ORIENTED_EDGE ( 'NONE', *, *, #34, .T. ) ;
#664 = LINE ( 'NONE', #367, #498 ) ;
#665 = ORIENTED_EDGE ( 'NONE', *, *, #120, .F. ) ;
#666 = AXIS2_PLACEMENT_3D ( 'NONE', #596, #360, #311 ) ;
#667 = CARTESIAN_POINT ( 'NONE',  ( 0.6399999999999999023, 0.4000000000000000222, 0.000000000000000000 ) ) ;
#668 = ORIENTED_EDGE ( 'NONE', *, *, #192, .T. ) ;
#669 = EDGE_CURVE ( 'NONE', #122, #193, #235, .T. ) ;
#670 = DIRECTION ( 'NONE',  ( -1.000000000000000000, 0.000000000000000000, 4.235164736271503544E-17 ) ) ;
#671 = FILL_AREA_STYLE_COLOUR ( '', #696 ) ;
#672 = DIRECTION ( 'NONE',  ( 1.029305859954592956E-16, -0.000000000000000000, 1.000000000000000000 ) ) ;
#673 = LINE ( 'NONE', #489, #499 ) ;
#674 = VECTOR ( 'NONE', #239, 1000.000000000000000 ) ;
#675 = SURFACE_STYLE_USAGE ( .BOTH. , #42 ) ;
#676 =( NAMED_UNIT ( * ) SI_UNIT ( $, .STERADIAN. ) SOLID_ANGLE_UNIT ( ) );
#677 = VECTOR ( 'NONE', #636, 1000.000000000000000 ) ;
#678 = PLANE ( 'NONE',  #497 ) ;
#679 = EDGE_CURVE ( 'NONE', #298, #13, #17, .T. ) ;
#680 =( NAMED_UNIT ( * ) PLANE_ANGLE_UNIT ( ) SI_UNIT ( $, .RADIAN. ) );
#681 = VERTEX_POINT ( 'NONE', #656 ) ;
#682 = LINE ( 'NONE', #101, #29 ) ;
#683 = DIRECTION ( 'NONE',  ( 0.000000000000000000, 1.000000000000000000, 0.000000000000000000 ) ) ;
#684 = ORIENTED_EDGE ( 'NONE', *, *, #533, .F. ) ;
#685 = STYLED_ITEM ( 'NONE', ( #461 ), #395 ) ;
#686 = CARTESIAN_POINT ( 'NONE',  ( 0.3040153059433678417, 0.000000000000000000, -0.5267564959791225521 ) ) ;
#687 = VECTOR ( 'NONE', #351, 1000.000000000000000 ) ;
#688 = ORIENTED_EDGE ( 'NONE', *, *, #644, .F. ) ;
#689 = STYLED_ITEM ( 'NONE', ( #642 ), #452 ) ;
#690 = COLOUR_RGB ( '',0.4980392156862745168, 0.4980392156862745168, 0.4980392156862745168 ) ;
#691 = CARTESIAN_POINT ( 'NONE',  ( 0.3600000000000001532, 0.4100000000000000311, -0.06499999999999998834 ) ) ;
#692 = DIRECTION ( 'NONE',  ( 0.000000000000000000, 0.000000000000000000, 1.000000000000000000 ) ) ;
#693 = ORIENTED_EDGE ( 'NONE', *, *, #278, .T. ) ;
#694 = SURFACE_SIDE_STYLE ('',( #4 ) ) ;
#695 = ORIENTED_EDGE ( 'NONE', *, *, #462, .T. ) ;
#696 = COLOUR_RGB ( '',0.6313725490196078205, 0.6392156862745097534, 0.5686274509803921351 ) ;
#697 = LINE ( 'NONE', #467, #484 ) ;
#698 = SURFACE_SIDE_STYLE ('',( #468 ) ) ;
#699 = PRESENTATION_LAYER_ASSIGNMENT (  '', '', ( #331 ) ) ;
#700 = VECTOR ( 'NONE', #123, 1000.000000000000000 ) ;
#701 = LINE ( 'NONE', #414, #242 ) ;
#702 = STYLED_ITEM ( 'NONE', ( #493 ), #573 ) ;
#703 = EDGE_CURVE ( 'NONE', #616, #234, #303, .T. ) ;
#704 = ORIENTED_EDGE ( 'NONE', *, *, #80, .T. ) ;
#705 = SURFACE_SIDE_STYLE ('',( #299 ) ) ;
#706 = CARTESIAN_POINT ( 'NONE',  ( 0.3600000000000001532, 0.4000000000000000222, -0.06499999999999998834 ) ) ;
#707 = VERTEX_POINT ( 'NONE', #538 ) ;
#708 = DIRECTION ( 'NONE',  ( -2.212657494868376934E-16, 0.000000000000000000, -1.000000000000000000 ) ) ;
#709 = CARTESIAN_POINT ( 'NONE',  ( 0.3600000000000000422, 0.4100000000000000311, -0.5350000000000000311 ) ) ;
#710 = ORIENTED_EDGE ( 'NONE', *, *, #337, .T. ) ;
#711 = EDGE_CURVE ( 'NONE', #361, #279, #74, .T. ) ;
#712 = DIRECTION ( 'NONE',  ( -1.000000000000000000, 0.000000000000000000, -0.000000000000000000 ) ) ;
#713 = CARTESIAN_POINT ( 'NONE',  ( 0.04000000000000004940, 0.4100000000000000311, -0.5350000000000000311 ) ) ;
#714 = PRESENTATION_LAYER_ASSIGNMENT (  '', '', ( #689 ) ) ;
#715 = ORIENTED_EDGE ( 'NONE', *, *, #165, .F. ) ;
#716 = DIRECTION ( 'NONE',  ( -0.000000000000000000, -1.000000000000000000, 0.000000000000000000 ) ) ;
#717 = DIRECTION ( 'NONE',  ( -0.000000000000000000, 0.000000000000000000, 1.000000000000000000 ) ) ;
#718 = ORIENTED_EDGE ( 'NONE', *, *, #337, .F. ) ;
#719 = CARTESIAN_POINT ( 'NONE',  ( 0.3040153059433678417, 0.000000000000000000, -0.4991201323427588710 ) ) ;
#720 = SURFACE_SIDE_STYLE ('',( #535 ) ) ;
#721 = ORIENTED_EDGE ( 'NONE', *, *, #381, .T. ) ;
#722 = CARTESIAN_POINT ( 'NONE',  ( 0.000000000000000000, 0.000000000000000000, -0.5999999999999999778 ) ) ;
#723 = FILL_AREA_STYLE ('',( #657 ) ) ;
#724 = CARTESIAN_POINT ( 'NONE',  ( 0.6399999999999999023, 0.4100000000000000311, -0.06499999999999994671 ) ) ;
#725 = EDGE_CURVE ( 'NONE', #193, #616, #359, .T. ) ;
#726 = DIRECTION ( 'NONE',  ( -1.029305859954592956E-16, 0.000000000000000000, -1.000000000000000000 ) ) ;
#727 = STYLED_ITEM ( 'NONE', ( #521 ), #237 ) ;
#728 = ORIENTED_EDGE ( 'NONE', *, *, #11, .F. ) ;
#729 = LINE ( 'NONE', #504, #220 ) ;
#730 = SURFACE_STYLE_FILL_AREA ( #555 ) ;
#731 = LINE ( 'NONE', #31, #141 ) ;
#732 = ADVANCED_FACE ( 'NONE', ( #523 ), #476, .F. ) ;
#733 = VECTOR ( 'NONE', #215, 1000.000000000000000 ) ;
#734 = FACE_OUTER_BOUND ( 'NONE', #627, .T. ) ;
#735 = CARTESIAN_POINT ( 'NONE',  ( 0.3040153059433678417, 0.02000000000000000042, -0.4991201323427588710 ) ) ;
#736 = MECHANICAL_DESIGN_GEOMETRIC_PRESENTATION_REPRESENTATION (  '', ( #331 ), #75 ) ;
#737 = AXIS2_PLACEMENT_3D ( 'NONE', #719, #194, #549 ) ;
#738 = DIRECTION ( 'NONE',  ( 1.000000000000000000, -0.000000000000000000, 0.000000000000000000 ) ) ;
#739 = DIRECTION ( 'NONE',  ( 0.000000000000000000, 1.000000000000000000, 0.000000000000000000 ) ) ;
#740 = LINE ( 'NONE', #451, #72 ) ;
#741 = PLANE ( 'NONE',  #409 ) ;
#742 = CARTESIAN_POINT ( 'NONE',  ( 0.000000000000000000, 0.000000000000000000, 0.000000000000000000 ) ) ;
#743 = EDGE_CURVE ( 'NONE', #471, #346, #673, .T. ) ;
#744 = VECTOR ( 'NONE', #258, 1000.000000000000000 ) ;
#745 = DIRECTION ( 'NONE',  ( -1.000000000000000000, -0.000000000000000000, -0.000000000000000000 ) ) ;
#746 = VERTEX_POINT ( 'NONE', #384 ) ;
#747 = CARTESIAN_POINT ( 'NONE',  ( 0.9600000000000000755, 0.4000000000000000222, 0.000000000000000000 ) ) ;
#748 = UNCERTAINTY_MEASURE_WITH_UNIT (LENGTH_MEASURE( 1.000000000000000082E-05 ), #562, 'distance_accuracy_value', 'NONE');
#749 = ORIENTED_EDGE ( 'NONE', *, *, #669, .F. ) ;
ENDSEC;
END-ISO-10303-21;
