G04 #@! TF.GenerationSoftware,KiCad,Pcbnew,10.0.0*
G04 #@! TF.CreationDate,2026-04-24T12:36:54+02:00*
G04 #@! TF.ProjectId,power_board,706f7765-725f-4626-9f61-72642e6b6963,rev?*
G04 #@! TF.SameCoordinates,Original*
G04 #@! TF.FileFunction,Copper,L4,Bot*
G04 #@! TF.FilePolarity,Positive*
%FSLAX46Y46*%
G04 Gerber Fmt 4.6, Leading zero omitted, Abs format (unit mm)*
G04 Created by KiCad (PCBNEW 10.0.0) date 2026-04-24 12:36:54*
%MOMM*%
%LPD*%
G01*
G04 APERTURE LIST*
G04 Aperture macros list*
%AMRoundRect*
0 Rectangle with rounded corners*
0 $1 Rounding radius*
0 $2 $3 $4 $5 $6 $7 $8 $9 X,Y pos of 4 corners*
0 Add a 4 corners polygon primitive as box body*
4,1,4,$2,$3,$4,$5,$6,$7,$8,$9,$2,$3,0*
0 Add four circle primitives for the rounded corners*
1,1,$1+$1,$2,$3*
1,1,$1+$1,$4,$5*
1,1,$1+$1,$6,$7*
1,1,$1+$1,$8,$9*
0 Add four rect primitives between the rounded corners*
20,1,$1+$1,$2,$3,$4,$5,0*
20,1,$1+$1,$4,$5,$6,$7,0*
20,1,$1+$1,$6,$7,$8,$9,0*
20,1,$1+$1,$8,$9,$2,$3,0*%
G04 Aperture macros list end*
G04 #@! TA.AperFunction,ComponentPad*
%ADD10C,1.600000*%
G04 #@! TD*
G04 #@! TA.AperFunction,ComponentPad*
%ADD11RoundRect,0.250000X-0.550000X-0.550000X0.550000X-0.550000X0.550000X0.550000X-0.550000X0.550000X0*%
G04 #@! TD*
G04 #@! TA.AperFunction,ComponentPad*
%ADD12C,2.010000*%
G04 #@! TD*
G04 #@! TA.AperFunction,ComponentPad*
%ADD13RoundRect,0.249999X-0.850001X-0.850001X0.850001X-0.850001X0.850001X0.850001X-0.850001X0.850001X0*%
G04 #@! TD*
G04 #@! TA.AperFunction,ComponentPad*
%ADD14C,2.200000*%
G04 #@! TD*
G04 #@! TA.AperFunction,ComponentPad*
%ADD15RoundRect,0.250000X-0.550000X0.550000X-0.550000X-0.550000X0.550000X-0.550000X0.550000X0.550000X0*%
G04 #@! TD*
G04 #@! TA.AperFunction,ComponentPad*
%ADD16R,1.700000X1.700000*%
G04 #@! TD*
G04 #@! TA.AperFunction,ComponentPad*
%ADD17C,1.700000*%
G04 #@! TD*
G04 #@! TA.AperFunction,ComponentPad*
%ADD18RoundRect,0.250000X1.050000X1.050000X-1.050000X1.050000X-1.050000X-1.050000X1.050000X-1.050000X0*%
G04 #@! TD*
G04 #@! TA.AperFunction,ComponentPad*
%ADD19C,2.600000*%
G04 #@! TD*
G04 #@! TA.AperFunction,ComponentPad*
%ADD20R,1.530000X1.530000*%
G04 #@! TD*
G04 #@! TA.AperFunction,ComponentPad*
%ADD21C,1.530000*%
G04 #@! TD*
G04 #@! TA.AperFunction,ComponentPad*
%ADD22RoundRect,0.250000X-0.625000X0.350000X-0.625000X-0.350000X0.625000X-0.350000X0.625000X0.350000X0*%
G04 #@! TD*
G04 #@! TA.AperFunction,ComponentPad*
%ADD23O,1.750000X1.200000*%
G04 #@! TD*
G04 #@! TA.AperFunction,ComponentPad*
%ADD24C,0.800000*%
G04 #@! TD*
G04 #@! TA.AperFunction,ComponentPad*
%ADD25C,6.400000*%
G04 #@! TD*
G04 #@! TA.AperFunction,ComponentPad*
%ADD26R,2.520000X2.520000*%
G04 #@! TD*
G04 #@! TA.AperFunction,ComponentPad*
%ADD27C,2.520000*%
G04 #@! TD*
G04 #@! TA.AperFunction,ComponentPad*
%ADD28RoundRect,0.250000X0.550000X0.550000X-0.550000X0.550000X-0.550000X-0.550000X0.550000X-0.550000X0*%
G04 #@! TD*
G04 #@! TA.AperFunction,ComponentPad*
%ADD29RoundRect,0.250000X0.550000X-0.550000X0.550000X0.550000X-0.550000X0.550000X-0.550000X-0.550000X0*%
G04 #@! TD*
G04 #@! TA.AperFunction,ViaPad*
%ADD30C,0.800000*%
G04 #@! TD*
G04 #@! TA.AperFunction,ViaPad*
%ADD31C,0.500000*%
G04 #@! TD*
G04 #@! TA.AperFunction,Conductor*
%ADD32C,1.000000*%
G04 #@! TD*
G04 #@! TA.AperFunction,Conductor*
%ADD33C,0.400000*%
G04 #@! TD*
G04 #@! TA.AperFunction,Conductor*
%ADD34C,0.200000*%
G04 #@! TD*
G04 #@! TA.AperFunction,Conductor*
%ADD35C,0.300000*%
G04 #@! TD*
G04 #@! TA.AperFunction,Conductor*
%ADD36C,0.500000*%
G04 #@! TD*
G04 APERTURE END LIST*
D10*
X36500000Y-107000000D03*
X39000000Y-107000000D03*
D11*
X95500000Y-132000000D03*
D10*
X98000000Y-132000000D03*
D11*
X54000000Y-143000000D03*
D10*
X56500000Y-143000000D03*
D12*
X38530000Y-163975000D03*
X49770000Y-163975000D03*
X38530000Y-166875000D03*
X49770000Y-166875000D03*
D10*
X89000000Y-161000000D03*
X81380000Y-161000000D03*
D13*
X81380000Y-166000000D03*
D14*
X89000000Y-166000000D03*
D10*
X89190000Y-115000000D03*
X89190000Y-122620000D03*
X55000000Y-113000000D03*
X57500000Y-113000000D03*
X55710000Y-119700000D03*
X48090000Y-119700000D03*
X59500000Y-102000000D03*
X62000000Y-102000000D03*
X44380000Y-149000000D03*
X52000000Y-149000000D03*
D15*
X80000000Y-128500000D03*
D10*
X80000000Y-131000000D03*
X39190000Y-112000000D03*
X46810000Y-112000000D03*
D16*
X50000000Y-145175000D03*
D17*
X50000000Y-142635000D03*
D10*
X32000000Y-144810000D03*
X32000000Y-137190000D03*
X55000000Y-107000000D03*
X57500000Y-107000000D03*
X81500000Y-115140000D03*
X81500000Y-122760000D03*
X38920000Y-102000000D03*
X49080000Y-102000000D03*
D18*
X42200000Y-137500000D03*
D19*
X37400000Y-137500000D03*
D10*
X55540000Y-167850000D03*
X63160000Y-167850000D03*
D11*
X55000000Y-137000000D03*
D10*
X57500000Y-137000000D03*
X57000000Y-123000000D03*
X57000000Y-130620000D03*
X53000000Y-133000000D03*
X45380000Y-133000000D03*
X94000000Y-127000000D03*
X96500000Y-127000000D03*
X74000000Y-102000000D03*
X66380000Y-102000000D03*
X39000000Y-127850000D03*
X39000000Y-125350000D03*
X85000000Y-115150000D03*
X85000000Y-122770000D03*
D11*
X74000000Y-144000000D03*
D10*
X76500000Y-144000000D03*
X37190000Y-154000000D03*
X44810000Y-154000000D03*
D11*
X85000000Y-154000000D03*
D10*
X87500000Y-154000000D03*
D11*
X92000000Y-154000000D03*
D10*
X94500000Y-154000000D03*
D20*
X64000000Y-111000000D03*
D21*
X66540000Y-111000000D03*
X64000000Y-113540000D03*
X66540000Y-113540000D03*
X64000000Y-116080000D03*
X66540000Y-116080000D03*
X64000000Y-118620000D03*
X66540000Y-118620000D03*
X64000000Y-121160000D03*
X66540000Y-121160000D03*
X64000000Y-123700000D03*
X66540000Y-123700000D03*
X64000000Y-126240000D03*
X66540000Y-126240000D03*
X64000000Y-128780000D03*
X66540000Y-128780000D03*
X64000000Y-131320000D03*
X66540000Y-131320000D03*
X64000000Y-133860000D03*
X66540000Y-133860000D03*
X64000000Y-136400000D03*
X66540000Y-136400000D03*
X64000000Y-138940000D03*
X66540000Y-138940000D03*
X64000000Y-141480000D03*
X66540000Y-141480000D03*
X64000000Y-144020000D03*
X66540000Y-144020000D03*
X64000000Y-146560000D03*
X66540000Y-146560000D03*
X64000000Y-149100000D03*
X66540000Y-149100000D03*
X64000000Y-151640000D03*
X66540000Y-151640000D03*
X64000000Y-154180000D03*
X66540000Y-154180000D03*
X64000000Y-156720000D03*
X66540000Y-156720000D03*
X64000000Y-159260000D03*
X66540000Y-159260000D03*
D22*
X76000000Y-117000000D03*
D23*
X76000000Y-119000000D03*
X76000000Y-121000000D03*
D10*
X51000000Y-112620000D03*
X51000000Y-105000000D03*
D24*
X94600000Y-167700000D03*
X95302944Y-166002944D03*
X95302944Y-169397056D03*
X97000000Y-165300000D03*
D25*
X97000000Y-167700000D03*
D24*
X97000000Y-170100000D03*
X98697056Y-166002944D03*
X98697056Y-169397056D03*
X99400000Y-167700000D03*
D11*
X73000000Y-152000000D03*
D10*
X75500000Y-152000000D03*
X34690000Y-157200000D03*
X42310000Y-157200000D03*
X32000000Y-155810000D03*
X32000000Y-148190000D03*
X78000000Y-109000000D03*
X80500000Y-109000000D03*
X56000000Y-102000000D03*
X53500000Y-102000000D03*
X53900000Y-159910000D03*
X53900000Y-152290000D03*
D26*
X96000000Y-111300000D03*
D27*
X96000000Y-116000000D03*
X96000000Y-120700000D03*
D24*
X30000000Y-103000000D03*
X30702944Y-101302944D03*
X30702944Y-104697056D03*
X32400000Y-100600000D03*
D25*
X32400000Y-103000000D03*
D24*
X32400000Y-105400000D03*
X34097056Y-101302944D03*
X34097056Y-104697056D03*
X34800000Y-103000000D03*
D10*
X34100000Y-127660000D03*
X34100000Y-117500000D03*
X77920000Y-103000000D03*
X88080000Y-103000000D03*
D24*
X94300000Y-103500000D03*
X95002944Y-101802944D03*
X95002944Y-105197056D03*
X96700000Y-101100000D03*
D25*
X96700000Y-103500000D03*
D24*
X96700000Y-105900000D03*
X98397056Y-101802944D03*
X98397056Y-105197056D03*
X99100000Y-103500000D03*
D13*
X38880000Y-142600000D03*
D14*
X46500000Y-142600000D03*
D10*
X57000000Y-154810000D03*
X57000000Y-147190000D03*
D28*
X94500000Y-137000000D03*
D10*
X92000000Y-137000000D03*
D28*
X82500000Y-137000000D03*
D10*
X80000000Y-137000000D03*
D24*
X30200000Y-167700000D03*
X30902944Y-166002944D03*
X30902944Y-169397056D03*
X32600000Y-165300000D03*
D25*
X32600000Y-167700000D03*
D24*
X32600000Y-170100000D03*
X34297056Y-166002944D03*
X34297056Y-169397056D03*
X35000000Y-167700000D03*
D16*
X88000000Y-127460000D03*
D17*
X88000000Y-130000000D03*
D10*
X45000000Y-121800000D03*
X37380000Y-121800000D03*
X32000000Y-130500000D03*
X32000000Y-133000000D03*
X30400000Y-107590000D03*
X30400000Y-115210000D03*
X52810000Y-125000000D03*
X45190000Y-125000000D03*
X35180000Y-132700000D03*
X42800000Y-132700000D03*
D29*
X97100000Y-149800000D03*
D10*
X97100000Y-147300000D03*
D28*
X82000000Y-147000000D03*
D10*
X79500000Y-147000000D03*
X90000000Y-158000000D03*
X90000000Y-150380000D03*
X92000000Y-132000000D03*
X84380000Y-132000000D03*
X92700000Y-140300000D03*
X92700000Y-147920000D03*
D29*
X97000000Y-143000000D03*
D10*
X97000000Y-140500000D03*
X84810000Y-140000000D03*
X77190000Y-140000000D03*
D28*
X89200000Y-136600000D03*
D10*
X86700000Y-136600000D03*
X49000000Y-116810000D03*
X49000000Y-109190000D03*
D28*
X76905113Y-135750000D03*
D10*
X74405113Y-135750000D03*
D30*
X44450000Y-109900000D03*
X86500000Y-148800000D03*
X36250000Y-119300000D03*
X75000000Y-129950000D03*
D31*
X48450000Y-136750000D03*
D30*
X41350000Y-118850000D03*
X86350000Y-110900000D03*
X47800000Y-159950000D03*
X42950000Y-106700000D03*
X48850000Y-125400000D03*
X43950000Y-156050000D03*
X88050000Y-142600000D03*
X87550000Y-106750000D03*
X88000000Y-148800000D03*
X52100000Y-129000000D03*
D31*
X53100000Y-135900000D03*
D30*
X51800000Y-127300000D03*
X51000000Y-135250000D03*
X91050000Y-108550000D03*
D31*
X51000000Y-138150000D03*
D30*
X36400000Y-116600000D03*
X39000000Y-148300000D03*
X83550000Y-141550000D03*
X35900000Y-146250000D03*
X85350000Y-106700000D03*
X42500000Y-104450000D03*
X79800000Y-156000000D03*
X41350000Y-115200000D03*
X38150000Y-145100000D03*
X46900000Y-130600000D03*
X46450000Y-118550000D03*
X38750000Y-159900000D03*
D31*
X53250000Y-138200000D03*
D30*
X33000000Y-115300000D03*
X91900000Y-106600000D03*
X84150000Y-143150000D03*
X34050000Y-146100000D03*
X40400000Y-159650000D03*
X51300000Y-160750000D03*
D31*
X39400000Y-157100000D03*
D30*
X44950000Y-158450000D03*
X43900000Y-157150000D03*
X46150000Y-154600000D03*
D31*
X40750000Y-157350000D03*
D30*
X46200000Y-157550000D03*
D31*
X49800000Y-157750000D03*
X83850000Y-146750000D03*
D30*
X77700000Y-130250000D03*
X89900000Y-110400000D03*
X78300000Y-126300000D03*
D31*
X90350000Y-109500000D03*
X89850000Y-107350000D03*
X83550000Y-106800000D03*
X82650000Y-108900000D03*
X94600000Y-146700000D03*
X82150000Y-141700000D03*
X89600000Y-143300000D03*
D30*
X55000000Y-150200000D03*
X41950000Y-150200000D03*
D31*
X42350000Y-149450000D03*
X50250000Y-147900000D03*
X72650000Y-155400000D03*
X42200000Y-148450000D03*
X44000000Y-147150000D03*
X81700000Y-156150000D03*
X40250000Y-156050000D03*
X38350000Y-152500000D03*
X40450000Y-145500000D03*
X46450000Y-140400000D03*
X46450000Y-139500000D03*
X35950000Y-147400000D03*
X35450000Y-148050000D03*
D30*
X42100000Y-151900000D03*
X47450000Y-151900000D03*
X78500000Y-164200000D03*
D31*
X56250000Y-124450000D03*
X61650000Y-125400000D03*
X48950000Y-137350000D03*
X62650000Y-133850000D03*
X52200000Y-119800000D03*
D30*
X47550000Y-145150000D03*
X47800000Y-140350000D03*
D31*
X62650000Y-119800000D03*
X70300000Y-125750000D03*
X50150000Y-131050000D03*
X70175000Y-129075000D03*
D30*
X74500000Y-127850000D03*
D31*
X75050000Y-124650000D03*
X76100000Y-126650000D03*
X73150000Y-124250000D03*
X70350000Y-126750000D03*
X51550000Y-126150000D03*
X46850000Y-128950000D03*
X69050000Y-121950000D03*
X73050000Y-125700000D03*
X48700000Y-131100000D03*
D30*
X44400000Y-103300000D03*
D31*
X83000000Y-142350000D03*
X83400000Y-144950000D03*
X83850000Y-147700000D03*
X75900000Y-162950000D03*
D30*
X75400000Y-156400000D03*
D31*
X68600000Y-123000000D03*
X89650000Y-147350000D03*
X70450000Y-132700000D03*
X85650000Y-141050000D03*
X86950000Y-150050000D03*
X90750000Y-145600000D03*
X92300000Y-145450000D03*
X82100000Y-151500000D03*
X85150000Y-151000000D03*
X92675000Y-144825000D03*
D30*
X92550000Y-143800000D03*
D31*
X98600000Y-141700000D03*
X49250000Y-138000000D03*
X65400000Y-137650000D03*
X59450000Y-135800000D03*
X65150000Y-135050000D03*
X53550000Y-130500000D03*
X60150000Y-128450000D03*
X54550000Y-131950000D03*
X49700000Y-103900000D03*
X45200000Y-108600000D03*
X40300000Y-113250000D03*
X51900000Y-156500000D03*
D32*
X35900000Y-113700000D02*
X34300000Y-115300000D01*
X54500000Y-104400000D02*
X51710000Y-107190000D01*
X71600000Y-104400000D02*
X54500000Y-104400000D01*
X74000000Y-102000000D02*
X71600000Y-104400000D01*
X42300000Y-109700000D02*
X38000000Y-109700000D01*
X51710000Y-107190000D02*
X44810000Y-107190000D01*
X34300000Y-115300000D02*
X33000000Y-115300000D01*
X38000000Y-109700000D02*
X35900000Y-111800000D01*
X44810000Y-107190000D02*
X42300000Y-109700000D01*
X35900000Y-111800000D02*
X35900000Y-113700000D01*
D33*
X46500000Y-159650000D02*
X40400000Y-159650000D01*
X51300000Y-160750000D02*
X50900000Y-160750000D01*
X50900000Y-160750000D02*
X49100000Y-158950000D01*
X47200000Y-158950000D02*
X46500000Y-159650000D01*
X49100000Y-158950000D02*
X47200000Y-158950000D01*
D34*
X55540000Y-165690000D02*
X52200000Y-162350000D01*
X39400000Y-160050000D02*
X39400000Y-157100000D01*
X55540000Y-167850000D02*
X55540000Y-165690000D01*
X41700000Y-162350000D02*
X39400000Y-160050000D01*
X52200000Y-162350000D02*
X41700000Y-162350000D01*
X44950000Y-155800000D02*
X46150000Y-154600000D01*
X43900000Y-157400000D02*
X44950000Y-158450000D01*
X44950000Y-158450000D02*
X44950000Y-155800000D01*
X43900000Y-157150000D02*
X43900000Y-157400000D01*
X41850000Y-159100000D02*
X46050000Y-159100000D01*
X40750000Y-157350000D02*
X40750000Y-158000000D01*
X40750000Y-158000000D02*
X41850000Y-159100000D01*
X46200000Y-158950000D02*
X46200000Y-157550000D01*
X46050000Y-159100000D02*
X46200000Y-158950000D01*
X49800000Y-157750000D02*
X51960000Y-159910000D01*
X51960000Y-159910000D02*
X53900000Y-159910000D01*
X83450000Y-146750000D02*
X83150000Y-147050000D01*
X83150000Y-155150000D02*
X89000000Y-161000000D01*
X83150000Y-147050000D02*
X83150000Y-155150000D01*
X83850000Y-146750000D02*
X83450000Y-146750000D01*
X81380000Y-161000000D02*
X81380000Y-166000000D01*
D35*
X87050000Y-126150000D02*
X89190000Y-124010000D01*
D32*
X64000000Y-111000000D02*
X60000000Y-107000000D01*
X41450000Y-125350000D02*
X45000000Y-121800000D01*
X57000000Y-120990000D02*
X55710000Y-119700000D01*
X45400000Y-122200000D02*
X45000000Y-121800000D01*
X91700000Y-120110000D02*
X89190000Y-122620000D01*
D35*
X89900000Y-110400000D02*
X89900000Y-112300000D01*
D32*
X64000000Y-111000000D02*
X61600000Y-111000000D01*
X91700000Y-114100000D02*
X91700000Y-120110000D01*
X75000000Y-112500000D02*
X90100000Y-112500000D01*
X64000000Y-111000000D02*
X64000000Y-108400000D01*
X39000000Y-125350000D02*
X41450000Y-125350000D01*
D35*
X78500000Y-126300000D02*
X79600000Y-125200000D01*
D32*
X61600000Y-118400000D02*
X57000000Y-123000000D01*
X57000000Y-120990000D02*
X55790000Y-122200000D01*
D35*
X89190000Y-124010000D02*
X89190000Y-122620000D01*
X78300000Y-126300000D02*
X78500000Y-126300000D01*
D32*
X57000000Y-123000000D02*
X57000000Y-120990000D01*
D35*
X78700000Y-127700000D02*
X80250000Y-126150000D01*
X80250000Y-126150000D02*
X87050000Y-126150000D01*
D32*
X64000000Y-108400000D02*
X64100000Y-108300000D01*
X64100000Y-108300000D02*
X70800000Y-108300000D01*
D35*
X86610000Y-125200000D02*
X89190000Y-122620000D01*
D32*
X70800000Y-108300000D02*
X75000000Y-112500000D01*
X60000000Y-107000000D02*
X57500000Y-107000000D01*
X55790000Y-122200000D02*
X45400000Y-122200000D01*
X90100000Y-112500000D02*
X91700000Y-114100000D01*
D35*
X77700000Y-130250000D02*
X78700000Y-129250000D01*
D32*
X61600000Y-111000000D02*
X61600000Y-118400000D01*
D35*
X79600000Y-125200000D02*
X86610000Y-125200000D01*
X78700000Y-129250000D02*
X78700000Y-127700000D01*
X89900000Y-112300000D02*
X90100000Y-112500000D01*
D34*
X88500000Y-107350000D02*
X88500000Y-106300000D01*
X88500000Y-106300000D02*
X86250000Y-104050000D01*
X86250000Y-104050000D02*
X78970000Y-104050000D01*
X78970000Y-104050000D02*
X77920000Y-103000000D01*
X90350000Y-109200000D02*
X88500000Y-107350000D01*
X90350000Y-109500000D02*
X90350000Y-109200000D01*
X89850000Y-107350000D02*
X89850000Y-104770000D01*
X89850000Y-104770000D02*
X88080000Y-103000000D01*
X81000000Y-110550000D02*
X79550000Y-110550000D01*
X79550000Y-110550000D02*
X78000000Y-109000000D01*
X82650000Y-108900000D02*
X81000000Y-110550000D01*
X83150000Y-140700000D02*
X82150000Y-141700000D01*
X89600000Y-142850000D02*
X88500000Y-141750000D01*
X84750000Y-141750000D02*
X83700000Y-140700000D01*
X89600000Y-143300000D02*
X89600000Y-142850000D01*
X88500000Y-141750000D02*
X84750000Y-141750000D01*
X83700000Y-140700000D02*
X83150000Y-140700000D01*
D35*
X75350000Y-132900000D02*
X80650000Y-132900000D01*
X82300000Y-131250000D02*
X82300000Y-130800000D01*
X71400000Y-136850000D02*
X75350000Y-132900000D01*
X60600000Y-150200000D02*
X62950000Y-147850000D01*
X71400000Y-143650000D02*
X71400000Y-136850000D01*
X80650000Y-132900000D02*
X82300000Y-131250000D01*
X82300000Y-130800000D02*
X80000000Y-128500000D01*
X62950000Y-147850000D02*
X67200000Y-147850000D01*
X55000000Y-150200000D02*
X60600000Y-150200000D01*
X67200000Y-147850000D02*
X71400000Y-143650000D01*
D34*
X80350000Y-157300000D02*
X81500000Y-156150000D01*
X81500000Y-156150000D02*
X81700000Y-156150000D01*
X43500000Y-147150000D02*
X44000000Y-147150000D01*
X77000000Y-154900000D02*
X79400000Y-157300000D01*
X72650000Y-155400000D02*
X73150000Y-154900000D01*
X79400000Y-157300000D02*
X80350000Y-157300000D01*
X73150000Y-154900000D02*
X77000000Y-154900000D01*
X42200000Y-148450000D02*
X43500000Y-147150000D01*
X40450000Y-145500000D02*
X40450000Y-144170000D01*
X40450000Y-144170000D02*
X38880000Y-142600000D01*
X47400000Y-135900000D02*
X50300000Y-133000000D01*
D35*
X64000000Y-128780000D02*
X59780000Y-133000000D01*
D34*
X47400000Y-139450000D02*
X47400000Y-135900000D01*
X50300000Y-133000000D02*
X53000000Y-133000000D01*
X46450000Y-140400000D02*
X47400000Y-139450000D01*
D35*
X59780000Y-133000000D02*
X53000000Y-133000000D01*
X55500000Y-125050000D02*
X52860000Y-125050000D01*
D34*
X46850000Y-135500000D02*
X51400000Y-130950000D01*
X46850000Y-139100000D02*
X46850000Y-135500000D01*
X53400000Y-125590000D02*
X52810000Y-125000000D01*
D35*
X52860000Y-125050000D02*
X52810000Y-125000000D01*
D34*
X51400000Y-130950000D02*
X52100000Y-130950000D01*
D35*
X64000000Y-126240000D02*
X56690000Y-126240000D01*
D34*
X53400000Y-129650000D02*
X53400000Y-125590000D01*
X52100000Y-130950000D02*
X53400000Y-129650000D01*
D35*
X56690000Y-126240000D02*
X55500000Y-125050000D01*
D34*
X46450000Y-139500000D02*
X46850000Y-139100000D01*
X33400000Y-147400000D02*
X32000000Y-146000000D01*
X35950000Y-147400000D02*
X33400000Y-147400000D01*
X32000000Y-146000000D02*
X32000000Y-144810000D01*
X35450000Y-148050000D02*
X35450000Y-148600000D01*
X32000000Y-152050000D02*
X32000000Y-155810000D01*
X35450000Y-148600000D02*
X32000000Y-152050000D01*
D32*
X45380000Y-133000000D02*
X45380000Y-138477538D01*
X45380000Y-138477538D02*
X42100000Y-141757538D01*
X45150000Y-145150000D02*
X47450000Y-147450000D01*
X47450000Y-147450000D02*
X47450000Y-151900000D01*
X42400000Y-145150000D02*
X45150000Y-145150000D01*
X42100000Y-144850000D02*
X42400000Y-145150000D01*
X42100000Y-141757538D02*
X42100000Y-144850000D01*
D34*
X50750000Y-134500000D02*
X50000000Y-135250000D01*
X62650000Y-133850000D02*
X61650000Y-133850000D01*
X50000000Y-135250000D02*
X50000000Y-136300000D01*
X61000000Y-134500000D02*
X50750000Y-134500000D01*
X61650000Y-133850000D02*
X61000000Y-134500000D01*
X50000000Y-136300000D02*
X48950000Y-137350000D01*
D36*
X54500000Y-146750000D02*
X55600000Y-145650000D01*
X62370000Y-145650000D02*
X64000000Y-144020000D01*
X49150000Y-146750000D02*
X54500000Y-146750000D01*
X47550000Y-145150000D02*
X49150000Y-146750000D01*
X55600000Y-145650000D02*
X62370000Y-145650000D01*
X48350000Y-140900000D02*
X63420000Y-140900000D01*
X63420000Y-140900000D02*
X64000000Y-141480000D01*
X47800000Y-140350000D02*
X48350000Y-140900000D01*
D34*
X65350000Y-119200000D02*
X65350000Y-117270000D01*
X65350000Y-117270000D02*
X66540000Y-116080000D01*
X64750000Y-119800000D02*
X65350000Y-119200000D01*
X62650000Y-119800000D02*
X64750000Y-119800000D01*
X76250000Y-123950000D02*
X73550000Y-121250000D01*
X75100000Y-127250000D02*
X75100000Y-126100000D01*
X74500000Y-127850000D02*
X75100000Y-127250000D01*
X73550000Y-118950000D02*
X75500000Y-117000000D01*
X73550000Y-121250000D02*
X73550000Y-118950000D01*
X75500000Y-117000000D02*
X76000000Y-117000000D01*
X76250000Y-124950000D02*
X76250000Y-123950000D01*
X75100000Y-126100000D02*
X76250000Y-124950000D01*
X66540000Y-121160000D02*
X71560000Y-121160000D01*
X71560000Y-121160000D02*
X75050000Y-124650000D01*
X70450000Y-136650000D02*
X70450000Y-138550000D01*
X76500000Y-127050000D02*
X76500000Y-130600000D01*
X76100000Y-126650000D02*
X76500000Y-127050000D01*
X70450000Y-138550000D02*
X67520000Y-141480000D01*
X67520000Y-141480000D02*
X66540000Y-141480000D01*
X76500000Y-130600000D02*
X70450000Y-136650000D01*
X46850000Y-126800000D02*
X46850000Y-128950000D01*
X51550000Y-126150000D02*
X47500000Y-126150000D01*
X47500000Y-126150000D02*
X46850000Y-126800000D01*
X73050000Y-125700000D02*
X69300000Y-121950000D01*
X69300000Y-121950000D02*
X69050000Y-121950000D01*
X83000000Y-142350000D02*
X84350000Y-142350000D01*
X84350000Y-142350000D02*
X85750000Y-143750000D01*
X88300000Y-146200000D02*
X93800000Y-146200000D01*
X93800000Y-146200000D02*
X97000000Y-143000000D01*
X85750000Y-143750000D02*
X85850000Y-143750000D01*
X85850000Y-143750000D02*
X88300000Y-146200000D01*
X89750000Y-146650000D02*
X92900000Y-149800000D01*
X85100000Y-146650000D02*
X89750000Y-146650000D01*
X83400000Y-144950000D02*
X85100000Y-146650000D01*
X92900000Y-149800000D02*
X97100000Y-149800000D01*
X89650000Y-150030000D02*
X90000000Y-150380000D01*
X70450000Y-132700000D02*
X70450000Y-131650000D01*
X71700000Y-125550000D02*
X69150000Y-123000000D01*
X70450000Y-131650000D02*
X71700000Y-130400000D01*
X89650000Y-147350000D02*
X89650000Y-150030000D01*
X71700000Y-130400000D02*
X71700000Y-125550000D01*
X69150000Y-123000000D02*
X68600000Y-123000000D01*
X86350000Y-140350000D02*
X86350000Y-139200000D01*
X85650000Y-141050000D02*
X86350000Y-140350000D01*
X86350000Y-139200000D02*
X85750000Y-138600000D01*
X85750000Y-138600000D02*
X81600000Y-138600000D01*
X81600000Y-138600000D02*
X80000000Y-137000000D01*
X76000000Y-151500000D02*
X75500000Y-152000000D01*
X82100000Y-151500000D02*
X76000000Y-151500000D01*
X90300000Y-137700000D02*
X89200000Y-136600000D01*
X91400000Y-144750000D02*
X90300000Y-143650000D01*
X92600000Y-144750000D02*
X91400000Y-144750000D01*
X92675000Y-144825000D02*
X92600000Y-144750000D01*
X90300000Y-143650000D02*
X90300000Y-137700000D01*
D35*
X92550000Y-143800000D02*
X93950000Y-143800000D01*
X94500000Y-141850000D02*
X94500000Y-137000000D01*
X96050000Y-141700000D02*
X98600000Y-141700000D01*
X93950000Y-143800000D02*
X96050000Y-141700000D01*
X92550000Y-143800000D02*
X94500000Y-141850000D01*
D34*
X65400000Y-137650000D02*
X61300000Y-137650000D01*
X61300000Y-137650000D02*
X59450000Y-135800000D01*
X58400000Y-131950000D02*
X54550000Y-131950000D01*
X59350000Y-129250000D02*
X59350000Y-131000000D01*
X60150000Y-128450000D02*
X59350000Y-129250000D01*
X59350000Y-131000000D02*
X58400000Y-131950000D01*
X49000000Y-109190000D02*
X46860000Y-109190000D01*
X42800000Y-113250000D02*
X40300000Y-113250000D01*
X46860000Y-109190000D02*
X42800000Y-113250000D01*
X63790000Y-159050000D02*
X64000000Y-159260000D01*
D33*
X58610000Y-159260000D02*
X64000000Y-159260000D01*
X51900000Y-156500000D02*
X55850000Y-156500000D01*
X55850000Y-156500000D02*
X58610000Y-159260000D01*
M02*
