G04 #@! TF.GenerationSoftware,KiCad,Pcbnew,10.0.0*
G04 #@! TF.CreationDate,2026-04-24T12:36:54+02:00*
G04 #@! TF.ProjectId,power_board,706f7765-725f-4626-9f61-72642e6b6963,rev?*
G04 #@! TF.SameCoordinates,Original*
G04 #@! TF.FileFunction,Soldermask,Top*
G04 #@! TF.FilePolarity,Negative*
%FSLAX46Y46*%
G04 Gerber Fmt 4.6, Leading zero omitted, Abs format (unit mm)*
G04 Created by KiCad (PCBNEW 10.0.0) date 2026-04-24 12:36:54*
%MOMM*%
%LPD*%
G01*
G04 APERTURE LIST*
G04 Aperture macros list*
%AMRoundRect*
0 Rectangle with rounded corners*
0 $1 Rounding radius*
0 $2 $3 $4 $5 $6 $7 $8 $9 X,Y pos of 4 corners*
0 Add a 4 corners polygon primitive as box body*
4,1,4,$2,$3,$4,$5,$6,$7,$8,$9,$2,$3,0*
0 Add four circle primitives for the rounded corners*
1,1,$1+$1,$2,$3*
1,1,$1+$1,$4,$5*
1,1,$1+$1,$6,$7*
1,1,$1+$1,$8,$9*
0 Add four rect primitives between the rounded corners*
20,1,$1+$1,$2,$3,$4,$5,0*
20,1,$1+$1,$4,$5,$6,$7,0*
20,1,$1+$1,$6,$7,$8,$9,0*
20,1,$1+$1,$8,$9,$2,$3,0*%
G04 Aperture macros list end*
%ADD10C,1.600000*%
%ADD11R,1.475000X0.450000*%
%ADD12R,2.460000X2.310000*%
%ADD13RoundRect,0.250000X-0.550000X-0.550000X0.550000X-0.550000X0.550000X0.550000X-0.550000X0.550000X0*%
%ADD14R,0.650000X0.900000*%
%ADD15R,0.350000X0.900000*%
%ADD16C,2.010000*%
%ADD17R,0.600000X0.240000*%
%ADD18R,1.650000X2.400000*%
%ADD19R,0.250000X0.500000*%
%ADD20RoundRect,0.249999X-0.850001X-0.850001X0.850001X-0.850001X0.850001X0.850001X-0.850001X0.850001X0*%
%ADD21C,2.200000*%
%ADD22RoundRect,0.062500X0.350000X0.062500X-0.350000X0.062500X-0.350000X-0.062500X0.350000X-0.062500X0*%
%ADD23RoundRect,0.062500X0.062500X0.350000X-0.062500X0.350000X-0.062500X-0.350000X0.062500X-0.350000X0*%
%ADD24R,2.500000X2.500000*%
%ADD25RoundRect,0.250000X-0.550000X0.550000X-0.550000X-0.550000X0.550000X-0.550000X0.550000X0.550000X0*%
%ADD26R,1.700000X1.700000*%
%ADD27C,1.700000*%
%ADD28R,0.600000X0.300000*%
%ADD29R,0.300000X0.600000*%
%ADD30R,2.350000X1.550000*%
%ADD31RoundRect,0.250000X1.050000X1.050000X-1.050000X1.050000X-1.050000X-1.050000X1.050000X-1.050000X0*%
%ADD32C,2.600000*%
%ADD33R,0.240000X0.600000*%
%ADD34R,2.050000X3.050000*%
%ADD35R,1.000000X0.700000*%
%ADD36R,1.530000X1.530000*%
%ADD37C,1.530000*%
%ADD38RoundRect,0.250000X-0.625000X0.350000X-0.625000X-0.350000X0.625000X-0.350000X0.625000X0.350000X0*%
%ADD39O,1.750000X1.200000*%
%ADD40C,0.800000*%
%ADD41C,6.400000*%
%ADD42R,2.520000X2.520000*%
%ADD43C,2.520000*%
%ADD44R,0.800000X0.300000*%
%ADD45R,0.300000X0.800000*%
%ADD46R,1.750000X1.750000*%
%ADD47R,0.750000X0.300000*%
%ADD48R,0.900000X1.300000*%
%ADD49RoundRect,0.250000X0.550000X0.550000X-0.550000X0.550000X-0.550000X-0.550000X0.550000X-0.550000X0*%
%ADD50RoundRect,0.102000X-0.600000X-0.300000X0.600000X-0.300000X0.600000X0.300000X-0.600000X0.300000X0*%
%ADD51R,1.300000X0.600000*%
%ADD52RoundRect,0.250000X0.550000X-0.550000X0.550000X0.550000X-0.550000X0.550000X-0.550000X-0.550000X0*%
G04 APERTURE END LIST*
D10*
X36500000Y-107000000D03*
X39000000Y-107000000D03*
D11*
X38424000Y-114700000D03*
X38424000Y-115350000D03*
X38424000Y-116000000D03*
X38424000Y-116650000D03*
X38424000Y-117300000D03*
X38424000Y-117950000D03*
X38424000Y-118600000D03*
X38424000Y-119250000D03*
X44300000Y-119250000D03*
X44300000Y-118600000D03*
X44300000Y-117950000D03*
X44300000Y-117300000D03*
X44300000Y-116650000D03*
X44300000Y-116000000D03*
X44300000Y-115350000D03*
X44300000Y-114700000D03*
D12*
X41362000Y-116975000D03*
D13*
X95500000Y-132000000D03*
D10*
X98000000Y-132000000D03*
D13*
X54000000Y-143000000D03*
D10*
X56500000Y-143000000D03*
D14*
X40950000Y-163025000D03*
X41750000Y-163025000D03*
D15*
X42900000Y-163025000D03*
X43900000Y-163025000D03*
X44400000Y-163025000D03*
X45400000Y-163025000D03*
D14*
X46550000Y-163025000D03*
X47350000Y-163025000D03*
D15*
X45900000Y-163025000D03*
X44900000Y-163025000D03*
X43400000Y-163025000D03*
X42400000Y-163025000D03*
D16*
X38530000Y-163975000D03*
X49770000Y-163975000D03*
X38530000Y-166875000D03*
X49770000Y-166875000D03*
D10*
X89000000Y-161000000D03*
X81380000Y-161000000D03*
D17*
X87800000Y-109550000D03*
X87800000Y-109050000D03*
X87800000Y-108550000D03*
X87800000Y-108050000D03*
X87800000Y-107550000D03*
X85000000Y-107550000D03*
X85000000Y-108050000D03*
X85000000Y-108550000D03*
X85000000Y-109050000D03*
X85000000Y-109550000D03*
D18*
X86400000Y-108550000D03*
D19*
X86650000Y-107100000D03*
X86150000Y-107100000D03*
X86650000Y-110000000D03*
X86150000Y-110000000D03*
D20*
X81380000Y-166000000D03*
D21*
X89000000Y-166000000D03*
D10*
X89190000Y-115000000D03*
X89190000Y-122620000D03*
D22*
X40937500Y-149375000D03*
X40937500Y-148875000D03*
X40937500Y-148375000D03*
X40937500Y-147875000D03*
X40937500Y-147375000D03*
D23*
X40000000Y-146437500D03*
X39500000Y-146437500D03*
X39000000Y-146437500D03*
X38500000Y-146437500D03*
X38000000Y-146437500D03*
D22*
X37062500Y-147375000D03*
X37062500Y-147875000D03*
X37062500Y-148375000D03*
X37062500Y-148875000D03*
X37062500Y-149375000D03*
D23*
X38000000Y-150312500D03*
X38500000Y-150312500D03*
X39000000Y-150312500D03*
X39500000Y-150312500D03*
X40000000Y-150312500D03*
D24*
X39000000Y-148375000D03*
D10*
X55000000Y-113000000D03*
X57500000Y-113000000D03*
X55710000Y-119700000D03*
X48090000Y-119700000D03*
X59500000Y-102000000D03*
X62000000Y-102000000D03*
X44380000Y-149000000D03*
X52000000Y-149000000D03*
D25*
X80000000Y-128500000D03*
D10*
X80000000Y-131000000D03*
X39190000Y-112000000D03*
X46810000Y-112000000D03*
D26*
X50000000Y-145175000D03*
D27*
X50000000Y-142635000D03*
D10*
X32000000Y-144810000D03*
X32000000Y-137190000D03*
X55000000Y-107000000D03*
X57500000Y-107000000D03*
X81500000Y-115140000D03*
X81500000Y-122760000D03*
D28*
X73350000Y-127150000D03*
X73350000Y-127650000D03*
X73350000Y-128150000D03*
X73350000Y-128650000D03*
D29*
X74000000Y-128800000D03*
X74500000Y-128800000D03*
X75000000Y-128800000D03*
D28*
X75650000Y-128650000D03*
X75650000Y-128150000D03*
X75650000Y-127650000D03*
X75650000Y-127150000D03*
D29*
X75000000Y-127000000D03*
X74500000Y-127000000D03*
X74000000Y-127000000D03*
D10*
X38920000Y-102000000D03*
X49080000Y-102000000D03*
D30*
X93700000Y-161000000D03*
X98000000Y-161000000D03*
D31*
X42200000Y-137500000D03*
D32*
X37400000Y-137500000D03*
D10*
X55540000Y-167850000D03*
X63160000Y-167850000D03*
D33*
X86500000Y-143600000D03*
D17*
X85600000Y-144000000D03*
X85600000Y-144500000D03*
X85600000Y-145000000D03*
X85600000Y-145500000D03*
X85600000Y-146000000D03*
X85600000Y-146500000D03*
X85600000Y-147000000D03*
X85600000Y-147500000D03*
D33*
X86500000Y-147900000D03*
X88000000Y-147900000D03*
D17*
X88900000Y-147500000D03*
X88900000Y-147000000D03*
X88900000Y-146500000D03*
X88900000Y-146000000D03*
X88900000Y-145500000D03*
X88900000Y-145000000D03*
X88900000Y-144500000D03*
X88900000Y-144000000D03*
D33*
X88000000Y-143600000D03*
D34*
X87250000Y-145750000D03*
D13*
X55000000Y-137000000D03*
D10*
X57500000Y-137000000D03*
X57000000Y-123000000D03*
X57000000Y-130620000D03*
X53000000Y-133000000D03*
X45380000Y-133000000D03*
X94000000Y-127000000D03*
X96500000Y-127000000D03*
X74000000Y-102000000D03*
X66380000Y-102000000D03*
X39000000Y-127850000D03*
X39000000Y-125350000D03*
D35*
X79800000Y-153050000D03*
X79800000Y-154950000D03*
X82200000Y-154000000D03*
D30*
X73850000Y-159000000D03*
X78150000Y-159000000D03*
D10*
X85000000Y-115150000D03*
X85000000Y-122770000D03*
D13*
X74000000Y-144000000D03*
D10*
X76500000Y-144000000D03*
D28*
X48000000Y-127500000D03*
X48000000Y-128000000D03*
X48000000Y-128500000D03*
X48000000Y-129000000D03*
X48000000Y-129500000D03*
D29*
X48700000Y-129700000D03*
X49200000Y-129700000D03*
X49700000Y-129700000D03*
D28*
X50400000Y-129500000D03*
X50400000Y-129000000D03*
X50400000Y-128500000D03*
X50400000Y-128000000D03*
X50400000Y-127500000D03*
D29*
X49700000Y-127300000D03*
X49200000Y-127300000D03*
X48700000Y-127300000D03*
D10*
X37190000Y-154000000D03*
X44810000Y-154000000D03*
D13*
X85000000Y-154000000D03*
D10*
X87500000Y-154000000D03*
D13*
X92000000Y-154000000D03*
D10*
X94500000Y-154000000D03*
D36*
X64000000Y-111000000D03*
D37*
X66540000Y-111000000D03*
X64000000Y-113540000D03*
X66540000Y-113540000D03*
X64000000Y-116080000D03*
X66540000Y-116080000D03*
X64000000Y-118620000D03*
X66540000Y-118620000D03*
X64000000Y-121160000D03*
X66540000Y-121160000D03*
X64000000Y-123700000D03*
X66540000Y-123700000D03*
X64000000Y-126240000D03*
X66540000Y-126240000D03*
X64000000Y-128780000D03*
X66540000Y-128780000D03*
X64000000Y-131320000D03*
X66540000Y-131320000D03*
X64000000Y-133860000D03*
X66540000Y-133860000D03*
X64000000Y-136400000D03*
X66540000Y-136400000D03*
X64000000Y-138940000D03*
X66540000Y-138940000D03*
X64000000Y-141480000D03*
X66540000Y-141480000D03*
X64000000Y-144020000D03*
X66540000Y-144020000D03*
X64000000Y-146560000D03*
X66540000Y-146560000D03*
X64000000Y-149100000D03*
X66540000Y-149100000D03*
X64000000Y-151640000D03*
X66540000Y-151640000D03*
X64000000Y-154180000D03*
X66540000Y-154180000D03*
X64000000Y-156720000D03*
X66540000Y-156720000D03*
X64000000Y-159260000D03*
X66540000Y-159260000D03*
D38*
X76000000Y-117000000D03*
D39*
X76000000Y-119000000D03*
X76000000Y-121000000D03*
D10*
X51000000Y-112620000D03*
X51000000Y-105000000D03*
D40*
X94600000Y-167700000D03*
X95302944Y-166002944D03*
X95302944Y-169397056D03*
X97000000Y-165300000D03*
D41*
X97000000Y-167700000D03*
D40*
X97000000Y-170100000D03*
X98697056Y-166002944D03*
X98697056Y-169397056D03*
X99400000Y-167700000D03*
D13*
X73000000Y-152000000D03*
D10*
X75500000Y-152000000D03*
X34690000Y-157200000D03*
X42310000Y-157200000D03*
X32000000Y-155810000D03*
X32000000Y-148190000D03*
X78000000Y-109000000D03*
X80500000Y-109000000D03*
X56000000Y-102000000D03*
X53500000Y-102000000D03*
X53900000Y-159910000D03*
X53900000Y-152290000D03*
D42*
X96000000Y-111300000D03*
D43*
X96000000Y-116000000D03*
X96000000Y-120700000D03*
D44*
X41750000Y-106250000D03*
X41750000Y-106750000D03*
X41750000Y-107250000D03*
X41750000Y-107750000D03*
D45*
X42500000Y-108500000D03*
X43000000Y-108500000D03*
X43500000Y-108500000D03*
X44000000Y-108500000D03*
D44*
X44750000Y-107750000D03*
X44750000Y-107250000D03*
X44750000Y-106750000D03*
X44750000Y-106250000D03*
D45*
X44000000Y-105500000D03*
X43500000Y-105500000D03*
X43000000Y-105500000D03*
X42500000Y-105500000D03*
D46*
X43250000Y-107000000D03*
D40*
X30000000Y-103000000D03*
X30702944Y-101302944D03*
X30702944Y-104697056D03*
X32400000Y-100600000D03*
D41*
X32400000Y-103000000D03*
D40*
X32400000Y-105400000D03*
X34097056Y-101302944D03*
X34097056Y-104697056D03*
X34800000Y-103000000D03*
D10*
X34100000Y-127660000D03*
X34100000Y-117500000D03*
X77920000Y-103000000D03*
X88080000Y-103000000D03*
D40*
X94300000Y-103500000D03*
X95002944Y-101802944D03*
X95002944Y-105197056D03*
X96700000Y-101100000D03*
D41*
X96700000Y-103500000D03*
D40*
X96700000Y-105900000D03*
X98397056Y-101802944D03*
X98397056Y-105197056D03*
X99100000Y-103500000D03*
D47*
X52000000Y-137750000D03*
X52000000Y-137250000D03*
X52000000Y-136750000D03*
X52000000Y-136250000D03*
X50000000Y-136250000D03*
X50000000Y-136750000D03*
X50000000Y-137250000D03*
X50000000Y-137750000D03*
D48*
X51000000Y-137000000D03*
D20*
X38880000Y-142600000D03*
D21*
X46500000Y-142600000D03*
D10*
X57000000Y-154810000D03*
X57000000Y-147190000D03*
D49*
X94500000Y-137000000D03*
D10*
X92000000Y-137000000D03*
D49*
X82500000Y-137000000D03*
D10*
X80000000Y-137000000D03*
D40*
X30200000Y-167700000D03*
X30902944Y-166002944D03*
X30902944Y-169397056D03*
X32600000Y-165300000D03*
D41*
X32600000Y-167700000D03*
D40*
X32600000Y-170100000D03*
X34297056Y-166002944D03*
X34297056Y-169397056D03*
X35000000Y-167700000D03*
D26*
X88000000Y-127460000D03*
D27*
X88000000Y-130000000D03*
D10*
X45000000Y-121800000D03*
X37380000Y-121800000D03*
D50*
X47750000Y-154550000D03*
X47750000Y-155500000D03*
X47750000Y-156450000D03*
X50250000Y-156450000D03*
X50250000Y-155500000D03*
X50250000Y-154550000D03*
D10*
X32000000Y-130500000D03*
X32000000Y-133000000D03*
X30400000Y-107590000D03*
X30400000Y-115210000D03*
X52810000Y-125000000D03*
X45190000Y-125000000D03*
X35180000Y-132700000D03*
X42800000Y-132700000D03*
D51*
X73900000Y-163050000D03*
X73900000Y-164950000D03*
X76000000Y-164000000D03*
D52*
X97100000Y-149800000D03*
D10*
X97100000Y-147300000D03*
D49*
X82000000Y-147000000D03*
D10*
X79500000Y-147000000D03*
X90000000Y-158000000D03*
X90000000Y-150380000D03*
X92000000Y-132000000D03*
X84380000Y-132000000D03*
X92700000Y-140300000D03*
X92700000Y-147920000D03*
D52*
X97000000Y-143000000D03*
D10*
X97000000Y-140500000D03*
X84810000Y-140000000D03*
X77190000Y-140000000D03*
D49*
X89200000Y-136600000D03*
D10*
X86700000Y-136600000D03*
X49000000Y-116810000D03*
X49000000Y-109190000D03*
D49*
X76905113Y-135750000D03*
D10*
X74405113Y-135750000D03*
M02*
