M48
; DRILL file KiCad 10.0.0 date 2026-04-24T12:34:11
; FORMAT={-:-/ absolute / metric / decimal}
; #@! TF.CreationDate,2026-04-24T12:34:11+02:00
; #@! TF.GenerationSoftware,Kicad,Pcbnew,10.0.0
; #@! TF.FileFunction,Plated,1,4,PTH
FMAT,2
METRIC
; #@! TA.AperFunction,Plated,PTH,ViaDrill
T1C0.300
; #@! TA.AperFunction,Plated,PTH,ViaDrill
T2C0.450
; #@! TA.AperFunction,Plated,PTH,ComponentDrill
T3C0.500
; #@! TA.AperFunction,Plated,PTH,ComponentDrill
T4C0.750
; #@! TA.AperFunction,Plated,PTH,ComponentDrill
T5C0.800
; #@! TA.AperFunction,Plated,PTH,ComponentDrill
T6C1.000
; #@! TA.AperFunction,Plated,PTH,ComponentDrill
T7C1.020
; #@! TA.AperFunction,Plated,PTH,ComponentDrill
T8C1.100
; #@! TA.AperFunction,Plated,PTH,ComponentDrill
T9C1.340
; #@! TA.AperFunction,Plated,PTH,ComponentDrill
T10C1.600
; #@! TA.AperFunction,Plated,PTH,ComponentDrill
T11C1.680
; #@! TA.AperFunction,Plated,PTH,ComponentDrill
T12C3.200
%
G90
G05
T1
X35.45Y-148.05
X35.95Y-147.4
X38.35Y-152.5
X39.4Y-157.1
X40.25Y-156.05
X40.3Y-113.25
X40.45Y-145.5
X40.75Y-157.35
X42.2Y-148.45
X42.35Y-149.45
X44.0Y-147.15
X45.2Y-108.6
X46.45Y-139.5
X46.45Y-140.4
X46.85Y-128.95
X48.45Y-136.75
X48.7Y-131.1
X48.95Y-137.35
X49.25Y-138.0
X49.7Y-103.9
X49.8Y-157.75
X50.15Y-131.05
X50.25Y-147.9
X51.0Y-138.15
X51.55Y-126.15
X51.9Y-156.5
X52.2Y-119.8
X53.1Y-135.9
X53.25Y-138.2
X53.55Y-130.5
X54.55Y-131.95
X56.25Y-124.45
X59.45Y-135.8
X60.15Y-128.45
X61.65Y-125.4
X62.65Y-119.8
X62.65Y-133.85
X65.15Y-135.05
X65.4Y-137.65
X68.6Y-123.0
X69.05Y-121.95
X70.175Y-129.075
X70.3Y-125.75
X70.35Y-126.75
X70.45Y-132.7
X72.65Y-155.4
X73.05Y-125.7
X73.15Y-124.25
X75.05Y-124.65
X75.9Y-162.95
X76.1Y-126.65
X81.7Y-156.15
X82.1Y-151.5
X82.15Y-141.7
X82.65Y-108.9
X83.0Y-142.35
X83.4Y-144.95
X83.55Y-106.8
X83.85Y-146.75
X83.85Y-147.7
X85.15Y-151.0
X85.65Y-141.05
X86.95Y-150.05
X89.6Y-143.3
X89.65Y-147.35
X89.85Y-107.35
X90.35Y-109.5
X90.75Y-145.6
X92.3Y-145.45
X92.675Y-144.825
X94.6Y-146.7
X98.6Y-141.7
T2
X33.0Y-115.3
X34.05Y-146.1
X35.9Y-146.25
X36.25Y-119.3
X36.4Y-116.6
X38.15Y-145.1
X38.75Y-159.9
X39.0Y-148.3
X40.4Y-159.65
X41.35Y-115.2
X41.35Y-118.85
X41.95Y-150.2
X42.1Y-151.9
X42.5Y-104.45
X42.95Y-106.7
X43.9Y-157.15
X43.95Y-156.05
X44.4Y-103.3
X44.45Y-109.9
X44.95Y-158.45
X46.15Y-154.6
X46.2Y-157.55
X46.45Y-118.55
X46.9Y-130.6
X47.45Y-151.9
X47.55Y-145.15
X47.8Y-140.35
X47.8Y-159.95
X48.85Y-125.4
X51.0Y-135.25
X51.3Y-160.75
X51.8Y-127.3
X52.1Y-129.0
X55.0Y-150.2
X74.5Y-127.85
X75.0Y-129.95
X75.4Y-156.4
X77.7Y-130.25
X78.3Y-126.3
X78.5Y-164.2
X79.8Y-156.0
X83.55Y-141.55
X84.15Y-143.15
X85.35Y-106.7
X86.35Y-110.9
X86.5Y-148.8
X87.55Y-106.75
X88.0Y-148.8
X88.05Y-142.6
X89.9Y-110.4
X91.05Y-108.55
X91.9Y-106.6
X92.55Y-143.8
T3
X30.0Y-103.0
X30.2Y-167.7
X30.703Y-101.303
X30.703Y-104.697
X30.903Y-166.003
X30.903Y-169.397
X32.4Y-100.6
X32.4Y-105.4
X32.6Y-165.3
X32.6Y-170.1
X34.097Y-101.303
X34.097Y-104.697
X34.297Y-166.003
X34.297Y-169.397
X34.8Y-103.0
X35.0Y-167.7
X94.3Y-103.5
X94.6Y-167.7
X95.003Y-101.803
X95.003Y-105.197
X95.303Y-166.003
X95.303Y-169.397
X96.7Y-101.1
X96.7Y-105.9
X97.0Y-165.3
X97.0Y-170.1
X98.397Y-101.803
X98.397Y-105.197
X98.697Y-166.003
X98.697Y-169.397
X99.1Y-103.5
X99.4Y-167.7
T4
X76.0Y-117.0
X76.0Y-119.0
X76.0Y-121.0
T5
X30.4Y-107.59
X30.4Y-115.21
X32.0Y-130.5
X32.0Y-133.0
X32.0Y-137.19
X32.0Y-144.81
X32.0Y-148.19
X32.0Y-155.81
X34.1Y-117.5
X34.1Y-127.66
X34.69Y-157.2
X35.18Y-132.7
X36.5Y-107.0
X37.19Y-154.0
X37.38Y-121.8
X38.92Y-102.0
X39.0Y-107.0
X39.0Y-125.35
X39.0Y-127.85
X39.19Y-112.0
X42.31Y-157.2
X42.8Y-132.7
X44.38Y-149.0
X44.81Y-154.0
X45.0Y-121.8
X45.19Y-125.0
X45.38Y-133.0
X46.81Y-112.0
X48.09Y-119.7
X49.0Y-109.19
X49.0Y-116.81
X49.08Y-102.0
X51.0Y-105.0
X51.0Y-112.62
X52.0Y-149.0
X52.81Y-125.0
X53.0Y-133.0
X53.5Y-102.0
X53.9Y-152.29
X53.9Y-159.91
X54.0Y-143.0
X55.0Y-107.0
X55.0Y-113.0
X55.0Y-137.0
X55.54Y-167.85
X55.71Y-119.7
X56.0Y-102.0
X56.5Y-143.0
X57.0Y-123.0
X57.0Y-130.62
X57.0Y-147.19
X57.0Y-154.81
X57.5Y-107.0
X57.5Y-113.0
X57.5Y-137.0
X59.5Y-102.0
X62.0Y-102.0
X63.16Y-167.85
X66.38Y-102.0
X73.0Y-152.0
X74.0Y-102.0
X74.0Y-144.0
X74.405Y-135.75
X75.5Y-152.0
X76.5Y-144.0
X76.905Y-135.75
X77.19Y-140.0
X77.92Y-103.0
X78.0Y-109.0
X79.5Y-147.0
X80.0Y-128.5
X80.0Y-131.0
X80.0Y-137.0
X80.5Y-109.0
X81.38Y-161.0
X81.5Y-115.14
X81.5Y-122.76
X82.0Y-147.0
X82.5Y-137.0
X84.38Y-132.0
X84.81Y-140.0
X85.0Y-115.15
X85.0Y-122.77
X85.0Y-154.0
X86.7Y-136.6
X87.5Y-154.0
X88.08Y-103.0
X89.0Y-161.0
X89.19Y-115.0
X89.19Y-122.62
X89.2Y-136.6
X90.0Y-150.38
X90.0Y-158.0
X92.0Y-132.0
X92.0Y-137.0
X92.0Y-154.0
X92.7Y-140.3
X92.7Y-147.92
X94.0Y-127.0
X94.5Y-137.0
X94.5Y-154.0
X95.5Y-132.0
X96.5Y-127.0
X97.0Y-140.5
X97.0Y-143.0
X97.1Y-147.3
X97.1Y-149.8
X98.0Y-132.0
T6
X50.0Y-142.635
X50.0Y-145.175
X88.0Y-127.46
X88.0Y-130.0
T7
X64.0Y-111.0
X64.0Y-113.54
X64.0Y-116.08
X64.0Y-118.62
X64.0Y-121.16
X64.0Y-123.7
X64.0Y-126.24
X64.0Y-128.78
X64.0Y-131.32
X64.0Y-133.86
X64.0Y-136.4
X64.0Y-138.94
X64.0Y-141.48
X64.0Y-144.02
X64.0Y-146.56
X64.0Y-149.1
X64.0Y-151.64
X64.0Y-154.18
X64.0Y-156.72
X64.0Y-159.26
X66.54Y-111.0
X66.54Y-113.54
X66.54Y-116.08
X66.54Y-118.62
X66.54Y-121.16
X66.54Y-123.7
X66.54Y-126.24
X66.54Y-128.78
X66.54Y-131.32
X66.54Y-133.86
X66.54Y-136.4
X66.54Y-138.94
X66.54Y-141.48
X66.54Y-144.02
X66.54Y-146.56
X66.54Y-149.1
X66.54Y-151.64
X66.54Y-154.18
X66.54Y-156.72
X66.54Y-159.26
T8
X38.88Y-142.6
X46.5Y-142.6
X81.38Y-166.0
X89.0Y-166.0
T9
X38.53Y-163.975
X38.53Y-166.875
X49.77Y-163.975
X49.77Y-166.875
T10
X37.4Y-137.5
X42.2Y-137.5
T11
X96.0Y-111.3
X96.0Y-116.0
X96.0Y-120.7
T12
X32.4Y-103.0
X32.6Y-167.7
X96.7Y-103.5
X97.0Y-167.7
M30
