G04 #@! TF.GenerationSoftware,KiCad,Pcbnew,10.0.0*
G04 #@! TF.CreationDate,2026-04-24T12:36:54+02:00*
G04 #@! TF.ProjectId,power_board,706f7765-725f-4626-9f61-72642e6b6963,rev?*
G04 #@! TF.SameCoordinates,Original*
G04 #@! TF.FileFunction,Legend,Bot*
G04 #@! TF.FilePolarity,Positive*
%FSLAX46Y46*%
G04 Gerber Fmt 4.6, Leading zero omitted, Abs format (unit mm)*
G04 Created by KiCad (PCBNEW 10.0.0) date 2026-04-24 12:36:54*
%MOMM*%
%LPD*%
G01*
G04 APERTURE LIST*
%ADD10C,0.150000*%
%ADD11C,0.120000*%
G04 APERTURE END LIST*
D10*
X39692857Y-130804819D02*
X40026190Y-130328628D01*
X40264285Y-130804819D02*
X40264285Y-129804819D01*
X40264285Y-129804819D02*
X39883333Y-129804819D01*
X39883333Y-129804819D02*
X39788095Y-129852438D01*
X39788095Y-129852438D02*
X39740476Y-129900057D01*
X39740476Y-129900057D02*
X39692857Y-129995295D01*
X39692857Y-129995295D02*
X39692857Y-130138152D01*
X39692857Y-130138152D02*
X39740476Y-130233390D01*
X39740476Y-130233390D02*
X39788095Y-130281009D01*
X39788095Y-130281009D02*
X39883333Y-130328628D01*
X39883333Y-130328628D02*
X40264285Y-130328628D01*
X39359523Y-129804819D02*
X38740476Y-129804819D01*
X38740476Y-129804819D02*
X39073809Y-130185771D01*
X39073809Y-130185771D02*
X38930952Y-130185771D01*
X38930952Y-130185771D02*
X38835714Y-130233390D01*
X38835714Y-130233390D02*
X38788095Y-130281009D01*
X38788095Y-130281009D02*
X38740476Y-130376247D01*
X38740476Y-130376247D02*
X38740476Y-130614342D01*
X38740476Y-130614342D02*
X38788095Y-130709580D01*
X38788095Y-130709580D02*
X38835714Y-130757200D01*
X38835714Y-130757200D02*
X38930952Y-130804819D01*
X38930952Y-130804819D02*
X39216666Y-130804819D01*
X39216666Y-130804819D02*
X39311904Y-130757200D01*
X39311904Y-130757200D02*
X39359523Y-130709580D01*
X37883333Y-129804819D02*
X38073809Y-129804819D01*
X38073809Y-129804819D02*
X38169047Y-129852438D01*
X38169047Y-129852438D02*
X38216666Y-129900057D01*
X38216666Y-129900057D02*
X38311904Y-130042914D01*
X38311904Y-130042914D02*
X38359523Y-130233390D01*
X38359523Y-130233390D02*
X38359523Y-130614342D01*
X38359523Y-130614342D02*
X38311904Y-130709580D01*
X38311904Y-130709580D02*
X38264285Y-130757200D01*
X38264285Y-130757200D02*
X38169047Y-130804819D01*
X38169047Y-130804819D02*
X37978571Y-130804819D01*
X37978571Y-130804819D02*
X37883333Y-130757200D01*
X37883333Y-130757200D02*
X37835714Y-130709580D01*
X37835714Y-130709580D02*
X37788095Y-130614342D01*
X37788095Y-130614342D02*
X37788095Y-130376247D01*
X37788095Y-130376247D02*
X37835714Y-130281009D01*
X37835714Y-130281009D02*
X37883333Y-130233390D01*
X37883333Y-130233390D02*
X37978571Y-130185771D01*
X37978571Y-130185771D02*
X38169047Y-130185771D01*
X38169047Y-130185771D02*
X38264285Y-130233390D01*
X38264285Y-130233390D02*
X38311904Y-130281009D01*
X38311904Y-130281009D02*
X38359523Y-130376247D01*
X80892857Y-143509580D02*
X80940476Y-143557200D01*
X80940476Y-143557200D02*
X81083333Y-143604819D01*
X81083333Y-143604819D02*
X81178571Y-143604819D01*
X81178571Y-143604819D02*
X81321428Y-143557200D01*
X81321428Y-143557200D02*
X81416666Y-143461961D01*
X81416666Y-143461961D02*
X81464285Y-143366723D01*
X81464285Y-143366723D02*
X81511904Y-143176247D01*
X81511904Y-143176247D02*
X81511904Y-143033390D01*
X81511904Y-143033390D02*
X81464285Y-142842914D01*
X81464285Y-142842914D02*
X81416666Y-142747676D01*
X81416666Y-142747676D02*
X81321428Y-142652438D01*
X81321428Y-142652438D02*
X81178571Y-142604819D01*
X81178571Y-142604819D02*
X81083333Y-142604819D01*
X81083333Y-142604819D02*
X80940476Y-142652438D01*
X80940476Y-142652438D02*
X80892857Y-142700057D01*
X80511904Y-142700057D02*
X80464285Y-142652438D01*
X80464285Y-142652438D02*
X80369047Y-142604819D01*
X80369047Y-142604819D02*
X80130952Y-142604819D01*
X80130952Y-142604819D02*
X80035714Y-142652438D01*
X80035714Y-142652438D02*
X79988095Y-142700057D01*
X79988095Y-142700057D02*
X79940476Y-142795295D01*
X79940476Y-142795295D02*
X79940476Y-142890533D01*
X79940476Y-142890533D02*
X79988095Y-143033390D01*
X79988095Y-143033390D02*
X80559523Y-143604819D01*
X80559523Y-143604819D02*
X79940476Y-143604819D01*
X79559523Y-142700057D02*
X79511904Y-142652438D01*
X79511904Y-142652438D02*
X79416666Y-142604819D01*
X79416666Y-142604819D02*
X79178571Y-142604819D01*
X79178571Y-142604819D02*
X79083333Y-142652438D01*
X79083333Y-142652438D02*
X79035714Y-142700057D01*
X79035714Y-142700057D02*
X78988095Y-142795295D01*
X78988095Y-142795295D02*
X78988095Y-142890533D01*
X78988095Y-142890533D02*
X79035714Y-143033390D01*
X79035714Y-143033390D02*
X79607142Y-143604819D01*
X79607142Y-143604819D02*
X78988095Y-143604819D01*
X91654819Y-156064286D02*
X91654819Y-156635714D01*
X92654819Y-156350000D02*
X91654819Y-156350000D01*
X92654819Y-156969048D02*
X91654819Y-156969048D01*
X92131009Y-156969048D02*
X92131009Y-157540476D01*
X92654819Y-157540476D02*
X91654819Y-157540476D01*
X91988152Y-158445238D02*
X92654819Y-158445238D01*
X91607200Y-158207143D02*
X92321485Y-157969048D01*
X92321485Y-157969048D02*
X92321485Y-158588095D01*
X91892857Y-130204819D02*
X92226190Y-129728628D01*
X92464285Y-130204819D02*
X92464285Y-129204819D01*
X92464285Y-129204819D02*
X92083333Y-129204819D01*
X92083333Y-129204819D02*
X91988095Y-129252438D01*
X91988095Y-129252438D02*
X91940476Y-129300057D01*
X91940476Y-129300057D02*
X91892857Y-129395295D01*
X91892857Y-129395295D02*
X91892857Y-129538152D01*
X91892857Y-129538152D02*
X91940476Y-129633390D01*
X91940476Y-129633390D02*
X91988095Y-129681009D01*
X91988095Y-129681009D02*
X92083333Y-129728628D01*
X92083333Y-129728628D02*
X92464285Y-129728628D01*
X91511904Y-129300057D02*
X91464285Y-129252438D01*
X91464285Y-129252438D02*
X91369047Y-129204819D01*
X91369047Y-129204819D02*
X91130952Y-129204819D01*
X91130952Y-129204819D02*
X91035714Y-129252438D01*
X91035714Y-129252438D02*
X90988095Y-129300057D01*
X90988095Y-129300057D02*
X90940476Y-129395295D01*
X90940476Y-129395295D02*
X90940476Y-129490533D01*
X90940476Y-129490533D02*
X90988095Y-129633390D01*
X90988095Y-129633390D02*
X91559523Y-130204819D01*
X91559523Y-130204819D02*
X90940476Y-130204819D01*
X90083333Y-129538152D02*
X90083333Y-130204819D01*
X90321428Y-129157200D02*
X90559523Y-129871485D01*
X90559523Y-129871485D02*
X89940476Y-129871485D01*
X90784819Y-143467142D02*
X90308628Y-143133809D01*
X90784819Y-142895714D02*
X89784819Y-142895714D01*
X89784819Y-142895714D02*
X89784819Y-143276666D01*
X89784819Y-143276666D02*
X89832438Y-143371904D01*
X89832438Y-143371904D02*
X89880057Y-143419523D01*
X89880057Y-143419523D02*
X89975295Y-143467142D01*
X89975295Y-143467142D02*
X90118152Y-143467142D01*
X90118152Y-143467142D02*
X90213390Y-143419523D01*
X90213390Y-143419523D02*
X90261009Y-143371904D01*
X90261009Y-143371904D02*
X90308628Y-143276666D01*
X90308628Y-143276666D02*
X90308628Y-142895714D01*
X89880057Y-143848095D02*
X89832438Y-143895714D01*
X89832438Y-143895714D02*
X89784819Y-143990952D01*
X89784819Y-143990952D02*
X89784819Y-144229047D01*
X89784819Y-144229047D02*
X89832438Y-144324285D01*
X89832438Y-144324285D02*
X89880057Y-144371904D01*
X89880057Y-144371904D02*
X89975295Y-144419523D01*
X89975295Y-144419523D02*
X90070533Y-144419523D01*
X90070533Y-144419523D02*
X90213390Y-144371904D01*
X90213390Y-144371904D02*
X90784819Y-143800476D01*
X90784819Y-143800476D02*
X90784819Y-144419523D01*
X89784819Y-145038571D02*
X89784819Y-145133809D01*
X89784819Y-145133809D02*
X89832438Y-145229047D01*
X89832438Y-145229047D02*
X89880057Y-145276666D01*
X89880057Y-145276666D02*
X89975295Y-145324285D01*
X89975295Y-145324285D02*
X90165771Y-145371904D01*
X90165771Y-145371904D02*
X90403866Y-145371904D01*
X90403866Y-145371904D02*
X90594342Y-145324285D01*
X90594342Y-145324285D02*
X90689580Y-145276666D01*
X90689580Y-145276666D02*
X90737200Y-145229047D01*
X90737200Y-145229047D02*
X90784819Y-145133809D01*
X90784819Y-145133809D02*
X90784819Y-145038571D01*
X90784819Y-145038571D02*
X90737200Y-144943333D01*
X90737200Y-144943333D02*
X90689580Y-144895714D01*
X90689580Y-144895714D02*
X90594342Y-144848095D01*
X90594342Y-144848095D02*
X90403866Y-144800476D01*
X90403866Y-144800476D02*
X90165771Y-144800476D01*
X90165771Y-144800476D02*
X89975295Y-144848095D01*
X89975295Y-144848095D02*
X89880057Y-144895714D01*
X89880057Y-144895714D02*
X89832438Y-144943333D01*
X89832438Y-144943333D02*
X89784819Y-145038571D01*
X99359580Y-137457142D02*
X99407200Y-137409523D01*
X99407200Y-137409523D02*
X99454819Y-137266666D01*
X99454819Y-137266666D02*
X99454819Y-137171428D01*
X99454819Y-137171428D02*
X99407200Y-137028571D01*
X99407200Y-137028571D02*
X99311961Y-136933333D01*
X99311961Y-136933333D02*
X99216723Y-136885714D01*
X99216723Y-136885714D02*
X99026247Y-136838095D01*
X99026247Y-136838095D02*
X98883390Y-136838095D01*
X98883390Y-136838095D02*
X98692914Y-136885714D01*
X98692914Y-136885714D02*
X98597676Y-136933333D01*
X98597676Y-136933333D02*
X98502438Y-137028571D01*
X98502438Y-137028571D02*
X98454819Y-137171428D01*
X98454819Y-137171428D02*
X98454819Y-137266666D01*
X98454819Y-137266666D02*
X98502438Y-137409523D01*
X98502438Y-137409523D02*
X98550057Y-137457142D01*
X98550057Y-137838095D02*
X98502438Y-137885714D01*
X98502438Y-137885714D02*
X98454819Y-137980952D01*
X98454819Y-137980952D02*
X98454819Y-138219047D01*
X98454819Y-138219047D02*
X98502438Y-138314285D01*
X98502438Y-138314285D02*
X98550057Y-138361904D01*
X98550057Y-138361904D02*
X98645295Y-138409523D01*
X98645295Y-138409523D02*
X98740533Y-138409523D01*
X98740533Y-138409523D02*
X98883390Y-138361904D01*
X98883390Y-138361904D02*
X99454819Y-137790476D01*
X99454819Y-137790476D02*
X99454819Y-138409523D01*
X98454819Y-138742857D02*
X98454819Y-139361904D01*
X98454819Y-139361904D02*
X98835771Y-139028571D01*
X98835771Y-139028571D02*
X98835771Y-139171428D01*
X98835771Y-139171428D02*
X98883390Y-139266666D01*
X98883390Y-139266666D02*
X98931009Y-139314285D01*
X98931009Y-139314285D02*
X99026247Y-139361904D01*
X99026247Y-139361904D02*
X99264342Y-139361904D01*
X99264342Y-139361904D02*
X99359580Y-139314285D01*
X99359580Y-139314285D02*
X99407200Y-139266666D01*
X99407200Y-139266666D02*
X99454819Y-139171428D01*
X99454819Y-139171428D02*
X99454819Y-138885714D01*
X99454819Y-138885714D02*
X99407200Y-138790476D01*
X99407200Y-138790476D02*
X99359580Y-138742857D01*
X85442857Y-138804819D02*
X85776190Y-138328628D01*
X86014285Y-138804819D02*
X86014285Y-137804819D01*
X86014285Y-137804819D02*
X85633333Y-137804819D01*
X85633333Y-137804819D02*
X85538095Y-137852438D01*
X85538095Y-137852438D02*
X85490476Y-137900057D01*
X85490476Y-137900057D02*
X85442857Y-137995295D01*
X85442857Y-137995295D02*
X85442857Y-138138152D01*
X85442857Y-138138152D02*
X85490476Y-138233390D01*
X85490476Y-138233390D02*
X85538095Y-138281009D01*
X85538095Y-138281009D02*
X85633333Y-138328628D01*
X85633333Y-138328628D02*
X86014285Y-138328628D01*
X85061904Y-137900057D02*
X85014285Y-137852438D01*
X85014285Y-137852438D02*
X84919047Y-137804819D01*
X84919047Y-137804819D02*
X84680952Y-137804819D01*
X84680952Y-137804819D02*
X84585714Y-137852438D01*
X84585714Y-137852438D02*
X84538095Y-137900057D01*
X84538095Y-137900057D02*
X84490476Y-137995295D01*
X84490476Y-137995295D02*
X84490476Y-138090533D01*
X84490476Y-138090533D02*
X84538095Y-138233390D01*
X84538095Y-138233390D02*
X85109523Y-138804819D01*
X85109523Y-138804819D02*
X84490476Y-138804819D01*
X83585714Y-137804819D02*
X84061904Y-137804819D01*
X84061904Y-137804819D02*
X84109523Y-138281009D01*
X84109523Y-138281009D02*
X84061904Y-138233390D01*
X84061904Y-138233390D02*
X83966666Y-138185771D01*
X83966666Y-138185771D02*
X83728571Y-138185771D01*
X83728571Y-138185771D02*
X83633333Y-138233390D01*
X83633333Y-138233390D02*
X83585714Y-138281009D01*
X83585714Y-138281009D02*
X83538095Y-138376247D01*
X83538095Y-138376247D02*
X83538095Y-138614342D01*
X83538095Y-138614342D02*
X83585714Y-138709580D01*
X83585714Y-138709580D02*
X83633333Y-138757200D01*
X83633333Y-138757200D02*
X83728571Y-138804819D01*
X83728571Y-138804819D02*
X83966666Y-138804819D01*
X83966666Y-138804819D02*
X84061904Y-138757200D01*
X84061904Y-138757200D02*
X84109523Y-138709580D01*
X85292857Y-134809580D02*
X85340476Y-134857200D01*
X85340476Y-134857200D02*
X85483333Y-134904819D01*
X85483333Y-134904819D02*
X85578571Y-134904819D01*
X85578571Y-134904819D02*
X85721428Y-134857200D01*
X85721428Y-134857200D02*
X85816666Y-134761961D01*
X85816666Y-134761961D02*
X85864285Y-134666723D01*
X85864285Y-134666723D02*
X85911904Y-134476247D01*
X85911904Y-134476247D02*
X85911904Y-134333390D01*
X85911904Y-134333390D02*
X85864285Y-134142914D01*
X85864285Y-134142914D02*
X85816666Y-134047676D01*
X85816666Y-134047676D02*
X85721428Y-133952438D01*
X85721428Y-133952438D02*
X85578571Y-133904819D01*
X85578571Y-133904819D02*
X85483333Y-133904819D01*
X85483333Y-133904819D02*
X85340476Y-133952438D01*
X85340476Y-133952438D02*
X85292857Y-134000057D01*
X84911904Y-134000057D02*
X84864285Y-133952438D01*
X84864285Y-133952438D02*
X84769047Y-133904819D01*
X84769047Y-133904819D02*
X84530952Y-133904819D01*
X84530952Y-133904819D02*
X84435714Y-133952438D01*
X84435714Y-133952438D02*
X84388095Y-134000057D01*
X84388095Y-134000057D02*
X84340476Y-134095295D01*
X84340476Y-134095295D02*
X84340476Y-134190533D01*
X84340476Y-134190533D02*
X84388095Y-134333390D01*
X84388095Y-134333390D02*
X84959523Y-134904819D01*
X84959523Y-134904819D02*
X84340476Y-134904819D01*
X83769047Y-134333390D02*
X83864285Y-134285771D01*
X83864285Y-134285771D02*
X83911904Y-134238152D01*
X83911904Y-134238152D02*
X83959523Y-134142914D01*
X83959523Y-134142914D02*
X83959523Y-134095295D01*
X83959523Y-134095295D02*
X83911904Y-134000057D01*
X83911904Y-134000057D02*
X83864285Y-133952438D01*
X83864285Y-133952438D02*
X83769047Y-133904819D01*
X83769047Y-133904819D02*
X83578571Y-133904819D01*
X83578571Y-133904819D02*
X83483333Y-133952438D01*
X83483333Y-133952438D02*
X83435714Y-134000057D01*
X83435714Y-134000057D02*
X83388095Y-134095295D01*
X83388095Y-134095295D02*
X83388095Y-134142914D01*
X83388095Y-134142914D02*
X83435714Y-134238152D01*
X83435714Y-134238152D02*
X83483333Y-134285771D01*
X83483333Y-134285771D02*
X83578571Y-134333390D01*
X83578571Y-134333390D02*
X83769047Y-134333390D01*
X83769047Y-134333390D02*
X83864285Y-134381009D01*
X83864285Y-134381009D02*
X83911904Y-134428628D01*
X83911904Y-134428628D02*
X83959523Y-134523866D01*
X83959523Y-134523866D02*
X83959523Y-134714342D01*
X83959523Y-134714342D02*
X83911904Y-134809580D01*
X83911904Y-134809580D02*
X83864285Y-134857200D01*
X83864285Y-134857200D02*
X83769047Y-134904819D01*
X83769047Y-134904819D02*
X83578571Y-134904819D01*
X83578571Y-134904819D02*
X83483333Y-134857200D01*
X83483333Y-134857200D02*
X83435714Y-134809580D01*
X83435714Y-134809580D02*
X83388095Y-134714342D01*
X83388095Y-134714342D02*
X83388095Y-134523866D01*
X83388095Y-134523866D02*
X83435714Y-134428628D01*
X83435714Y-134428628D02*
X83483333Y-134381009D01*
X83483333Y-134381009D02*
X83578571Y-134333390D01*
X51904819Y-114307142D02*
X51428628Y-113973809D01*
X51904819Y-113735714D02*
X50904819Y-113735714D01*
X50904819Y-113735714D02*
X50904819Y-114116666D01*
X50904819Y-114116666D02*
X50952438Y-114211904D01*
X50952438Y-114211904D02*
X51000057Y-114259523D01*
X51000057Y-114259523D02*
X51095295Y-114307142D01*
X51095295Y-114307142D02*
X51238152Y-114307142D01*
X51238152Y-114307142D02*
X51333390Y-114259523D01*
X51333390Y-114259523D02*
X51381009Y-114211904D01*
X51381009Y-114211904D02*
X51428628Y-114116666D01*
X51428628Y-114116666D02*
X51428628Y-113735714D01*
X51238152Y-115164285D02*
X51904819Y-115164285D01*
X50857200Y-114926190D02*
X51571485Y-114688095D01*
X51571485Y-114688095D02*
X51571485Y-115307142D01*
X50904819Y-115878571D02*
X50904819Y-115973809D01*
X50904819Y-115973809D02*
X50952438Y-116069047D01*
X50952438Y-116069047D02*
X51000057Y-116116666D01*
X51000057Y-116116666D02*
X51095295Y-116164285D01*
X51095295Y-116164285D02*
X51285771Y-116211904D01*
X51285771Y-116211904D02*
X51523866Y-116211904D01*
X51523866Y-116211904D02*
X51714342Y-116164285D01*
X51714342Y-116164285D02*
X51809580Y-116116666D01*
X51809580Y-116116666D02*
X51857200Y-116069047D01*
X51857200Y-116069047D02*
X51904819Y-115973809D01*
X51904819Y-115973809D02*
X51904819Y-115878571D01*
X51904819Y-115878571D02*
X51857200Y-115783333D01*
X51857200Y-115783333D02*
X51809580Y-115735714D01*
X51809580Y-115735714D02*
X51714342Y-115688095D01*
X51714342Y-115688095D02*
X51523866Y-115640476D01*
X51523866Y-115640476D02*
X51285771Y-115640476D01*
X51285771Y-115640476D02*
X51095295Y-115688095D01*
X51095295Y-115688095D02*
X51000057Y-115735714D01*
X51000057Y-115735714D02*
X50952438Y-115783333D01*
X50952438Y-115783333D02*
X50904819Y-115878571D01*
X78242857Y-132959580D02*
X78290476Y-133007200D01*
X78290476Y-133007200D02*
X78433333Y-133054819D01*
X78433333Y-133054819D02*
X78528571Y-133054819D01*
X78528571Y-133054819D02*
X78671428Y-133007200D01*
X78671428Y-133007200D02*
X78766666Y-132911961D01*
X78766666Y-132911961D02*
X78814285Y-132816723D01*
X78814285Y-132816723D02*
X78861904Y-132626247D01*
X78861904Y-132626247D02*
X78861904Y-132483390D01*
X78861904Y-132483390D02*
X78814285Y-132292914D01*
X78814285Y-132292914D02*
X78766666Y-132197676D01*
X78766666Y-132197676D02*
X78671428Y-132102438D01*
X78671428Y-132102438D02*
X78528571Y-132054819D01*
X78528571Y-132054819D02*
X78433333Y-132054819D01*
X78433333Y-132054819D02*
X78290476Y-132102438D01*
X78290476Y-132102438D02*
X78242857Y-132150057D01*
X77290476Y-133054819D02*
X77861904Y-133054819D01*
X77576190Y-133054819D02*
X77576190Y-132054819D01*
X77576190Y-132054819D02*
X77671428Y-132197676D01*
X77671428Y-132197676D02*
X77766666Y-132292914D01*
X77766666Y-132292914D02*
X77861904Y-132340533D01*
X76814285Y-133054819D02*
X76623809Y-133054819D01*
X76623809Y-133054819D02*
X76528571Y-133007200D01*
X76528571Y-133007200D02*
X76480952Y-132959580D01*
X76480952Y-132959580D02*
X76385714Y-132816723D01*
X76385714Y-132816723D02*
X76338095Y-132626247D01*
X76338095Y-132626247D02*
X76338095Y-132245295D01*
X76338095Y-132245295D02*
X76385714Y-132150057D01*
X76385714Y-132150057D02*
X76433333Y-132102438D01*
X76433333Y-132102438D02*
X76528571Y-132054819D01*
X76528571Y-132054819D02*
X76719047Y-132054819D01*
X76719047Y-132054819D02*
X76814285Y-132102438D01*
X76814285Y-132102438D02*
X76861904Y-132150057D01*
X76861904Y-132150057D02*
X76909523Y-132245295D01*
X76909523Y-132245295D02*
X76909523Y-132483390D01*
X76909523Y-132483390D02*
X76861904Y-132578628D01*
X76861904Y-132578628D02*
X76814285Y-132626247D01*
X76814285Y-132626247D02*
X76719047Y-132673866D01*
X76719047Y-132673866D02*
X76528571Y-132673866D01*
X76528571Y-132673866D02*
X76433333Y-132626247D01*
X76433333Y-132626247D02*
X76385714Y-132578628D01*
X76385714Y-132578628D02*
X76338095Y-132483390D01*
D11*
X83304775Y-145275000D02*
X83304775Y-145775000D01*
X83554775Y-145525000D02*
X83054775Y-145525000D01*
X83370000Y-147000000D02*
G75*
G02*
X78130000Y-147000000I-2620000J0D01*
G01*
X78130000Y-147000000D02*
G75*
G02*
X83370000Y-147000000I2620000J0D01*
G01*
X88630000Y-150920000D02*
X88960000Y-150920000D01*
X88630000Y-157460000D02*
X88630000Y-150920000D01*
X88960000Y-157460000D02*
X88630000Y-157460000D01*
X91040000Y-157460000D02*
X91370000Y-157460000D01*
X91370000Y-150920000D02*
X91040000Y-150920000D01*
X91370000Y-157460000D02*
X91370000Y-150920000D01*
X84920000Y-130630000D02*
X84920000Y-130960000D01*
X84920000Y-133370000D02*
X84920000Y-133040000D01*
X91460000Y-130630000D02*
X84920000Y-130630000D01*
X91460000Y-130960000D02*
X91460000Y-130630000D01*
X91460000Y-133040000D02*
X91460000Y-133370000D01*
X91460000Y-133370000D02*
X84920000Y-133370000D01*
X91330000Y-140840000D02*
X91330000Y-147380000D01*
X91330000Y-147380000D02*
X91660000Y-147380000D01*
X91660000Y-140840000D02*
X91330000Y-140840000D01*
X93740000Y-140840000D02*
X94070000Y-140840000D01*
X94070000Y-140840000D02*
X94070000Y-147380000D01*
X94070000Y-147380000D02*
X93740000Y-147380000D01*
X98475000Y-144554775D02*
X98475000Y-144054775D01*
X98725000Y-144304775D02*
X98225000Y-144304775D01*
X99620000Y-141750000D02*
G75*
G02*
X94380000Y-141750000I-2620000J0D01*
G01*
X94380000Y-141750000D02*
G75*
G02*
X99620000Y-141750000I2620000J0D01*
G01*
X77730000Y-138630000D02*
X77730000Y-138960000D01*
X77730000Y-141370000D02*
X77730000Y-141040000D01*
X84270000Y-138630000D02*
X77730000Y-138630000D01*
X84270000Y-138960000D02*
X84270000Y-138630000D01*
X84270000Y-141040000D02*
X84270000Y-141370000D01*
X84270000Y-141370000D02*
X77730000Y-141370000D01*
X90504775Y-134875000D02*
X90504775Y-135375000D01*
X90754775Y-135125000D02*
X90254775Y-135125000D01*
X90570000Y-136600000D02*
G75*
G02*
X85330000Y-136600000I-2620000J0D01*
G01*
X85330000Y-136600000D02*
G75*
G02*
X90570000Y-136600000I2620000J0D01*
G01*
X47630000Y-109730000D02*
X47960000Y-109730000D01*
X47630000Y-116270000D02*
X47630000Y-109730000D01*
X47960000Y-116270000D02*
X47630000Y-116270000D01*
X50040000Y-116270000D02*
X50370000Y-116270000D01*
X50370000Y-109730000D02*
X50040000Y-109730000D01*
X50370000Y-116270000D02*
X50370000Y-109730000D01*
X78209888Y-134025000D02*
X78209888Y-134525000D01*
X78459888Y-134275000D02*
X77959888Y-134275000D01*
X78275113Y-135750000D02*
G75*
G02*
X73035113Y-135750000I-2620000J0D01*
G01*
X73035113Y-135750000D02*
G75*
G02*
X78275113Y-135750000I2620000J0D01*
G01*
M02*
