G04 #@! TF.GenerationSoftware,KiCad,Pcbnew,10.0.0*
G04 #@! TF.CreationDate,2026-04-24T13:35:17+02:00*
G04 #@! TF.ProjectId,MCU_board,4d43555f-626f-4617-9264-2e6b69636164,rev?*
G04 #@! TF.SameCoordinates,Original*
G04 #@! TF.FileFunction,Soldermask,Top*
G04 #@! TF.FilePolarity,Negative*
%FSLAX46Y46*%
G04 Gerber Fmt 4.6, Leading zero omitted, Abs format (unit mm)*
G04 Created by KiCad (PCBNEW 10.0.0) date 2026-04-24 13:35:17*
%MOMM*%
%LPD*%
G01*
G04 APERTURE LIST*
G04 Aperture macros list*
%AMRoundRect*
0 Rectangle with rounded corners*
0 $1 Rounding radius*
0 $2 $3 $4 $5 $6 $7 $8 $9 X,Y pos of 4 corners*
0 Add a 4 corners polygon primitive as box body*
4,1,4,$2,$3,$4,$5,$6,$7,$8,$9,$2,$3,0*
0 Add four circle primitives for the rounded corners*
1,1,$1+$1,$2,$3*
1,1,$1+$1,$4,$5*
1,1,$1+$1,$6,$7*
1,1,$1+$1,$8,$9*
0 Add four rect primitives between the rounded corners*
20,1,$1+$1,$2,$3,$4,$5,0*
20,1,$1+$1,$4,$5,$6,$7,0*
20,1,$1+$1,$6,$7,$8,$9,0*
20,1,$1+$1,$8,$9,$2,$3,0*%
G04 Aperture macros list end*
%ADD10C,1.600000*%
%ADD11R,1.050000X0.400000*%
%ADD12C,0.800000*%
%ADD13C,6.400000*%
%ADD14RoundRect,0.249999X-0.850001X0.850001X-0.850001X-0.850001X0.850001X-0.850001X0.850001X0.850001X0*%
%ADD15C,2.200000*%
%ADD16C,1.540000*%
%ADD17R,1.475000X0.450000*%
%ADD18RoundRect,0.250000X-0.550000X-0.550000X0.550000X-0.550000X0.550000X0.550000X-0.550000X0.550000X0*%
%ADD19C,2.000000*%
%ADD20RoundRect,0.102000X-0.250000X1.000000X-0.250000X-1.000000X0.250000X-1.000000X0.250000X1.000000X0*%
%ADD21RoundRect,0.102000X-1.000000X0.250000X-1.000000X-0.250000X1.000000X-0.250000X1.000000X0.250000X0*%
%ADD22R,0.900000X1.500000*%
%ADD23R,1.500000X0.900000*%
%ADD24R,0.900000X0.900000*%
%ADD25RoundRect,0.250000X0.550000X0.550000X-0.550000X0.550000X-0.550000X-0.550000X0.550000X-0.550000X0*%
%ADD26RoundRect,0.100000X0.400000X0.400000X-0.400000X0.400000X-0.400000X-0.400000X0.400000X-0.400000X0*%
%ADD27RoundRect,0.105000X0.420000X0.995000X-0.420000X0.995000X-0.420000X-0.995000X0.420000X-0.995000X0*%
%ADD28R,1.530000X1.530000*%
%ADD29C,1.530000*%
%ADD30R,1.300000X0.600000*%
%ADD31R,0.850000X0.300000*%
%ADD32R,0.300000X0.850000*%
%ADD33R,1.250000X1.250000*%
%ADD34R,1.800000X0.800000*%
G04 APERTURE END LIST*
D10*
X72850000Y-101900000D03*
X75350000Y-101900000D03*
X65800000Y-101850000D03*
X68300000Y-101850000D03*
D11*
X88350000Y-166350000D03*
X88350000Y-167000000D03*
X88350000Y-167650000D03*
X90250000Y-167650000D03*
X90250000Y-167000000D03*
X90250000Y-166350000D03*
D12*
X31097056Y-166497056D03*
X31800000Y-164800000D03*
X31800000Y-168194112D03*
X33497056Y-164097056D03*
D13*
X33497056Y-166497056D03*
D12*
X33497056Y-168897056D03*
X35194112Y-164800000D03*
X35194112Y-168194112D03*
X35897056Y-166497056D03*
D14*
X45000000Y-138190000D03*
D15*
X45000000Y-145810000D03*
D10*
X62000000Y-139500000D03*
X62000000Y-142000000D03*
X54000000Y-134500000D03*
X56500000Y-134500000D03*
X95850000Y-118800000D03*
X98350000Y-118800000D03*
D16*
X84750000Y-154750000D03*
X84750000Y-161250000D03*
X80250000Y-154750000D03*
X80250000Y-161250000D03*
D10*
X78250000Y-166500000D03*
X70630000Y-166500000D03*
D17*
X89662000Y-149050000D03*
X89662000Y-149700000D03*
X89662000Y-150350000D03*
X89662000Y-151000000D03*
X89662000Y-151650000D03*
X89662000Y-152300000D03*
X89662000Y-152950000D03*
X95538000Y-152950000D03*
X95538000Y-152300000D03*
X95538000Y-151650000D03*
X95538000Y-151000000D03*
X95538000Y-150350000D03*
X95538000Y-149700000D03*
X95538000Y-149050000D03*
D12*
X94150000Y-166500000D03*
X94852944Y-164802944D03*
X94852944Y-168197056D03*
X96550000Y-164100000D03*
D13*
X96550000Y-166500000D03*
D12*
X96550000Y-168900000D03*
X98247056Y-164802944D03*
X98247056Y-168197056D03*
X98950000Y-166500000D03*
X31200000Y-103500000D03*
X31902944Y-101802944D03*
X31902944Y-105197056D03*
X33600000Y-101100000D03*
D13*
X33600000Y-103500000D03*
D12*
X33600000Y-105900000D03*
X35297056Y-101802944D03*
X35297056Y-105197056D03*
X36000000Y-103500000D03*
D10*
X93200000Y-114800000D03*
X93200000Y-112300000D03*
X92700000Y-125010000D03*
X92700000Y-117390000D03*
D18*
X78994888Y-120300000D03*
D10*
X81494888Y-120300000D03*
X64000000Y-159690000D03*
X64000000Y-167310000D03*
D19*
X32900000Y-132400000D03*
X32900000Y-126800000D03*
D16*
X84800000Y-120100000D03*
X84800000Y-113600000D03*
X89300000Y-120100000D03*
X89300000Y-113600000D03*
D18*
X37794888Y-140000000D03*
D10*
X40294888Y-140000000D03*
D19*
X32100000Y-109700000D03*
D20*
X57000000Y-106000000D03*
X56000000Y-106000000D03*
X55000000Y-106000000D03*
X54000000Y-106000000D03*
X53000000Y-106000000D03*
X52000000Y-106000000D03*
X51000000Y-106000000D03*
X50000000Y-106000000D03*
X49000000Y-106000000D03*
X48000000Y-106000000D03*
X47000000Y-106000000D03*
X46000000Y-106000000D03*
X45000000Y-106000000D03*
X44000000Y-106000000D03*
X43000000Y-106000000D03*
X42000000Y-106000000D03*
X41000000Y-106000000D03*
D21*
X37000000Y-110000000D03*
X37000000Y-111000000D03*
X37000000Y-112000000D03*
X37000000Y-113000000D03*
X37000000Y-114000000D03*
X37000000Y-115000000D03*
X37000000Y-116000000D03*
X37000000Y-117000000D03*
X37000000Y-118000000D03*
X37000000Y-119000000D03*
X37000000Y-120000000D03*
X37000000Y-121000000D03*
X37000000Y-122000000D03*
X37000000Y-123000000D03*
X37000000Y-124000000D03*
X37000000Y-125000000D03*
X37000000Y-126000000D03*
D20*
X41000000Y-130000000D03*
X42000000Y-130000000D03*
X43000000Y-130000000D03*
X44000000Y-130000000D03*
X45000000Y-130000000D03*
X46000000Y-130000000D03*
X47000000Y-130000000D03*
X48000000Y-130000000D03*
X49000000Y-130000000D03*
X50000000Y-130000000D03*
X51000000Y-130000000D03*
X52000000Y-130000000D03*
X53000000Y-130000000D03*
X54000000Y-130000000D03*
X55000000Y-130000000D03*
X56000000Y-130000000D03*
X57000000Y-130000000D03*
D21*
X61000000Y-126000000D03*
X61000000Y-125000000D03*
X61000000Y-124000000D03*
X61000000Y-123000000D03*
X61000000Y-122000000D03*
X61000000Y-121000000D03*
X61000000Y-120000000D03*
X61000000Y-119000000D03*
X61000000Y-118000000D03*
X61000000Y-117000000D03*
X61000000Y-116000000D03*
X61000000Y-115000000D03*
X61000000Y-114000000D03*
X61000000Y-113000000D03*
X61000000Y-112000000D03*
X61000000Y-111000000D03*
X61000000Y-110000000D03*
D22*
X98760000Y-127805000D03*
X97490000Y-127805000D03*
X96220000Y-127805000D03*
X94950000Y-127805000D03*
X93680000Y-127805000D03*
X92410000Y-127805000D03*
X91140000Y-127805000D03*
X89870000Y-127805000D03*
X88600000Y-127805000D03*
X87330000Y-127805000D03*
X86060000Y-127805000D03*
X84790000Y-127805000D03*
X83520000Y-127805000D03*
X82250000Y-127805000D03*
D23*
X81000000Y-129570000D03*
X81000000Y-130840000D03*
X81000000Y-132110000D03*
X81000000Y-133380000D03*
X81000000Y-134650000D03*
X81000000Y-135920000D03*
X81000000Y-137190000D03*
X81000000Y-138460000D03*
X81000000Y-139730000D03*
X81000000Y-141000000D03*
X81000000Y-142270000D03*
X81000000Y-143540000D03*
D22*
X82250000Y-145305000D03*
X83520000Y-145305000D03*
X84790000Y-145305000D03*
X86060000Y-145305000D03*
X87330000Y-145305000D03*
X88600000Y-145305000D03*
X89870000Y-145305000D03*
X91140000Y-145305000D03*
X92410000Y-145305000D03*
X93680000Y-145305000D03*
X94950000Y-145305000D03*
X96220000Y-145305000D03*
X97490000Y-145305000D03*
X98760000Y-145305000D03*
D24*
X91040000Y-135055000D03*
X92440000Y-135055000D03*
X92440000Y-133655000D03*
X91040000Y-133655000D03*
X89640000Y-133655000D03*
X89640000Y-135055000D03*
X89640000Y-136455000D03*
X91040000Y-136455000D03*
X92440000Y-136455000D03*
D18*
X60794888Y-134000000D03*
D10*
X63294888Y-134000000D03*
X86350000Y-101590000D03*
X86350000Y-109210000D03*
X55500000Y-146120000D03*
X55500000Y-138500000D03*
X40810000Y-146500000D03*
X33190000Y-146500000D03*
X90190000Y-156000000D03*
X97810000Y-156000000D03*
D12*
X94050000Y-103450000D03*
X94752944Y-101752944D03*
X94752944Y-105147056D03*
X96450000Y-101050000D03*
D13*
X96450000Y-103450000D03*
D12*
X96450000Y-105850000D03*
X98147056Y-101752944D03*
X98147056Y-105147056D03*
X98850000Y-103450000D03*
D10*
X89200000Y-123500000D03*
X86700000Y-123500000D03*
D19*
X46700000Y-102000000D03*
D10*
X48950000Y-138400000D03*
X51450000Y-138400000D03*
D25*
X34205113Y-140500000D03*
D10*
X31705113Y-140500000D03*
D26*
X90500000Y-162500000D03*
D27*
X89025000Y-161000000D03*
D26*
X90500000Y-159500000D03*
D27*
X91975000Y-161000000D03*
D28*
X70500000Y-109555000D03*
D29*
X73040000Y-109555000D03*
X70500000Y-112095000D03*
X73040000Y-112095000D03*
X70500000Y-114635000D03*
X73040000Y-114635000D03*
X70500000Y-117175000D03*
X73040000Y-117175000D03*
X70500000Y-119715000D03*
X73040000Y-119715000D03*
X70500000Y-122255000D03*
X73040000Y-122255000D03*
X70500000Y-124795000D03*
X73040000Y-124795000D03*
X70500000Y-127335000D03*
X73040000Y-127335000D03*
X70500000Y-129875000D03*
X73040000Y-129875000D03*
X70500000Y-132415000D03*
X73040000Y-132415000D03*
X70500000Y-134955000D03*
X73040000Y-134955000D03*
X70500000Y-137495000D03*
X73040000Y-137495000D03*
X70500000Y-140035000D03*
X73040000Y-140035000D03*
X70500000Y-142575000D03*
X73040000Y-142575000D03*
X70500000Y-145115000D03*
X73040000Y-145115000D03*
X70500000Y-147655000D03*
X73040000Y-147655000D03*
X70500000Y-150195000D03*
X73040000Y-150195000D03*
X70500000Y-152735000D03*
X73040000Y-152735000D03*
X70500000Y-155275000D03*
X73040000Y-155275000D03*
X70500000Y-157815000D03*
X73040000Y-157815000D03*
D30*
X96250000Y-122950000D03*
X96250000Y-124850000D03*
X98350000Y-123900000D03*
D26*
X80450000Y-106500000D03*
D27*
X78975000Y-105000000D03*
D26*
X80450000Y-103500000D03*
D27*
X81925000Y-105000000D03*
D10*
X97150000Y-115910000D03*
X97150000Y-108290000D03*
D19*
X53700000Y-102100000D03*
D31*
X60300000Y-147800000D03*
X60300000Y-148300000D03*
X60300000Y-148800000D03*
X60300000Y-149300000D03*
D32*
X61000000Y-150000000D03*
X61500000Y-150000000D03*
X62000000Y-150000000D03*
X62500000Y-150000000D03*
D31*
X63200000Y-149300000D03*
X63200000Y-148800000D03*
X63200000Y-148300000D03*
X63200000Y-147800000D03*
D32*
X62500000Y-147100000D03*
X62000000Y-147100000D03*
X61500000Y-147100000D03*
X61000000Y-147100000D03*
D33*
X61750000Y-148550000D03*
D26*
X83500000Y-168000000D03*
D27*
X82025000Y-166500000D03*
D26*
X83500000Y-165000000D03*
D27*
X84975000Y-166500000D03*
D34*
X53000000Y-167000000D03*
X53000000Y-165900000D03*
X53000000Y-164800000D03*
X53000000Y-163700000D03*
X53000000Y-162600000D03*
X53000000Y-161500000D03*
X53000000Y-160400000D03*
X53000000Y-157400000D03*
X53000000Y-156300000D03*
X53000000Y-155200000D03*
X53000000Y-154100000D03*
X53000000Y-153000000D03*
X41000000Y-153000000D03*
X41000000Y-154100000D03*
X41000000Y-155200000D03*
X41000000Y-156300000D03*
X41000000Y-157400000D03*
X41000000Y-160400000D03*
X41000000Y-161500000D03*
X41000000Y-162600000D03*
X41000000Y-163700000D03*
X41000000Y-164800000D03*
X41000000Y-165900000D03*
X41000000Y-167000000D03*
D10*
X91200000Y-109260000D03*
X91200000Y-101640000D03*
D19*
X40900000Y-101900000D03*
D10*
X34250000Y-158610000D03*
X34250000Y-150990000D03*
M02*
