M48
; DRILL file KiCad 10.0.0 date 2026-04-24T13:35:15
; FORMAT={-:-/ absolute / metric / decimal}
; #@! TF.CreationDate,2026-04-24T13:35:15+02:00
; #@! TF.GenerationSoftware,Kicad,Pcbnew,10.0.0
; #@! TF.FileFunction,Plated,1,4,PTH
FMAT,2
METRIC
; #@! TA.AperFunction,Plated,PTH,ViaDrill
T1C0.300
; #@! TA.AperFunction,Plated,PTH,ViaDrill
T2C0.450
; #@! TA.AperFunction,Plated,PTH,ComponentDrill
T3C0.500
; #@! TA.AperFunction,Plated,PTH,ComponentDrill
T4C0.800
; #@! TA.AperFunction,Plated,PTH,ComponentDrill
T5C0.990
; #@! TA.AperFunction,Plated,PTH,ComponentDrill
T6C1.000
; #@! TA.AperFunction,Plated,PTH,ComponentDrill
T7C1.020
; #@! TA.AperFunction,Plated,PTH,ComponentDrill
T8C1.100
; #@! TA.AperFunction,Plated,PTH,ComponentDrill
T9C3.200
%
G90
G05
T1
X31.85Y-119.35
X34.15Y-121.9
X35.1Y-126.0
X35.2Y-122.0
X39.0Y-110.05
X40.8Y-121.95
X41.05Y-123.95
X41.35Y-124.9
X41.8Y-116.65
X43.55Y-162.6
X43.55Y-163.7
X45.15Y-109.15
X51.1Y-164.8
X51.2Y-161.3
X55.4Y-164.65
X76.45Y-124.5
X82.75Y-131.3
X98.75Y-150.55
X98.8Y-149.5
X98.8Y-151.7
X99.25Y-148.5
T2
X38.4Y-152.25
X40.25Y-111.05
X41.5Y-103.85
X42.8Y-119.1
X43.95Y-166.6
X44.3Y-116.55
X44.5Y-132.4
X46.55Y-118.5
X47.0Y-111.8
X49.65Y-111.0
X49.95Y-121.25
X50.7Y-110.3
X51.55Y-132.45
X55.45Y-166.35
X55.85Y-119.95
X55.85Y-152.65
X56.25Y-102.15
X57.6Y-144.9
X57.65Y-124.25
X57.75Y-119.45
X57.85Y-126.0
X57.95Y-113.55
X58.15Y-115.95
X58.75Y-149.05
X59.1Y-144.95
X59.2Y-148.1
X59.2Y-151.9
X59.85Y-128.85
X59.95Y-143.8
X60.4Y-157.85
X61.25Y-145.7
X61.9Y-148.15
X62.0Y-144.55
X62.15Y-135.65
X64.35Y-148.0
X64.7Y-161.45
X64.85Y-111.95
X65.7Y-104.2
X66.35Y-137.6
X66.5Y-135.95
X68.1Y-147.55
X69.65Y-136.2
X74.25Y-126.45
X74.5Y-134.25
X74.65Y-132.25
X74.8Y-138.6
X74.85Y-143.75
X74.95Y-129.85
X75.05Y-145.15
X75.6Y-113.25
X75.8Y-131.85
X75.9Y-142.55
X76.95Y-131.65
X77.05Y-130.1
X77.25Y-113.55
X77.55Y-142.15
X77.8Y-103.25
X77.95Y-153.3
X78.1Y-130.55
X78.25Y-122.8
X78.5Y-141.1
X78.7Y-132.8
X79.0Y-131.8
X79.0Y-134.8
X79.0Y-138.4
X79.1Y-127.8
X79.35Y-137.1
X79.45Y-135.8
X79.95Y-125.25
X80.75Y-164.5
X80.85Y-110.25
X80.9Y-146.15
X81.0Y-148.95
X81.4Y-156.6
X82.2Y-149.7
X82.45Y-126.15
X82.75Y-143.7
X82.85Y-135.75
X83.05Y-149.1
X83.55Y-137.05
X83.7Y-142.5
X83.85Y-132.2
X84.05Y-149.95
X84.1Y-105.0
X84.6Y-139.95
X84.8Y-147.1
X85.05Y-150.7
X85.4Y-142.25
X85.6Y-134.1
X86.45Y-150.55
X86.65Y-166.55
X87.3Y-140.4
X87.3Y-153.4
X87.4Y-148.95
X87.4Y-162.0
X88.0Y-126.05
X88.05Y-142.55
X88.2Y-136.95
X88.35Y-138.2
X88.35Y-148.05
X88.4Y-154.4
X89.0Y-131.45
X89.75Y-138.35
X89.95Y-143.05
X91.15Y-147.2
X91.2Y-129.75
X91.65Y-168.15
X91.95Y-143.2
X92.4Y-146.95
X92.6Y-164.9
X93.3Y-137.9
X93.4Y-154.35
X93.55Y-160.95
X93.85Y-141.25
X94.35Y-135.05
X94.7Y-140.3
X95.1Y-146.75
X96.25Y-126.15
X96.45Y-146.95
X96.65Y-132.45
X97.0Y-143.2
X97.5Y-141.7
X97.7Y-148.25
X98.05Y-139.1
X98.2Y-130.75
X98.25Y-146.8
X98.85Y-124.8
X98.85Y-126.1
T3
X31.097Y-166.497
X31.2Y-103.5
X31.8Y-164.8
X31.8Y-168.194
X31.903Y-101.803
X31.903Y-105.197
X33.497Y-164.097
X33.497Y-168.897
X33.6Y-101.1
X33.6Y-105.9
X35.194Y-164.8
X35.194Y-168.194
X35.297Y-101.803
X35.297Y-105.197
X35.897Y-166.497
X36.0Y-103.5
X94.05Y-103.45
X94.15Y-166.5
X94.753Y-101.753
X94.753Y-105.147
X94.853Y-164.803
X94.853Y-168.197
X96.45Y-101.05
X96.45Y-105.85
X96.55Y-164.1
X96.55Y-168.9
X98.147Y-101.753
X98.147Y-105.147
X98.247Y-164.803
X98.247Y-168.197
X98.85Y-103.45
X98.95Y-166.5
T4
X31.705Y-140.5
X33.19Y-146.5
X34.205Y-140.5
X34.25Y-150.99
X34.25Y-158.61
X37.795Y-140.0
X40.295Y-140.0
X40.81Y-146.5
X48.95Y-138.4
X51.45Y-138.4
X54.0Y-134.5
X55.5Y-138.5
X55.5Y-146.12
X56.5Y-134.5
X60.795Y-134.0
X62.0Y-139.5
X62.0Y-142.0
X63.295Y-134.0
X64.0Y-159.69
X64.0Y-167.31
X65.8Y-101.85
X68.3Y-101.85
X70.63Y-166.5
X72.85Y-101.9
X75.35Y-101.9
X78.25Y-166.5
X78.995Y-120.3
X81.495Y-120.3
X86.35Y-101.59
X86.35Y-109.21
X86.7Y-123.5
X89.2Y-123.5
X90.19Y-156.0
X91.2Y-101.64
X91.2Y-109.26
X92.7Y-117.39
X92.7Y-125.01
X93.2Y-112.3
X93.2Y-114.8
X95.85Y-118.8
X97.15Y-108.29
X97.15Y-115.91
X97.81Y-156.0
X98.35Y-118.8
T5
X80.25Y-154.75
X80.25Y-161.25
X84.75Y-154.75
X84.75Y-161.25
X84.8Y-113.6
X84.8Y-120.1
X89.3Y-113.6
X89.3Y-120.1
T6
X32.1Y-109.7
X32.9Y-126.8
X32.9Y-132.4
X40.9Y-101.9
X46.7Y-102.0
X53.7Y-102.1
T7
X70.5Y-109.555
X70.5Y-112.095
X70.5Y-114.635
X70.5Y-117.175
X70.5Y-119.715
X70.5Y-122.255
X70.5Y-124.795
X70.5Y-127.335
X70.5Y-129.875
X70.5Y-132.415
X70.5Y-134.955
X70.5Y-137.495
X70.5Y-140.035
X70.5Y-142.575
X70.5Y-145.115
X70.5Y-147.655
X70.5Y-150.195
X70.5Y-152.735
X70.5Y-155.275
X70.5Y-157.815
X73.04Y-109.555
X73.04Y-112.095
X73.04Y-114.635
X73.04Y-117.175
X73.04Y-119.715
X73.04Y-122.255
X73.04Y-124.795
X73.04Y-127.335
X73.04Y-129.875
X73.04Y-132.415
X73.04Y-134.955
X73.04Y-137.495
X73.04Y-140.035
X73.04Y-142.575
X73.04Y-145.115
X73.04Y-147.655
X73.04Y-150.195
X73.04Y-152.735
X73.04Y-155.275
X73.04Y-157.815
T8
X45.0Y-138.19
X45.0Y-145.81
T9
X33.497Y-166.497
X33.6Y-103.5
X96.45Y-103.45
X96.55Y-166.5
M30
