G04 #@! TF.GenerationSoftware,KiCad,Pcbnew,10.0.0*
G04 #@! TF.CreationDate,2026-04-24T13:35:17+02:00*
G04 #@! TF.ProjectId,MCU_board,4d43555f-626f-4617-9264-2e6b69636164,rev?*
G04 #@! TF.SameCoordinates,Original*
G04 #@! TF.FileFunction,Legend,Bot*
G04 #@! TF.FilePolarity,Positive*
%FSLAX46Y46*%
G04 Gerber Fmt 4.6, Leading zero omitted, Abs format (unit mm)*
G04 Created by KiCad (PCBNEW 10.0.0) date 2026-04-24 13:35:17*
%MOMM*%
%LPD*%
G01*
G04 APERTURE LIST*
%ADD10C,0.254000*%
%ADD11C,0.150000*%
%ADD12C,0.100000*%
%ADD13C,0.000000*%
%ADD14C,0.200000*%
%ADD15C,0.120000*%
G04 APERTURE END LIST*
D10*
X46724318Y-108462618D02*
X45454318Y-108462618D01*
X45454318Y-108462618D02*
X45454318Y-108764999D01*
X45454318Y-108764999D02*
X45514794Y-108946428D01*
X45514794Y-108946428D02*
X45635746Y-109067380D01*
X45635746Y-109067380D02*
X45756699Y-109127857D01*
X45756699Y-109127857D02*
X45998603Y-109188333D01*
X45998603Y-109188333D02*
X46180032Y-109188333D01*
X46180032Y-109188333D02*
X46421937Y-109127857D01*
X46421937Y-109127857D02*
X46542889Y-109067380D01*
X46542889Y-109067380D02*
X46663842Y-108946428D01*
X46663842Y-108946428D02*
X46724318Y-108764999D01*
X46724318Y-108764999D02*
X46724318Y-108462618D01*
X46724318Y-110397857D02*
X46724318Y-109672142D01*
X46724318Y-110034999D02*
X45454318Y-110034999D01*
X45454318Y-110034999D02*
X45635746Y-109914047D01*
X45635746Y-109914047D02*
X45756699Y-109793095D01*
X45756699Y-109793095D02*
X45817175Y-109672142D01*
X52445270Y-125029047D02*
X52384794Y-124908095D01*
X52384794Y-124908095D02*
X52263842Y-124787142D01*
X52263842Y-124787142D02*
X52082413Y-124605714D01*
X52082413Y-124605714D02*
X52021937Y-124484761D01*
X52021937Y-124484761D02*
X52021937Y-124363809D01*
X52324318Y-124424285D02*
X52263842Y-124303333D01*
X52263842Y-124303333D02*
X52142889Y-124182380D01*
X52142889Y-124182380D02*
X51900984Y-124121904D01*
X51900984Y-124121904D02*
X51477651Y-124121904D01*
X51477651Y-124121904D02*
X51235746Y-124182380D01*
X51235746Y-124182380D02*
X51114794Y-124303333D01*
X51114794Y-124303333D02*
X51054318Y-124424285D01*
X51054318Y-124424285D02*
X51054318Y-124666190D01*
X51054318Y-124666190D02*
X51114794Y-124787142D01*
X51114794Y-124787142D02*
X51235746Y-124908095D01*
X51235746Y-124908095D02*
X51477651Y-124968571D01*
X51477651Y-124968571D02*
X51900984Y-124968571D01*
X51900984Y-124968571D02*
X52142889Y-124908095D01*
X52142889Y-124908095D02*
X52263842Y-124787142D01*
X52263842Y-124787142D02*
X52324318Y-124666190D01*
X52324318Y-124666190D02*
X52324318Y-124424285D01*
X51054318Y-126117618D02*
X51054318Y-125512856D01*
X51054318Y-125512856D02*
X51659080Y-125452380D01*
X51659080Y-125452380D02*
X51598603Y-125512856D01*
X51598603Y-125512856D02*
X51538127Y-125633809D01*
X51538127Y-125633809D02*
X51538127Y-125936190D01*
X51538127Y-125936190D02*
X51598603Y-126057142D01*
X51598603Y-126057142D02*
X51659080Y-126117618D01*
X51659080Y-126117618D02*
X51780032Y-126178095D01*
X51780032Y-126178095D02*
X52082413Y-126178095D01*
X52082413Y-126178095D02*
X52203365Y-126117618D01*
X52203365Y-126117618D02*
X52263842Y-126057142D01*
X52263842Y-126057142D02*
X52324318Y-125936190D01*
X52324318Y-125936190D02*
X52324318Y-125633809D01*
X52324318Y-125633809D02*
X52263842Y-125512856D01*
X52263842Y-125512856D02*
X52203365Y-125452380D01*
D11*
X55483333Y-113931009D02*
X55816666Y-113931009D01*
X55816666Y-114454819D02*
X55816666Y-113454819D01*
X55816666Y-113454819D02*
X55340476Y-113454819D01*
X54626190Y-113931009D02*
X54483333Y-113978628D01*
X54483333Y-113978628D02*
X54435714Y-114026247D01*
X54435714Y-114026247D02*
X54388095Y-114121485D01*
X54388095Y-114121485D02*
X54388095Y-114264342D01*
X54388095Y-114264342D02*
X54435714Y-114359580D01*
X54435714Y-114359580D02*
X54483333Y-114407200D01*
X54483333Y-114407200D02*
X54578571Y-114454819D01*
X54578571Y-114454819D02*
X54959523Y-114454819D01*
X54959523Y-114454819D02*
X54959523Y-113454819D01*
X54959523Y-113454819D02*
X54626190Y-113454819D01*
X54626190Y-113454819D02*
X54530952Y-113502438D01*
X54530952Y-113502438D02*
X54483333Y-113550057D01*
X54483333Y-113550057D02*
X54435714Y-113645295D01*
X54435714Y-113645295D02*
X54435714Y-113740533D01*
X54435714Y-113740533D02*
X54483333Y-113835771D01*
X54483333Y-113835771D02*
X54530952Y-113883390D01*
X54530952Y-113883390D02*
X54626190Y-113931009D01*
X54626190Y-113931009D02*
X54959523Y-113931009D01*
X53435714Y-114454819D02*
X54007142Y-114454819D01*
X53721428Y-114454819D02*
X53721428Y-113454819D01*
X53721428Y-113454819D02*
X53816666Y-113597676D01*
X53816666Y-113597676D02*
X53911904Y-113692914D01*
X53911904Y-113692914D02*
X54007142Y-113740533D01*
D10*
X47203365Y-115523571D02*
X47263842Y-115463095D01*
X47263842Y-115463095D02*
X47324318Y-115281666D01*
X47324318Y-115281666D02*
X47324318Y-115160714D01*
X47324318Y-115160714D02*
X47263842Y-114979285D01*
X47263842Y-114979285D02*
X47142889Y-114858333D01*
X47142889Y-114858333D02*
X47021937Y-114797856D01*
X47021937Y-114797856D02*
X46780032Y-114737380D01*
X46780032Y-114737380D02*
X46598603Y-114737380D01*
X46598603Y-114737380D02*
X46356699Y-114797856D01*
X46356699Y-114797856D02*
X46235746Y-114858333D01*
X46235746Y-114858333D02*
X46114794Y-114979285D01*
X46114794Y-114979285D02*
X46054318Y-115160714D01*
X46054318Y-115160714D02*
X46054318Y-115281666D01*
X46054318Y-115281666D02*
X46114794Y-115463095D01*
X46114794Y-115463095D02*
X46175270Y-115523571D01*
X47324318Y-116733095D02*
X47324318Y-116007380D01*
X47324318Y-116370237D02*
X46054318Y-116370237D01*
X46054318Y-116370237D02*
X46235746Y-116249285D01*
X46235746Y-116249285D02*
X46356699Y-116128333D01*
X46356699Y-116128333D02*
X46417175Y-116007380D01*
X46054318Y-117519285D02*
X46054318Y-117640238D01*
X46054318Y-117640238D02*
X46114794Y-117761190D01*
X46114794Y-117761190D02*
X46175270Y-117821666D01*
X46175270Y-117821666D02*
X46296222Y-117882142D01*
X46296222Y-117882142D02*
X46538127Y-117942619D01*
X46538127Y-117942619D02*
X46840508Y-117942619D01*
X46840508Y-117942619D02*
X47082413Y-117882142D01*
X47082413Y-117882142D02*
X47203365Y-117821666D01*
X47203365Y-117821666D02*
X47263842Y-117761190D01*
X47263842Y-117761190D02*
X47324318Y-117640238D01*
X47324318Y-117640238D02*
X47324318Y-117519285D01*
X47324318Y-117519285D02*
X47263842Y-117398333D01*
X47263842Y-117398333D02*
X47203365Y-117337857D01*
X47203365Y-117337857D02*
X47082413Y-117277380D01*
X47082413Y-117277380D02*
X46840508Y-117216904D01*
X46840508Y-117216904D02*
X46538127Y-117216904D01*
X46538127Y-117216904D02*
X46296222Y-117277380D01*
X46296222Y-117277380D02*
X46175270Y-117337857D01*
X46175270Y-117337857D02*
X46114794Y-117398333D01*
X46114794Y-117398333D02*
X46054318Y-117519285D01*
D11*
X37154819Y-154257142D02*
X36678628Y-153923809D01*
X37154819Y-153685714D02*
X36154819Y-153685714D01*
X36154819Y-153685714D02*
X36154819Y-154066666D01*
X36154819Y-154066666D02*
X36202438Y-154161904D01*
X36202438Y-154161904D02*
X36250057Y-154209523D01*
X36250057Y-154209523D02*
X36345295Y-154257142D01*
X36345295Y-154257142D02*
X36488152Y-154257142D01*
X36488152Y-154257142D02*
X36583390Y-154209523D01*
X36583390Y-154209523D02*
X36631009Y-154161904D01*
X36631009Y-154161904D02*
X36678628Y-154066666D01*
X36678628Y-154066666D02*
X36678628Y-153685714D01*
X36250057Y-154638095D02*
X36202438Y-154685714D01*
X36202438Y-154685714D02*
X36154819Y-154780952D01*
X36154819Y-154780952D02*
X36154819Y-155019047D01*
X36154819Y-155019047D02*
X36202438Y-155114285D01*
X36202438Y-155114285D02*
X36250057Y-155161904D01*
X36250057Y-155161904D02*
X36345295Y-155209523D01*
X36345295Y-155209523D02*
X36440533Y-155209523D01*
X36440533Y-155209523D02*
X36583390Y-155161904D01*
X36583390Y-155161904D02*
X37154819Y-154590476D01*
X37154819Y-154590476D02*
X37154819Y-155209523D01*
X36583390Y-155780952D02*
X36535771Y-155685714D01*
X36535771Y-155685714D02*
X36488152Y-155638095D01*
X36488152Y-155638095D02*
X36392914Y-155590476D01*
X36392914Y-155590476D02*
X36345295Y-155590476D01*
X36345295Y-155590476D02*
X36250057Y-155638095D01*
X36250057Y-155638095D02*
X36202438Y-155685714D01*
X36202438Y-155685714D02*
X36154819Y-155780952D01*
X36154819Y-155780952D02*
X36154819Y-155971428D01*
X36154819Y-155971428D02*
X36202438Y-156066666D01*
X36202438Y-156066666D02*
X36250057Y-156114285D01*
X36250057Y-156114285D02*
X36345295Y-156161904D01*
X36345295Y-156161904D02*
X36392914Y-156161904D01*
X36392914Y-156161904D02*
X36488152Y-156114285D01*
X36488152Y-156114285D02*
X36535771Y-156066666D01*
X36535771Y-156066666D02*
X36583390Y-155971428D01*
X36583390Y-155971428D02*
X36583390Y-155780952D01*
X36583390Y-155780952D02*
X36631009Y-155685714D01*
X36631009Y-155685714D02*
X36678628Y-155638095D01*
X36678628Y-155638095D02*
X36773866Y-155590476D01*
X36773866Y-155590476D02*
X36964342Y-155590476D01*
X36964342Y-155590476D02*
X37059580Y-155638095D01*
X37059580Y-155638095D02*
X37107200Y-155685714D01*
X37107200Y-155685714D02*
X37154819Y-155780952D01*
X37154819Y-155780952D02*
X37154819Y-155971428D01*
X37154819Y-155971428D02*
X37107200Y-156066666D01*
X37107200Y-156066666D02*
X37059580Y-156114285D01*
X37059580Y-156114285D02*
X36964342Y-156161904D01*
X36964342Y-156161904D02*
X36773866Y-156161904D01*
X36773866Y-156161904D02*
X36678628Y-156114285D01*
X36678628Y-156114285D02*
X36631009Y-156066666D01*
X36631009Y-156066666D02*
X36583390Y-155971428D01*
X42254447Y-110366435D02*
X42969227Y-110366435D01*
X42969227Y-110366435D02*
X43112183Y-110318783D01*
X43112183Y-110318783D02*
X43207488Y-110223479D01*
X43207488Y-110223479D02*
X43255140Y-110080523D01*
X43255140Y-110080523D02*
X43255140Y-109985219D01*
X42254447Y-111271824D02*
X42254447Y-111081216D01*
X42254447Y-111081216D02*
X42302099Y-110985912D01*
X42302099Y-110985912D02*
X42349751Y-110938260D01*
X42349751Y-110938260D02*
X42492707Y-110842956D01*
X42492707Y-110842956D02*
X42683315Y-110795304D01*
X42683315Y-110795304D02*
X43064531Y-110795304D01*
X43064531Y-110795304D02*
X43159835Y-110842956D01*
X43159835Y-110842956D02*
X43207488Y-110890608D01*
X43207488Y-110890608D02*
X43255140Y-110985912D01*
X43255140Y-110985912D02*
X43255140Y-111176520D01*
X43255140Y-111176520D02*
X43207488Y-111271824D01*
X43207488Y-111271824D02*
X43159835Y-111319476D01*
X43159835Y-111319476D02*
X43064531Y-111367128D01*
X43064531Y-111367128D02*
X42826271Y-111367128D01*
X42826271Y-111367128D02*
X42730967Y-111319476D01*
X42730967Y-111319476D02*
X42683315Y-111271824D01*
X42683315Y-111271824D02*
X42635663Y-111176520D01*
X42635663Y-111176520D02*
X42635663Y-110985912D01*
X42635663Y-110985912D02*
X42683315Y-110890608D01*
X42683315Y-110890608D02*
X42730967Y-110842956D01*
X42730967Y-110842956D02*
X42826271Y-110795304D01*
D12*
D13*
X46100000Y-109000000D02*
X46099999Y-109000000D01*
X46099999Y-109000000D01*
X46099999Y-109000000D01*
X46099999Y-109000000D01*
X46099999Y-109000000D01*
X46099999Y-109000000D01*
X46099999Y-109000000D01*
X46099999Y-108999999D01*
X46099999Y-108999999D01*
X46099999Y-108999999D01*
X46099999Y-108999999D01*
X46099999Y-108999999D01*
X46100000Y-108999999D01*
X46100000Y-108999999D01*
X46100000Y-108999999D01*
X46100000Y-108999999D01*
X46100000Y-108999999D01*
X46100000Y-108999999D01*
X46100000Y-108999999D01*
X46100000Y-108999999D01*
X46100000Y-108999999D01*
X46100000Y-108999999D01*
X46100000Y-108999999D01*
X46100000Y-108999999D01*
X46100001Y-108999999D01*
X46100001Y-108999999D01*
X46100001Y-108999999D01*
X46100001Y-108999999D01*
X46100001Y-108999999D01*
X46100001Y-108999999D01*
X46100001Y-109000000D01*
X46100001Y-109000000D01*
X46100001Y-109000000D01*
X46100001Y-109000000D01*
X46100001Y-109000000D01*
X46100001Y-109000000D01*
X46100001Y-109000000D01*
X46100000Y-109000000D01*
X46100000Y-109000000D02*
X46100001Y-109000000D01*
X46100001Y-109000000D01*
X46100001Y-109000000D01*
X46100001Y-109000000D01*
X46100001Y-109000000D01*
X46100001Y-109000000D01*
X46100001Y-109000001D01*
X46100001Y-109000001D01*
X46100001Y-109000001D01*
X46100001Y-109000001D01*
X46100001Y-109000001D01*
X46100001Y-109000001D01*
X46100001Y-109000001D01*
X46100000Y-109000001D01*
X46100000Y-109000001D01*
X46100000Y-109000001D01*
X46100000Y-109000001D01*
X46100000Y-109000001D01*
X46100000Y-109000001D01*
X46100000Y-109000001D01*
X46100000Y-109000001D01*
X46100000Y-109000001D01*
X46100000Y-109000001D01*
X46100000Y-109000001D01*
X46100000Y-109000001D01*
X46099999Y-109000001D01*
X46099999Y-109000001D01*
X46099999Y-109000001D01*
X46099999Y-109000001D01*
X46099999Y-109000001D01*
X46099999Y-109000001D01*
X46099999Y-109000000D01*
X46099999Y-109000000D01*
X46099999Y-109000000D01*
X46099999Y-109000000D01*
X46099999Y-109000000D01*
X46099999Y-109000000D01*
X46100000Y-109000000D01*
D12*
D13*
X46200000Y-109000000D02*
X46199999Y-109000000D01*
X46199999Y-109000000D01*
X46199999Y-109000000D01*
X46199999Y-109000000D01*
X46199999Y-109000000D01*
X46199999Y-109000000D01*
X46199999Y-109000000D01*
X46199999Y-108999999D01*
X46199999Y-108999999D01*
X46199999Y-108999999D01*
X46199999Y-108999999D01*
X46199999Y-108999999D01*
X46200000Y-108999999D01*
X46200000Y-108999999D01*
X46200000Y-108999999D01*
X46200000Y-108999999D01*
X46200000Y-108999999D01*
X46200000Y-108999999D01*
X46200000Y-108999999D01*
X46200000Y-108999999D01*
X46200000Y-108999999D01*
X46200000Y-108999999D01*
X46200000Y-108999999D01*
X46200000Y-108999999D01*
X46200001Y-108999999D01*
X46200001Y-108999999D01*
X46200001Y-108999999D01*
X46200001Y-108999999D01*
X46200001Y-108999999D01*
X46200001Y-108999999D01*
X46200001Y-109000000D01*
X46200001Y-109000000D01*
X46200001Y-109000000D01*
X46200001Y-109000000D01*
X46200001Y-109000000D01*
X46200001Y-109000000D01*
X46200001Y-109000000D01*
X46200000Y-109000000D01*
X46200000Y-109000000D02*
X46200001Y-109000000D01*
X46200001Y-109000000D01*
X46200001Y-109000000D01*
X46200001Y-109000000D01*
X46200001Y-109000000D01*
X46200001Y-109000000D01*
X46200001Y-109000001D01*
X46200001Y-109000001D01*
X46200001Y-109000001D01*
X46200001Y-109000001D01*
X46200001Y-109000001D01*
X46200001Y-109000001D01*
X46200001Y-109000001D01*
X46200000Y-109000001D01*
X46200000Y-109000001D01*
X46200000Y-109000001D01*
X46200000Y-109000001D01*
X46200000Y-109000001D01*
X46200000Y-109000001D01*
X46200000Y-109000001D01*
X46200000Y-109000001D01*
X46200000Y-109000001D01*
X46200000Y-109000001D01*
X46200000Y-109000001D01*
X46200000Y-109000001D01*
X46199999Y-109000001D01*
X46199999Y-109000001D01*
X46199999Y-109000001D01*
X46199999Y-109000001D01*
X46199999Y-109000001D01*
X46199999Y-109000001D01*
X46199999Y-109000000D01*
X46199999Y-109000000D01*
X46199999Y-109000000D01*
X46199999Y-109000000D01*
X46199999Y-109000000D01*
X46199999Y-109000000D01*
X46200000Y-109000000D01*
D12*
X46100000Y-109000000D02*
G75*
G02*
X46200000Y-109000000I50000J0D01*
G01*
X46200000Y-109000000D02*
G75*
G02*
X46100000Y-109000000I-50000J0D01*
G01*
D14*
X47000000Y-122050000D02*
X47000000Y-123050000D01*
X47090000Y-123400000D02*
X47090000Y-124100000D01*
X47090000Y-124100000D02*
X50010000Y-124100000D01*
X50010000Y-123400000D02*
X47090000Y-123400000D01*
X50010000Y-124100000D02*
X50010000Y-123400000D01*
D15*
X54239758Y-111890000D02*
X55060242Y-111890000D01*
X54239758Y-113010000D02*
X55060242Y-113010000D01*
X32880000Y-151530000D02*
X33210000Y-151530000D01*
X32880000Y-158070000D02*
X32880000Y-151530000D01*
X33210000Y-158070000D02*
X32880000Y-158070000D01*
X35290000Y-158070000D02*
X35620000Y-158070000D01*
X35620000Y-151530000D02*
X35290000Y-151530000D01*
X35620000Y-158070000D02*
X35620000Y-151530000D01*
D14*
X30910000Y-113130000D02*
X30910000Y-114400000D01*
X30910000Y-121400000D02*
X30910000Y-122670000D01*
X34990000Y-113130000D02*
X30910000Y-113130000D01*
X34990000Y-122670000D02*
X30910000Y-122670000D01*
X43110000Y-113130000D02*
X39030000Y-113130000D01*
X43110000Y-113130000D02*
X43110000Y-114400000D01*
X43110000Y-121400000D02*
X43110000Y-122670000D01*
X43110000Y-122670000D02*
X39030000Y-122670000D01*
X43710000Y-120500000D02*
G75*
G02*
X43510000Y-120500000I-100000J0D01*
G01*
X43510000Y-120500000D02*
G75*
G02*
X43710000Y-120500000I100000J0D01*
G01*
M02*
