G04 #@! TF.GenerationSoftware,KiCad,Pcbnew,10.0.0*
G04 #@! TF.CreationDate,2026-04-24T13:35:17+02:00*
G04 #@! TF.ProjectId,MCU_board,4d43555f-626f-4617-9264-2e6b69636164,rev?*
G04 #@! TF.SameCoordinates,Original*
G04 #@! TF.FileFunction,Copper,L4,Bot*
G04 #@! TF.FilePolarity,Positive*
%FSLAX46Y46*%
G04 Gerber Fmt 4.6, Leading zero omitted, Abs format (unit mm)*
G04 Created by KiCad (PCBNEW 10.0.0) date 2026-04-24 13:35:17*
%MOMM*%
%LPD*%
G01*
G04 APERTURE LIST*
G04 Aperture macros list*
%AMRoundRect*
0 Rectangle with rounded corners*
0 $1 Rounding radius*
0 $2 $3 $4 $5 $6 $7 $8 $9 X,Y pos of 4 corners*
0 Add a 4 corners polygon primitive as box body*
4,1,4,$2,$3,$4,$5,$6,$7,$8,$9,$2,$3,0*
0 Add four circle primitives for the rounded corners*
1,1,$1+$1,$2,$3*
1,1,$1+$1,$4,$5*
1,1,$1+$1,$6,$7*
1,1,$1+$1,$8,$9*
0 Add four rect primitives between the rounded corners*
20,1,$1+$1,$2,$3,$4,$5,0*
20,1,$1+$1,$4,$5,$6,$7,0*
20,1,$1+$1,$6,$7,$8,$9,0*
20,1,$1+$1,$8,$9,$2,$3,0*%
G04 Aperture macros list end*
G04 #@! TA.AperFunction,ComponentPad*
%ADD10C,1.600000*%
G04 #@! TD*
G04 #@! TA.AperFunction,ComponentPad*
%ADD11C,0.800000*%
G04 #@! TD*
G04 #@! TA.AperFunction,ComponentPad*
%ADD12C,6.400000*%
G04 #@! TD*
G04 #@! TA.AperFunction,ComponentPad*
%ADD13RoundRect,0.249999X-0.850001X0.850001X-0.850001X-0.850001X0.850001X-0.850001X0.850001X0.850001X0*%
G04 #@! TD*
G04 #@! TA.AperFunction,ComponentPad*
%ADD14C,2.200000*%
G04 #@! TD*
G04 #@! TA.AperFunction,ComponentPad*
%ADD15C,1.540000*%
G04 #@! TD*
G04 #@! TA.AperFunction,ComponentPad*
%ADD16RoundRect,0.250000X-0.550000X-0.550000X0.550000X-0.550000X0.550000X0.550000X-0.550000X0.550000X0*%
G04 #@! TD*
G04 #@! TA.AperFunction,ComponentPad*
%ADD17C,2.000000*%
G04 #@! TD*
G04 #@! TA.AperFunction,ComponentPad*
%ADD18RoundRect,0.250000X0.550000X0.550000X-0.550000X0.550000X-0.550000X-0.550000X0.550000X-0.550000X0*%
G04 #@! TD*
G04 #@! TA.AperFunction,ComponentPad*
%ADD19R,1.530000X1.530000*%
G04 #@! TD*
G04 #@! TA.AperFunction,ComponentPad*
%ADD20C,1.530000*%
G04 #@! TD*
G04 #@! TA.AperFunction,SMDPad,CuDef*
%ADD21R,0.280000X0.200000*%
G04 #@! TD*
G04 #@! TA.AperFunction,SMDPad,CuDef*
%ADD22R,0.700000X1.000000*%
G04 #@! TD*
G04 #@! TA.AperFunction,SMDPad,CuDef*
%ADD23RoundRect,0.250000X-0.275000X-0.350000X0.275000X-0.350000X0.275000X0.350000X-0.275000X0.350000X0*%
G04 #@! TD*
G04 #@! TA.AperFunction,SMDPad,CuDef*
%ADD24R,0.940000X0.730000*%
G04 #@! TD*
G04 #@! TA.AperFunction,SMDPad,CuDef*
%ADD25R,2.000000X1.000000*%
G04 #@! TD*
G04 #@! TA.AperFunction,SMDPad,CuDef*
%ADD26R,0.700000X0.500000*%
G04 #@! TD*
G04 #@! TA.AperFunction,ViaPad*
%ADD27C,0.800000*%
G04 #@! TD*
G04 #@! TA.AperFunction,ViaPad*
%ADD28C,0.500000*%
G04 #@! TD*
G04 #@! TA.AperFunction,ViaPad*
%ADD29C,0.600000*%
G04 #@! TD*
G04 #@! TA.AperFunction,Conductor*
%ADD30C,0.500000*%
G04 #@! TD*
G04 #@! TA.AperFunction,Conductor*
%ADD31C,0.200000*%
G04 #@! TD*
G04 #@! TA.AperFunction,Conductor*
%ADD32C,0.300000*%
G04 #@! TD*
G04 #@! TA.AperFunction,Conductor*
%ADD33C,0.400000*%
G04 #@! TD*
G04 #@! TA.AperFunction,Conductor*
%ADD34C,1.000000*%
G04 #@! TD*
G04 APERTURE END LIST*
D10*
X72850000Y-101900000D03*
X75350000Y-101900000D03*
X65800000Y-101850000D03*
X68300000Y-101850000D03*
D11*
X31097056Y-166497056D03*
X31800000Y-164800000D03*
X31800000Y-168194112D03*
X33497056Y-164097056D03*
D12*
X33497056Y-166497056D03*
D11*
X33497056Y-168897056D03*
X35194112Y-164800000D03*
X35194112Y-168194112D03*
X35897056Y-166497056D03*
D13*
X45000000Y-138190000D03*
D14*
X45000000Y-145810000D03*
D10*
X62000000Y-139500000D03*
X62000000Y-142000000D03*
X54000000Y-134500000D03*
X56500000Y-134500000D03*
X95850000Y-118800000D03*
X98350000Y-118800000D03*
D15*
X84750000Y-154750000D03*
X84750000Y-161250000D03*
X80250000Y-154750000D03*
X80250000Y-161250000D03*
D10*
X78250000Y-166500000D03*
X70630000Y-166500000D03*
D11*
X94150000Y-166500000D03*
X94852944Y-164802944D03*
X94852944Y-168197056D03*
X96550000Y-164100000D03*
D12*
X96550000Y-166500000D03*
D11*
X96550000Y-168900000D03*
X98247056Y-164802944D03*
X98247056Y-168197056D03*
X98950000Y-166500000D03*
X31200000Y-103500000D03*
X31902944Y-101802944D03*
X31902944Y-105197056D03*
X33600000Y-101100000D03*
D12*
X33600000Y-103500000D03*
D11*
X33600000Y-105900000D03*
X35297056Y-101802944D03*
X35297056Y-105197056D03*
X36000000Y-103500000D03*
D10*
X93200000Y-114800000D03*
X93200000Y-112300000D03*
X92700000Y-125010000D03*
X92700000Y-117390000D03*
D16*
X78994888Y-120300000D03*
D10*
X81494888Y-120300000D03*
X64000000Y-159690000D03*
X64000000Y-167310000D03*
D17*
X32900000Y-132400000D03*
X32900000Y-126800000D03*
D15*
X84800000Y-120100000D03*
X84800000Y-113600000D03*
X89300000Y-120100000D03*
X89300000Y-113600000D03*
D16*
X37794888Y-140000000D03*
D10*
X40294888Y-140000000D03*
D17*
X32100000Y-109700000D03*
D16*
X60794888Y-134000000D03*
D10*
X63294888Y-134000000D03*
X86350000Y-101590000D03*
X86350000Y-109210000D03*
X55500000Y-146120000D03*
X55500000Y-138500000D03*
X40810000Y-146500000D03*
X33190000Y-146500000D03*
X90190000Y-156000000D03*
X97810000Y-156000000D03*
D11*
X94050000Y-103450000D03*
X94752944Y-101752944D03*
X94752944Y-105147056D03*
X96450000Y-101050000D03*
D12*
X96450000Y-103450000D03*
D11*
X96450000Y-105850000D03*
X98147056Y-101752944D03*
X98147056Y-105147056D03*
X98850000Y-103450000D03*
D10*
X89200000Y-123500000D03*
X86700000Y-123500000D03*
D17*
X46700000Y-102000000D03*
D10*
X48950000Y-138400000D03*
X51450000Y-138400000D03*
D18*
X34205113Y-140500000D03*
D10*
X31705113Y-140500000D03*
D19*
X70500000Y-109555000D03*
D20*
X73040000Y-109555000D03*
X70500000Y-112095000D03*
X73040000Y-112095000D03*
X70500000Y-114635000D03*
X73040000Y-114635000D03*
X70500000Y-117175000D03*
X73040000Y-117175000D03*
X70500000Y-119715000D03*
X73040000Y-119715000D03*
X70500000Y-122255000D03*
X73040000Y-122255000D03*
X70500000Y-124795000D03*
X73040000Y-124795000D03*
X70500000Y-127335000D03*
X73040000Y-127335000D03*
X70500000Y-129875000D03*
X73040000Y-129875000D03*
X70500000Y-132415000D03*
X73040000Y-132415000D03*
X70500000Y-134955000D03*
X73040000Y-134955000D03*
X70500000Y-137495000D03*
X73040000Y-137495000D03*
X70500000Y-140035000D03*
X73040000Y-140035000D03*
X70500000Y-142575000D03*
X73040000Y-142575000D03*
X70500000Y-145115000D03*
X73040000Y-145115000D03*
X70500000Y-147655000D03*
X73040000Y-147655000D03*
X70500000Y-150195000D03*
X73040000Y-150195000D03*
X70500000Y-152735000D03*
X73040000Y-152735000D03*
X70500000Y-155275000D03*
X73040000Y-155275000D03*
X70500000Y-157815000D03*
X73040000Y-157815000D03*
D10*
X97150000Y-115910000D03*
X97150000Y-108290000D03*
D17*
X53700000Y-102100000D03*
D10*
X91200000Y-109260000D03*
X91200000Y-101640000D03*
D17*
X40900000Y-101900000D03*
D21*
X46150000Y-109350000D03*
X46150000Y-109750000D03*
D22*
X47600000Y-122550000D03*
X49500000Y-122550000D03*
X48550000Y-124950000D03*
D23*
X53500000Y-112450000D03*
X55800000Y-112450000D03*
D24*
X46750000Y-115630000D03*
X46750000Y-117050000D03*
D10*
X34250000Y-158610000D03*
X34250000Y-150990000D03*
D22*
X42805000Y-120440000D03*
X42805000Y-117900000D03*
X42805000Y-115360000D03*
D25*
X37010000Y-123200000D03*
D26*
X31215000Y-120090000D03*
D22*
X31215000Y-117900000D03*
X31215000Y-115360000D03*
D25*
X37010000Y-112600000D03*
D26*
X31215000Y-120790000D03*
D27*
X84100000Y-105000000D03*
X87300000Y-153400000D03*
X57750000Y-119450000D03*
X51550000Y-132450000D03*
X44500000Y-132400000D03*
X89750000Y-138350000D03*
X97500000Y-141700000D03*
X58750000Y-149050000D03*
X55450000Y-166350000D03*
X87400000Y-162000000D03*
X98850000Y-126100000D03*
X41500000Y-103850000D03*
X56250000Y-102150000D03*
X93550000Y-160950000D03*
D28*
X35200000Y-122000000D03*
D27*
X86650000Y-166550000D03*
X94350000Y-135050000D03*
X38400000Y-152250000D03*
X57650000Y-124250000D03*
X80750000Y-164500000D03*
X88200000Y-136950000D03*
D28*
X31850000Y-119350000D03*
X39000000Y-110050000D03*
D27*
X61250000Y-145700000D03*
X61900000Y-148150000D03*
D28*
X45150000Y-109150000D03*
D27*
X55850000Y-152650000D03*
X64350000Y-148000000D03*
X49950000Y-121250000D03*
X77800000Y-103250000D03*
X43950000Y-166600000D03*
X46550000Y-118500000D03*
X58150000Y-115950000D03*
X57950000Y-113550000D03*
X89000000Y-131450000D03*
X40250000Y-111050000D03*
X91950000Y-143200000D03*
X91650000Y-168150000D03*
X88400000Y-154400000D03*
D28*
X99250000Y-148500000D03*
D27*
X92600000Y-164900000D03*
X98850000Y-124800000D03*
X55850000Y-119950000D03*
X80900000Y-146150000D03*
X81000000Y-148950000D03*
X64700000Y-161450000D03*
X80850000Y-110250000D03*
X97700000Y-148250000D03*
X98200000Y-130750000D03*
X60400000Y-157850000D03*
X47000000Y-111800000D03*
X66350000Y-137600000D03*
X49650000Y-111000000D03*
X79350000Y-137100000D03*
X88350000Y-148050000D03*
X69650000Y-136200000D03*
X87400000Y-148950000D03*
X79450000Y-135800000D03*
X50700000Y-110300000D03*
X88350000Y-138200000D03*
X74500000Y-134250000D03*
X66500000Y-135950000D03*
X65700000Y-104200000D03*
X86450000Y-150550000D03*
X87300000Y-140400000D03*
X77250000Y-113550000D03*
X82200000Y-149700000D03*
X64850000Y-111950000D03*
D28*
X98800000Y-151700000D03*
D27*
X83050000Y-149100000D03*
D28*
X98750000Y-150550000D03*
D27*
X88050000Y-142550000D03*
D28*
X98800000Y-149500000D03*
D27*
X91150000Y-147200000D03*
X98250000Y-146800000D03*
X89950000Y-143050000D03*
X96250000Y-126150000D03*
X59200000Y-148100000D03*
D28*
X40800000Y-121950000D03*
D27*
X44300000Y-116550000D03*
X42800000Y-119100000D03*
D28*
X34150000Y-121900000D03*
X41050000Y-123950000D03*
D29*
X41800000Y-116650000D03*
D28*
X41350000Y-124900000D03*
X35100000Y-126000000D03*
D27*
X57850000Y-126000000D03*
X98050000Y-139100000D03*
X96450000Y-146950000D03*
D28*
X43550000Y-163700000D03*
D27*
X95100000Y-146750000D03*
D28*
X43550000Y-162600000D03*
D27*
X97000000Y-143200000D03*
X93300000Y-137900000D03*
X82750000Y-143700000D03*
X91200000Y-129750000D03*
D28*
X55400000Y-164650000D03*
D27*
X68100000Y-147550000D03*
X75050000Y-145150000D03*
X88000000Y-126050000D03*
X59950000Y-143800000D03*
D28*
X51100000Y-164800000D03*
D27*
X82450000Y-126150000D03*
X79100000Y-127800000D03*
X77050000Y-130100000D03*
X75600000Y-113250000D03*
X78250000Y-122800000D03*
X81400000Y-156600000D03*
X85400000Y-142250000D03*
X85050000Y-150700000D03*
X83700000Y-142500000D03*
X84050000Y-149950000D03*
X77950000Y-153300000D03*
X59100000Y-144950000D03*
X74250000Y-126450000D03*
D28*
X76450000Y-124500000D03*
X82750000Y-131300000D03*
D27*
X84600000Y-139950000D03*
X74850000Y-143750000D03*
X79000000Y-134800000D03*
X78100000Y-130550000D03*
X82850000Y-135750000D03*
X83550000Y-137050000D03*
X79000000Y-138400000D03*
X78700000Y-132800000D03*
X74650000Y-132250000D03*
X74800000Y-138600000D03*
X78500000Y-141100000D03*
X77550000Y-142150000D03*
X74950000Y-129850000D03*
X84800000Y-147100000D03*
X76950000Y-131650000D03*
X75900000Y-142550000D03*
X75800000Y-131850000D03*
X92400000Y-146950000D03*
X79950000Y-125250000D03*
X93850000Y-141250000D03*
X85600000Y-134100000D03*
X83850000Y-132200000D03*
X94700000Y-140300000D03*
X79000000Y-131800000D03*
X62150000Y-135650000D03*
X96650000Y-132450000D03*
X62000000Y-144550000D03*
X93400000Y-154350000D03*
X57600000Y-144900000D03*
X59200000Y-151900000D03*
X59850000Y-128850000D03*
D28*
X51200000Y-161300000D03*
D30*
X38700000Y-112600000D02*
X40250000Y-111050000D01*
X36400000Y-123200000D02*
X35200000Y-122000000D01*
X37010000Y-112600000D02*
X38700000Y-112600000D01*
X37010000Y-123200000D02*
X36400000Y-123200000D01*
X49500000Y-121700000D02*
X49950000Y-121250000D01*
X46750000Y-118300000D02*
X46550000Y-118500000D01*
X46750000Y-117050000D02*
X46750000Y-118300000D01*
D31*
X46150000Y-109350000D02*
X45350000Y-109350000D01*
X45350000Y-109350000D02*
X45150000Y-109150000D01*
D32*
X31215000Y-119985000D02*
X31850000Y-119350000D01*
D30*
X49500000Y-122550000D02*
X49500000Y-121700000D01*
D32*
X31215000Y-120090000D02*
X31215000Y-119985000D01*
D31*
X91950000Y-144700000D02*
X90250000Y-146400000D01*
X91950000Y-143200000D02*
X91950000Y-144700000D01*
X90250000Y-146400000D02*
X90250000Y-152550000D01*
X90250000Y-152550000D02*
X88400000Y-154400000D01*
X98950000Y-129650000D02*
X99250000Y-129950000D01*
D33*
X34250000Y-159050000D02*
X44050000Y-168850000D01*
D31*
X98050000Y-125600000D02*
X98050000Y-128900000D01*
X98800000Y-129650000D02*
X98950000Y-129650000D01*
X99250000Y-129950000D02*
X99250000Y-148500000D01*
D33*
X80550000Y-168850000D02*
X84500000Y-164900000D01*
D31*
X98850000Y-124800000D02*
X98050000Y-125600000D01*
X98050000Y-128900000D02*
X98800000Y-129650000D01*
D33*
X34250000Y-158610000D02*
X34250000Y-159050000D01*
X44050000Y-168850000D02*
X80550000Y-168850000D01*
X84500000Y-164900000D02*
X92600000Y-164900000D01*
D32*
X48550000Y-130500000D02*
X45000000Y-134050000D01*
X45000000Y-134050000D02*
X45000000Y-138190000D01*
X48550000Y-124950000D02*
X48550000Y-130500000D01*
D30*
X55800000Y-119900000D02*
X55850000Y-119950000D01*
D34*
X55800000Y-112450000D02*
X55800000Y-119900000D01*
D30*
X72180000Y-168050000D02*
X70630000Y-166500000D01*
D32*
X36590000Y-149900000D02*
X33190000Y-146500000D01*
D30*
X97700000Y-153300000D02*
X99250000Y-154850000D01*
D32*
X64700000Y-161450000D02*
X58050000Y-161450000D01*
X58050000Y-161450000D02*
X46500000Y-149900000D01*
D30*
X93300000Y-163550000D02*
X83900000Y-163550000D01*
X79400000Y-168050000D02*
X72180000Y-168050000D01*
X83900000Y-163550000D02*
X79400000Y-168050000D01*
X97700000Y-148250000D02*
X97700000Y-153300000D01*
X99250000Y-154850000D02*
X99250000Y-157600000D01*
X99250000Y-157600000D02*
X93300000Y-163550000D01*
D32*
X46500000Y-149900000D02*
X36590000Y-149900000D01*
X40300000Y-127850000D02*
X43400000Y-127850000D01*
X42400000Y-139700000D02*
X42400000Y-135500000D01*
X50500000Y-114900000D02*
X49200000Y-113600000D01*
X39550000Y-132650000D02*
X39600000Y-132600000D01*
X44400000Y-141700000D02*
X42400000Y-139700000D01*
X43400000Y-127850000D02*
X46450000Y-124800000D01*
X60400000Y-157850000D02*
X58800000Y-157850000D01*
X48800000Y-113600000D02*
X47000000Y-111800000D01*
X39600000Y-132600000D02*
X39600000Y-128550000D01*
X46450000Y-121550000D02*
X50500000Y-117500000D01*
X50500000Y-117500000D02*
X50500000Y-114900000D01*
X49200000Y-113600000D02*
X48800000Y-113600000D01*
X46450000Y-124800000D02*
X46450000Y-121550000D01*
X46950000Y-141700000D02*
X44400000Y-141700000D01*
X42400000Y-135500000D02*
X39550000Y-132650000D01*
X57000000Y-156050000D02*
X57000000Y-153500000D01*
X57050000Y-153450000D02*
X57050000Y-151800000D01*
X57050000Y-151800000D02*
X46950000Y-141700000D01*
X39600000Y-128550000D02*
X40300000Y-127850000D01*
X58800000Y-157850000D02*
X57000000Y-156050000D01*
X57000000Y-153500000D02*
X57050000Y-153450000D01*
X69600000Y-136200000D02*
X68200000Y-137600000D01*
X68200000Y-137600000D02*
X66350000Y-137600000D01*
X88350000Y-143450000D02*
X88900000Y-142900000D01*
X87500000Y-139050000D02*
X81300000Y-139050000D01*
X88900000Y-140450000D02*
X87500000Y-139050000D01*
X81300000Y-139050000D02*
X79350000Y-137100000D01*
X88900000Y-142900000D02*
X88900000Y-140450000D01*
X88350000Y-148050000D02*
X88350000Y-143450000D01*
X69650000Y-136200000D02*
X69600000Y-136200000D01*
X69700000Y-133600000D02*
X68400000Y-133600000D01*
X81850000Y-138200000D02*
X79450000Y-135800000D01*
X66500000Y-135500000D02*
X66500000Y-135950000D01*
X74500000Y-134250000D02*
X73900000Y-133650000D01*
X88350000Y-138200000D02*
X81850000Y-138200000D01*
X73900000Y-133650000D02*
X69750000Y-133650000D01*
X69750000Y-133650000D02*
X69700000Y-133600000D01*
X68400000Y-133600000D02*
X66500000Y-135500000D01*
X86450000Y-147900000D02*
X87300000Y-147050000D01*
X86450000Y-150550000D02*
X86450000Y-147900000D01*
X65700000Y-104200000D02*
X70000000Y-104200000D01*
X77250000Y-111450000D02*
X77250000Y-113550000D01*
X87300000Y-147050000D02*
X87300000Y-140400000D01*
X70000000Y-104200000D02*
X77250000Y-111450000D01*
D31*
X91200000Y-147200000D02*
X91150000Y-147200000D01*
X90550000Y-142500000D02*
X90000000Y-143050000D01*
X93450000Y-142500000D02*
X90550000Y-142500000D01*
X97750000Y-146800000D02*
X93450000Y-142500000D01*
X90000000Y-143050000D02*
X89950000Y-143050000D01*
X98250000Y-146800000D02*
X97750000Y-146800000D01*
X97100000Y-115960000D02*
X97150000Y-115910000D01*
X97100000Y-120650000D02*
X97100000Y-115960000D01*
X96250000Y-126150000D02*
X96250000Y-121500000D01*
X96250000Y-121500000D02*
X97100000Y-120650000D01*
X97100000Y-115550000D02*
X96850000Y-115300000D01*
X61450000Y-148700000D02*
X64300000Y-151550000D01*
X59400000Y-148700000D02*
X61450000Y-148700000D01*
X59200000Y-148500000D02*
X59400000Y-148700000D01*
X59200000Y-148100000D02*
X59200000Y-148500000D01*
X64300000Y-159390000D02*
X64000000Y-159690000D01*
X64300000Y-151550000D02*
X64300000Y-159390000D01*
D32*
X42310000Y-120440000D02*
X40800000Y-121950000D01*
X46750000Y-115630000D02*
X45220000Y-115630000D01*
X45220000Y-115630000D02*
X44300000Y-116550000D01*
X42800000Y-120435000D02*
X42805000Y-120440000D01*
X42800000Y-119100000D02*
X42800000Y-120435000D01*
X42805000Y-120440000D02*
X42310000Y-120440000D01*
X34150000Y-121900000D02*
X34150000Y-117850000D01*
X34150000Y-117850000D02*
X34200000Y-117800000D01*
X33050000Y-116650000D02*
X32505000Y-116650000D01*
X32505000Y-116650000D02*
X31215000Y-115360000D01*
X34200000Y-117800000D02*
X33050000Y-116650000D01*
X41800000Y-116650000D02*
X41800000Y-116365000D01*
X41800000Y-116365000D02*
X42805000Y-115360000D01*
X43050000Y-117900000D02*
X44350000Y-119200000D01*
X44350000Y-121900000D02*
X41350000Y-124900000D01*
X42805000Y-117900000D02*
X43050000Y-117900000D01*
X44350000Y-119200000D02*
X44350000Y-121900000D01*
X35100000Y-126000000D02*
X31215000Y-122115000D01*
X31215000Y-122115000D02*
X31215000Y-120790000D01*
X56800000Y-126000000D02*
X50800000Y-120000000D01*
X49050000Y-120000000D02*
X47600000Y-121450000D01*
X57850000Y-126000000D02*
X56800000Y-126000000D01*
X50800000Y-120000000D02*
X49050000Y-120000000D01*
X47600000Y-121450000D02*
X47600000Y-122550000D01*
D31*
X79900000Y-163700000D02*
X43550000Y-163700000D01*
X96450000Y-154500000D02*
X91250000Y-159700000D01*
X96450000Y-146950000D02*
X96450000Y-154500000D01*
X83900000Y-159700000D02*
X79900000Y-163700000D01*
X91250000Y-159700000D02*
X83900000Y-159700000D01*
X80000000Y-158900000D02*
X76300000Y-162600000D01*
X95100000Y-146750000D02*
X95100000Y-154300000D01*
X76300000Y-162600000D02*
X43550000Y-162600000D01*
X95100000Y-154300000D02*
X90500000Y-158900000D01*
X90500000Y-158900000D02*
X80000000Y-158900000D01*
X75050000Y-145150000D02*
X75050000Y-145400000D01*
X69300000Y-146350000D02*
X68100000Y-147550000D01*
X74100000Y-146350000D02*
X69300000Y-146350000D01*
X75050000Y-145400000D02*
X74100000Y-146350000D01*
X76050000Y-131100000D02*
X70000000Y-131100000D01*
X59750000Y-143600000D02*
X59950000Y-143800000D01*
X63650000Y-137450000D02*
X61400000Y-137450000D01*
X88000000Y-126050000D02*
X82550000Y-126050000D01*
X70000000Y-131100000D02*
X63650000Y-137450000D01*
X61400000Y-137450000D02*
X59750000Y-139100000D01*
X59750000Y-139100000D02*
X59750000Y-143600000D01*
X77050000Y-130100000D02*
X76050000Y-131100000D01*
X82550000Y-126050000D02*
X82450000Y-126150000D01*
X75600000Y-113250000D02*
X74425000Y-113250000D01*
X74425000Y-113250000D02*
X73040000Y-114635000D01*
X78250000Y-122800000D02*
X78250000Y-122650000D01*
X78250000Y-122650000D02*
X76600000Y-121000000D01*
X76600000Y-121000000D02*
X76600000Y-119300000D01*
X74475000Y-117175000D02*
X73040000Y-117175000D01*
X76600000Y-119300000D02*
X74475000Y-117175000D01*
X82500000Y-153250000D02*
X82500000Y-153850000D01*
X81400000Y-154950000D02*
X81400000Y-156600000D01*
X85050000Y-150700000D02*
X82500000Y-153250000D01*
X82500000Y-153850000D02*
X81400000Y-154950000D01*
X84050000Y-149950000D02*
X80700000Y-153300000D01*
X80700000Y-153300000D02*
X77950000Y-153300000D01*
X71750000Y-126800000D02*
X71750000Y-127850000D01*
X67400000Y-131750000D02*
X64750000Y-134400000D01*
X74250000Y-126450000D02*
X73700000Y-125900000D01*
X64750000Y-134400000D02*
X64750000Y-135400000D01*
X68750000Y-129050000D02*
X68400000Y-129050000D01*
X63450000Y-136700000D02*
X61150000Y-136700000D01*
X71050000Y-128650000D02*
X69150000Y-128650000D01*
X73700000Y-125900000D02*
X72650000Y-125900000D01*
X71750000Y-127850000D02*
X71800000Y-127900000D01*
X68400000Y-129050000D02*
X67400000Y-130050000D01*
X61150000Y-136700000D02*
X59100000Y-138750000D01*
X67400000Y-130050000D02*
X67400000Y-131750000D01*
X69150000Y-128650000D02*
X68750000Y-129050000D01*
X71800000Y-127900000D02*
X71050000Y-128650000D01*
X59100000Y-138750000D02*
X59100000Y-144950000D01*
X72650000Y-125900000D02*
X71750000Y-126800000D01*
X64750000Y-135400000D02*
X63450000Y-136700000D01*
D32*
X80550000Y-127900000D02*
X77150000Y-124500000D01*
X80600000Y-127900000D02*
X80550000Y-127900000D01*
X80600000Y-129150000D02*
X80600000Y-127900000D01*
X82750000Y-131300000D02*
X80600000Y-129150000D01*
X77150000Y-124500000D02*
X76450000Y-124500000D01*
D31*
X78100000Y-131750000D02*
X77650000Y-132200000D01*
X77650000Y-132200000D02*
X77650000Y-133650000D01*
X78800000Y-134800000D02*
X79000000Y-134800000D01*
X77650000Y-133650000D02*
X78800000Y-134800000D01*
X78100000Y-130550000D02*
X78100000Y-131750000D01*
X82850000Y-135750000D02*
X82850000Y-134400000D01*
X79200000Y-130400000D02*
X76135000Y-127335000D01*
X82850000Y-134400000D02*
X79200000Y-130750000D01*
X79200000Y-130750000D02*
X79200000Y-130400000D01*
X76135000Y-127335000D02*
X73040000Y-127335000D01*
X84150000Y-133750000D02*
X83250000Y-132850000D01*
X79600000Y-129950000D02*
X79600000Y-129750000D01*
X75400000Y-125550000D02*
X75400000Y-124100000D01*
X84150000Y-136450000D02*
X84150000Y-133750000D01*
X83550000Y-137050000D02*
X84150000Y-136450000D01*
X82500000Y-132850000D02*
X79600000Y-129950000D01*
X79600000Y-129750000D02*
X75400000Y-125550000D01*
X83250000Y-132850000D02*
X82500000Y-132850000D01*
X75400000Y-124100000D02*
X73555000Y-122255000D01*
X73555000Y-122255000D02*
X73040000Y-122255000D01*
X74650000Y-132250000D02*
X75300000Y-132900000D01*
X75300000Y-132900000D02*
X75300000Y-138100000D01*
X75300000Y-138100000D02*
X74800000Y-138600000D01*
X76700000Y-144150000D02*
X79650000Y-147100000D01*
X76950000Y-131650000D02*
X76950000Y-132250000D01*
X76950000Y-132250000D02*
X76700000Y-132500000D01*
X76700000Y-132500000D02*
X76700000Y-144150000D01*
X79650000Y-147100000D02*
X84800000Y-147100000D01*
X75800000Y-131850000D02*
X75800000Y-142450000D01*
X75800000Y-142450000D02*
X75900000Y-142550000D01*
X93850000Y-141250000D02*
X86700000Y-134100000D01*
X86700000Y-134100000D02*
X85600000Y-134100000D01*
X85950000Y-132200000D02*
X83850000Y-132200000D01*
X94700000Y-140300000D02*
X94050000Y-140300000D01*
X94050000Y-140300000D02*
X85950000Y-132200000D01*
D32*
X58150000Y-138500000D02*
X61000000Y-135650000D01*
D31*
X76000000Y-120000000D02*
X74450000Y-118450000D01*
X87050000Y-132250000D02*
X81300000Y-126500000D01*
X81300000Y-126500000D02*
X79950000Y-126500000D01*
X96650000Y-132450000D02*
X96450000Y-132250000D01*
X71775000Y-118450000D02*
X70500000Y-117175000D01*
X74450000Y-118450000D02*
X71775000Y-118450000D01*
D32*
X61000000Y-135650000D02*
X62150000Y-135650000D01*
D31*
X96450000Y-132250000D02*
X87050000Y-132250000D01*
X79950000Y-126500000D02*
X76000000Y-122550000D01*
X76000000Y-122550000D02*
X76000000Y-120000000D01*
D32*
X55500000Y-138500000D02*
X58150000Y-138500000D01*
D31*
X89750000Y-154350000D02*
X88550000Y-155550000D01*
X67700000Y-150250000D02*
X62000000Y-144550000D01*
X69400000Y-154000000D02*
X67700000Y-152300000D01*
X86050000Y-158200000D02*
X79150000Y-158200000D01*
X74950000Y-154000000D02*
X69400000Y-154000000D01*
X93400000Y-154350000D02*
X89750000Y-154350000D01*
X67700000Y-152300000D02*
X67700000Y-150250000D01*
X88550000Y-155700000D02*
X86050000Y-158200000D01*
X79150000Y-158200000D02*
X74950000Y-154000000D01*
X88550000Y-155550000D02*
X88550000Y-155700000D01*
D34*
X72000000Y-107450000D02*
X58550000Y-107450000D01*
D31*
X53500000Y-112450000D02*
X48850000Y-112450000D01*
D34*
X73040000Y-108490000D02*
X72000000Y-107450000D01*
X73040000Y-109555000D02*
X73040000Y-108490000D01*
D31*
X48850000Y-112450000D02*
X46150000Y-109750000D01*
D34*
X58550000Y-107450000D02*
X53550000Y-112450000D01*
X53550000Y-112450000D02*
X53500000Y-112450000D01*
X64400000Y-124300000D02*
X59850000Y-128850000D01*
X64400000Y-118350000D02*
X64400000Y-124300000D01*
X68115000Y-114635000D02*
X64400000Y-118350000D01*
X70500000Y-114635000D02*
X68115000Y-114635000D01*
X59200000Y-151900000D02*
X57600000Y-150300000D01*
X57600000Y-150300000D02*
X57600000Y-144900000D01*
D31*
X34250000Y-154100000D02*
X34250000Y-150990000D01*
X51200000Y-161300000D02*
X41450000Y-161300000D01*
X41450000Y-161300000D02*
X34250000Y-154100000D01*
M02*
