G04 #@! TF.GenerationSoftware,KiCad,Pcbnew,10.0.0*
G04 #@! TF.CreationDate,2026-04-24T13:35:17+02:00*
G04 #@! TF.ProjectId,MCU_board,4d43555f-626f-4617-9264-2e6b69636164,rev?*
G04 #@! TF.SameCoordinates,Original*
G04 #@! TF.FileFunction,Copper,L1,Top*
G04 #@! TF.FilePolarity,Positive*
%FSLAX46Y46*%
G04 Gerber Fmt 4.6, Leading zero omitted, Abs format (unit mm)*
G04 Created by KiCad (PCBNEW 10.0.0) date 2026-04-24 13:35:17*
%MOMM*%
%LPD*%
G01*
G04 APERTURE LIST*
G04 Aperture macros list*
%AMRoundRect*
0 Rectangle with rounded corners*
0 $1 Rounding radius*
0 $2 $3 $4 $5 $6 $7 $8 $9 X,Y pos of 4 corners*
0 Add a 4 corners polygon primitive as box body*
4,1,4,$2,$3,$4,$5,$6,$7,$8,$9,$2,$3,0*
0 Add four circle primitives for the rounded corners*
1,1,$1+$1,$2,$3*
1,1,$1+$1,$4,$5*
1,1,$1+$1,$6,$7*
1,1,$1+$1,$8,$9*
0 Add four rect primitives between the rounded corners*
20,1,$1+$1,$2,$3,$4,$5,0*
20,1,$1+$1,$4,$5,$6,$7,0*
20,1,$1+$1,$6,$7,$8,$9,0*
20,1,$1+$1,$8,$9,$2,$3,0*%
G04 Aperture macros list end*
%ADD10C,0.300000*%
G04 #@! TA.AperFunction,NonConductor*
%ADD11C,0.300000*%
G04 #@! TD*
G04 #@! TA.AperFunction,NonConductor*
%ADD12C,0.200000*%
G04 #@! TD*
G04 #@! TA.AperFunction,ComponentPad*
%ADD13C,1.600000*%
G04 #@! TD*
G04 #@! TA.AperFunction,SMDPad,CuDef*
%ADD14R,1.050000X0.400000*%
G04 #@! TD*
G04 #@! TA.AperFunction,ComponentPad*
%ADD15C,0.800000*%
G04 #@! TD*
G04 #@! TA.AperFunction,ComponentPad*
%ADD16C,6.400000*%
G04 #@! TD*
G04 #@! TA.AperFunction,ComponentPad*
%ADD17RoundRect,0.249999X-0.850001X0.850001X-0.850001X-0.850001X0.850001X-0.850001X0.850001X0.850001X0*%
G04 #@! TD*
G04 #@! TA.AperFunction,ComponentPad*
%ADD18C,2.200000*%
G04 #@! TD*
G04 #@! TA.AperFunction,ComponentPad*
%ADD19C,1.540000*%
G04 #@! TD*
G04 #@! TA.AperFunction,SMDPad,CuDef*
%ADD20R,1.475000X0.450000*%
G04 #@! TD*
G04 #@! TA.AperFunction,ComponentPad*
%ADD21RoundRect,0.250000X-0.550000X-0.550000X0.550000X-0.550000X0.550000X0.550000X-0.550000X0.550000X0*%
G04 #@! TD*
G04 #@! TA.AperFunction,ComponentPad*
%ADD22C,2.000000*%
G04 #@! TD*
G04 #@! TA.AperFunction,SMDPad,CuDef*
%ADD23R,0.500000X2.000000*%
G04 #@! TD*
G04 #@! TA.AperFunction,SMDPad,CuDef*
%ADD24R,2.000000X0.500000*%
G04 #@! TD*
G04 #@! TA.AperFunction,SMDPad,CuDef*
%ADD25R,0.900000X1.500000*%
G04 #@! TD*
G04 #@! TA.AperFunction,SMDPad,CuDef*
%ADD26R,1.500000X0.900000*%
G04 #@! TD*
G04 #@! TA.AperFunction,SMDPad,CuDef*
%ADD27R,0.900000X0.900000*%
G04 #@! TD*
G04 #@! TA.AperFunction,ComponentPad*
%ADD28RoundRect,0.250000X0.550000X0.550000X-0.550000X0.550000X-0.550000X-0.550000X0.550000X-0.550000X0*%
G04 #@! TD*
G04 #@! TA.AperFunction,SMDPad,CuDef*
%ADD29RoundRect,0.100000X0.400000X0.400000X-0.400000X0.400000X-0.400000X-0.400000X0.400000X-0.400000X0*%
G04 #@! TD*
G04 #@! TA.AperFunction,SMDPad,CuDef*
%ADD30RoundRect,0.105000X0.420000X0.995000X-0.420000X0.995000X-0.420000X-0.995000X0.420000X-0.995000X0*%
G04 #@! TD*
G04 #@! TA.AperFunction,ComponentPad*
%ADD31R,1.530000X1.530000*%
G04 #@! TD*
G04 #@! TA.AperFunction,ComponentPad*
%ADD32C,1.530000*%
G04 #@! TD*
G04 #@! TA.AperFunction,SMDPad,CuDef*
%ADD33R,1.300000X0.600000*%
G04 #@! TD*
G04 #@! TA.AperFunction,SMDPad,CuDef*
%ADD34R,0.850000X0.300000*%
G04 #@! TD*
G04 #@! TA.AperFunction,SMDPad,CuDef*
%ADD35R,0.300000X0.850000*%
G04 #@! TD*
G04 #@! TA.AperFunction,SMDPad,CuDef*
%ADD36R,1.250000X1.250000*%
G04 #@! TD*
G04 #@! TA.AperFunction,SMDPad,CuDef*
%ADD37R,1.800000X0.800000*%
G04 #@! TD*
G04 #@! TA.AperFunction,ViaPad*
%ADD38C,0.800000*%
G04 #@! TD*
G04 #@! TA.AperFunction,ViaPad*
%ADD39C,0.500000*%
G04 #@! TD*
G04 #@! TA.AperFunction,ViaPad*
%ADD40C,0.600000*%
G04 #@! TD*
G04 #@! TA.AperFunction,Conductor*
%ADD41C,0.500000*%
G04 #@! TD*
G04 #@! TA.AperFunction,Conductor*
%ADD42C,0.200000*%
G04 #@! TD*
G04 #@! TA.AperFunction,Conductor*
%ADD43C,0.300000*%
G04 #@! TD*
G04 #@! TA.AperFunction,Conductor*
%ADD44C,1.000000*%
G04 #@! TD*
G04 #@! TA.AperFunction,Conductor*
%ADD45C,0.400000*%
G04 #@! TD*
G04 #@! TA.AperFunction,Conductor*
%ADD46C,0.350000*%
G04 #@! TD*
G04 APERTURE END LIST*
D10*
D11*
X108378328Y-104235714D02*
X108378328Y-104521428D01*
X108378328Y-104521428D02*
X108449757Y-104664285D01*
X108449757Y-104664285D02*
X108521185Y-104735714D01*
X108521185Y-104735714D02*
X108735471Y-104878571D01*
X108735471Y-104878571D02*
X109021185Y-104949999D01*
X109021185Y-104949999D02*
X109592614Y-104949999D01*
X109592614Y-104949999D02*
X109735471Y-104878571D01*
X109735471Y-104878571D02*
X109806900Y-104807142D01*
X109806900Y-104807142D02*
X109878328Y-104664285D01*
X109878328Y-104664285D02*
X109878328Y-104378571D01*
X109878328Y-104378571D02*
X109806900Y-104235714D01*
X109806900Y-104235714D02*
X109735471Y-104164285D01*
X109735471Y-104164285D02*
X109592614Y-104092856D01*
X109592614Y-104092856D02*
X109235471Y-104092856D01*
X109235471Y-104092856D02*
X109092614Y-104164285D01*
X109092614Y-104164285D02*
X109021185Y-104235714D01*
X109021185Y-104235714D02*
X108949757Y-104378571D01*
X108949757Y-104378571D02*
X108949757Y-104664285D01*
X108949757Y-104664285D02*
X109021185Y-104807142D01*
X109021185Y-104807142D02*
X109092614Y-104878571D01*
X109092614Y-104878571D02*
X109235471Y-104949999D01*
X109735471Y-103450000D02*
X109806900Y-103378571D01*
X109806900Y-103378571D02*
X109878328Y-103450000D01*
X109878328Y-103450000D02*
X109806900Y-103521428D01*
X109806900Y-103521428D02*
X109735471Y-103450000D01*
X109735471Y-103450000D02*
X109878328Y-103450000D01*
X108878328Y-102092857D02*
X109878328Y-102092857D01*
X108306900Y-102449999D02*
X109378328Y-102807142D01*
X109378328Y-102807142D02*
X109378328Y-101878571D01*
D12*
X96950000Y-100250000D02*
X111586420Y-100250000D01*
X111586420Y-106650000D02*
X96950000Y-106650000D01*
X111000000Y-100250000D02*
X111000000Y-106650000D01*
X111000000Y-100250000D02*
X111586421Y-101376504D01*
X111000000Y-100250000D02*
X110413579Y-101376504D01*
X111000000Y-106650000D02*
X110413579Y-105523496D01*
X111000000Y-106650000D02*
X111586421Y-105523496D01*
D10*
D11*
X99267858Y-173678328D02*
X98410715Y-173678328D01*
X98839286Y-173678328D02*
X98839286Y-172178328D01*
X98839286Y-172178328D02*
X98696429Y-172392614D01*
X98696429Y-172392614D02*
X98553572Y-172535471D01*
X98553572Y-172535471D02*
X98410715Y-172606900D01*
X99910714Y-173535471D02*
X99982143Y-173606900D01*
X99982143Y-173606900D02*
X99910714Y-173678328D01*
X99910714Y-173678328D02*
X99839286Y-173606900D01*
X99839286Y-173606900D02*
X99910714Y-173535471D01*
X99910714Y-173535471D02*
X99910714Y-173678328D01*
X100482143Y-172178328D02*
X101482143Y-172178328D01*
X101482143Y-172178328D02*
X100839286Y-173678328D01*
X102767857Y-172178328D02*
X102053571Y-172178328D01*
X102053571Y-172178328D02*
X101982143Y-172892614D01*
X101982143Y-172892614D02*
X102053571Y-172821185D01*
X102053571Y-172821185D02*
X102196429Y-172749757D01*
X102196429Y-172749757D02*
X102553571Y-172749757D01*
X102553571Y-172749757D02*
X102696429Y-172821185D01*
X102696429Y-172821185D02*
X102767857Y-172892614D01*
X102767857Y-172892614D02*
X102839286Y-173035471D01*
X102839286Y-173035471D02*
X102839286Y-173392614D01*
X102839286Y-173392614D02*
X102767857Y-173535471D01*
X102767857Y-173535471D02*
X102696429Y-173606900D01*
X102696429Y-173606900D02*
X102553571Y-173678328D01*
X102553571Y-173678328D02*
X102196429Y-173678328D01*
X102196429Y-173678328D02*
X102053571Y-173606900D01*
X102053571Y-173606900D02*
X101982143Y-173535471D01*
D12*
X99750000Y-167000000D02*
X99750000Y-175386420D01*
X101500000Y-175386420D02*
X101500000Y-167000000D01*
X99750000Y-174800000D02*
X101500000Y-174800000D01*
X99750000Y-174800000D02*
X100876504Y-174213579D01*
X99750000Y-174800000D02*
X100876504Y-175386421D01*
X101500000Y-174800000D02*
X100373496Y-175386421D01*
X101500000Y-174800000D02*
X100373496Y-174213579D01*
D10*
D11*
X107978328Y-99992856D02*
X107978328Y-100849999D01*
X107978328Y-100421428D02*
X106478328Y-100421428D01*
X106478328Y-100421428D02*
X106692614Y-100564285D01*
X106692614Y-100564285D02*
X106835471Y-100707142D01*
X106835471Y-100707142D02*
X106906900Y-100849999D01*
X107835471Y-99350000D02*
X107906900Y-99278571D01*
X107906900Y-99278571D02*
X107978328Y-99350000D01*
X107978328Y-99350000D02*
X107906900Y-99421428D01*
X107906900Y-99421428D02*
X107835471Y-99350000D01*
X107835471Y-99350000D02*
X107978328Y-99350000D01*
X107121185Y-98421428D02*
X107049757Y-98564285D01*
X107049757Y-98564285D02*
X106978328Y-98635714D01*
X106978328Y-98635714D02*
X106835471Y-98707142D01*
X106835471Y-98707142D02*
X106764042Y-98707142D01*
X106764042Y-98707142D02*
X106621185Y-98635714D01*
X106621185Y-98635714D02*
X106549757Y-98564285D01*
X106549757Y-98564285D02*
X106478328Y-98421428D01*
X106478328Y-98421428D02*
X106478328Y-98135714D01*
X106478328Y-98135714D02*
X106549757Y-97992857D01*
X106549757Y-97992857D02*
X106621185Y-97921428D01*
X106621185Y-97921428D02*
X106764042Y-97849999D01*
X106764042Y-97849999D02*
X106835471Y-97849999D01*
X106835471Y-97849999D02*
X106978328Y-97921428D01*
X106978328Y-97921428D02*
X107049757Y-97992857D01*
X107049757Y-97992857D02*
X107121185Y-98135714D01*
X107121185Y-98135714D02*
X107121185Y-98421428D01*
X107121185Y-98421428D02*
X107192614Y-98564285D01*
X107192614Y-98564285D02*
X107264042Y-98635714D01*
X107264042Y-98635714D02*
X107406900Y-98707142D01*
X107406900Y-98707142D02*
X107692614Y-98707142D01*
X107692614Y-98707142D02*
X107835471Y-98635714D01*
X107835471Y-98635714D02*
X107906900Y-98564285D01*
X107906900Y-98564285D02*
X107978328Y-98421428D01*
X107978328Y-98421428D02*
X107978328Y-98135714D01*
X107978328Y-98135714D02*
X107906900Y-97992857D01*
X107906900Y-97992857D02*
X107835471Y-97921428D01*
X107835471Y-97921428D02*
X107692614Y-97849999D01*
X107692614Y-97849999D02*
X107406900Y-97849999D01*
X107406900Y-97849999D02*
X107264042Y-97921428D01*
X107264042Y-97921428D02*
X107192614Y-97992857D01*
X107192614Y-97992857D02*
X107121185Y-98135714D01*
D12*
X96950000Y-100250000D02*
X109686420Y-100250000D01*
X109686420Y-98450000D02*
X96950000Y-98450000D01*
X109100000Y-100250000D02*
X109100000Y-98450000D01*
X109100000Y-100250000D02*
X108513579Y-99123496D01*
X109100000Y-100250000D02*
X109686421Y-99123496D01*
X109100000Y-98450000D02*
X109686421Y-99576504D01*
X109100000Y-98450000D02*
X108513579Y-99576504D01*
D10*
D11*
X99167858Y-95478328D02*
X98310715Y-95478328D01*
X98739286Y-95478328D02*
X98739286Y-93978328D01*
X98739286Y-93978328D02*
X98596429Y-94192614D01*
X98596429Y-94192614D02*
X98453572Y-94335471D01*
X98453572Y-94335471D02*
X98310715Y-94406900D01*
X99810714Y-95335471D02*
X99882143Y-95406900D01*
X99882143Y-95406900D02*
X99810714Y-95478328D01*
X99810714Y-95478328D02*
X99739286Y-95406900D01*
X99739286Y-95406900D02*
X99810714Y-95335471D01*
X99810714Y-95335471D02*
X99810714Y-95478328D01*
X100382143Y-93978328D02*
X101382143Y-93978328D01*
X101382143Y-93978328D02*
X100739286Y-95478328D01*
X102667857Y-93978328D02*
X101953571Y-93978328D01*
X101953571Y-93978328D02*
X101882143Y-94692614D01*
X101882143Y-94692614D02*
X101953571Y-94621185D01*
X101953571Y-94621185D02*
X102096429Y-94549757D01*
X102096429Y-94549757D02*
X102453571Y-94549757D01*
X102453571Y-94549757D02*
X102596429Y-94621185D01*
X102596429Y-94621185D02*
X102667857Y-94692614D01*
X102667857Y-94692614D02*
X102739286Y-94835471D01*
X102739286Y-94835471D02*
X102739286Y-95192614D01*
X102739286Y-95192614D02*
X102667857Y-95335471D01*
X102667857Y-95335471D02*
X102596429Y-95406900D01*
X102596429Y-95406900D02*
X102453571Y-95478328D01*
X102453571Y-95478328D02*
X102096429Y-95478328D01*
X102096429Y-95478328D02*
X101953571Y-95406900D01*
X101953571Y-95406900D02*
X101882143Y-95335471D01*
D12*
X99650000Y-102950000D02*
X99650000Y-96013580D01*
X101400000Y-96013580D02*
X101400000Y-102950000D01*
X99650000Y-96600000D02*
X101400000Y-96600000D01*
X99650000Y-96600000D02*
X100776504Y-96013579D01*
X99650000Y-96600000D02*
X100776504Y-97186421D01*
X101400000Y-96600000D02*
X100273496Y-97186421D01*
X101400000Y-96600000D02*
X100273496Y-96013579D01*
D10*
D11*
X102678328Y-137189285D02*
X102678328Y-137474999D01*
X102678328Y-137474999D02*
X102749757Y-137617856D01*
X102749757Y-137617856D02*
X102821185Y-137689285D01*
X102821185Y-137689285D02*
X103035471Y-137832142D01*
X103035471Y-137832142D02*
X103321185Y-137903570D01*
X103321185Y-137903570D02*
X103892614Y-137903570D01*
X103892614Y-137903570D02*
X104035471Y-137832142D01*
X104035471Y-137832142D02*
X104106900Y-137760713D01*
X104106900Y-137760713D02*
X104178328Y-137617856D01*
X104178328Y-137617856D02*
X104178328Y-137332142D01*
X104178328Y-137332142D02*
X104106900Y-137189285D01*
X104106900Y-137189285D02*
X104035471Y-137117856D01*
X104035471Y-137117856D02*
X103892614Y-137046427D01*
X103892614Y-137046427D02*
X103535471Y-137046427D01*
X103535471Y-137046427D02*
X103392614Y-137117856D01*
X103392614Y-137117856D02*
X103321185Y-137189285D01*
X103321185Y-137189285D02*
X103249757Y-137332142D01*
X103249757Y-137332142D02*
X103249757Y-137617856D01*
X103249757Y-137617856D02*
X103321185Y-137760713D01*
X103321185Y-137760713D02*
X103392614Y-137832142D01*
X103392614Y-137832142D02*
X103535471Y-137903570D01*
X102678328Y-136546428D02*
X102678328Y-135617856D01*
X102678328Y-135617856D02*
X103249757Y-136117856D01*
X103249757Y-136117856D02*
X103249757Y-135903571D01*
X103249757Y-135903571D02*
X103321185Y-135760714D01*
X103321185Y-135760714D02*
X103392614Y-135689285D01*
X103392614Y-135689285D02*
X103535471Y-135617856D01*
X103535471Y-135617856D02*
X103892614Y-135617856D01*
X103892614Y-135617856D02*
X104035471Y-135689285D01*
X104035471Y-135689285D02*
X104106900Y-135760714D01*
X104106900Y-135760714D02*
X104178328Y-135903571D01*
X104178328Y-135903571D02*
X104178328Y-136332142D01*
X104178328Y-136332142D02*
X104106900Y-136474999D01*
X104106900Y-136474999D02*
X104035471Y-136546428D01*
X104035471Y-134975000D02*
X104106900Y-134903571D01*
X104106900Y-134903571D02*
X104178328Y-134975000D01*
X104178328Y-134975000D02*
X104106900Y-135046428D01*
X104106900Y-135046428D02*
X104035471Y-134975000D01*
X104035471Y-134975000D02*
X104178328Y-134975000D01*
X102678328Y-133974999D02*
X102678328Y-133832142D01*
X102678328Y-133832142D02*
X102749757Y-133689285D01*
X102749757Y-133689285D02*
X102821185Y-133617857D01*
X102821185Y-133617857D02*
X102964042Y-133546428D01*
X102964042Y-133546428D02*
X103249757Y-133474999D01*
X103249757Y-133474999D02*
X103606900Y-133474999D01*
X103606900Y-133474999D02*
X103892614Y-133546428D01*
X103892614Y-133546428D02*
X104035471Y-133617857D01*
X104035471Y-133617857D02*
X104106900Y-133689285D01*
X104106900Y-133689285D02*
X104178328Y-133832142D01*
X104178328Y-133832142D02*
X104178328Y-133974999D01*
X104178328Y-133974999D02*
X104106900Y-134117857D01*
X104106900Y-134117857D02*
X104035471Y-134189285D01*
X104035471Y-134189285D02*
X103892614Y-134260714D01*
X103892614Y-134260714D02*
X103606900Y-134332142D01*
X103606900Y-134332142D02*
X103249757Y-134332142D01*
X103249757Y-134332142D02*
X102964042Y-134260714D01*
X102964042Y-134260714D02*
X102821185Y-134189285D01*
X102821185Y-134189285D02*
X102749757Y-134117857D01*
X102749757Y-134117857D02*
X102678328Y-133974999D01*
X102678328Y-132117857D02*
X102678328Y-132832143D01*
X102678328Y-132832143D02*
X103392614Y-132903571D01*
X103392614Y-132903571D02*
X103321185Y-132832143D01*
X103321185Y-132832143D02*
X103249757Y-132689286D01*
X103249757Y-132689286D02*
X103249757Y-132332143D01*
X103249757Y-132332143D02*
X103321185Y-132189286D01*
X103321185Y-132189286D02*
X103392614Y-132117857D01*
X103392614Y-132117857D02*
X103535471Y-132046428D01*
X103535471Y-132046428D02*
X103892614Y-132046428D01*
X103892614Y-132046428D02*
X104035471Y-132117857D01*
X104035471Y-132117857D02*
X104106900Y-132189286D01*
X104106900Y-132189286D02*
X104178328Y-132332143D01*
X104178328Y-132332143D02*
X104178328Y-132689286D01*
X104178328Y-132689286D02*
X104106900Y-132832143D01*
X104106900Y-132832143D02*
X104035471Y-132903571D01*
D12*
X97050000Y-166500000D02*
X105886420Y-166500000D01*
X105886420Y-103450000D02*
X100150000Y-103450000D01*
X105300000Y-166500000D02*
X105300000Y-103450000D01*
X105300000Y-166500000D02*
X104713579Y-165373496D01*
X105300000Y-166500000D02*
X105886421Y-165373496D01*
X105300000Y-103450000D02*
X105886421Y-104576504D01*
X105300000Y-103450000D02*
X104713579Y-104576504D01*
D10*
D11*
X108878328Y-171242856D02*
X108878328Y-172099999D01*
X108878328Y-171671428D02*
X107378328Y-171671428D01*
X107378328Y-171671428D02*
X107592614Y-171814285D01*
X107592614Y-171814285D02*
X107735471Y-171957142D01*
X107735471Y-171957142D02*
X107806900Y-172099999D01*
X108735471Y-170600000D02*
X108806900Y-170528571D01*
X108806900Y-170528571D02*
X108878328Y-170600000D01*
X108878328Y-170600000D02*
X108806900Y-170671428D01*
X108806900Y-170671428D02*
X108735471Y-170600000D01*
X108735471Y-170600000D02*
X108878328Y-170600000D01*
X108021185Y-169671428D02*
X107949757Y-169814285D01*
X107949757Y-169814285D02*
X107878328Y-169885714D01*
X107878328Y-169885714D02*
X107735471Y-169957142D01*
X107735471Y-169957142D02*
X107664042Y-169957142D01*
X107664042Y-169957142D02*
X107521185Y-169885714D01*
X107521185Y-169885714D02*
X107449757Y-169814285D01*
X107449757Y-169814285D02*
X107378328Y-169671428D01*
X107378328Y-169671428D02*
X107378328Y-169385714D01*
X107378328Y-169385714D02*
X107449757Y-169242857D01*
X107449757Y-169242857D02*
X107521185Y-169171428D01*
X107521185Y-169171428D02*
X107664042Y-169099999D01*
X107664042Y-169099999D02*
X107735471Y-169099999D01*
X107735471Y-169099999D02*
X107878328Y-169171428D01*
X107878328Y-169171428D02*
X107949757Y-169242857D01*
X107949757Y-169242857D02*
X108021185Y-169385714D01*
X108021185Y-169385714D02*
X108021185Y-169671428D01*
X108021185Y-169671428D02*
X108092614Y-169814285D01*
X108092614Y-169814285D02*
X108164042Y-169885714D01*
X108164042Y-169885714D02*
X108306900Y-169957142D01*
X108306900Y-169957142D02*
X108592614Y-169957142D01*
X108592614Y-169957142D02*
X108735471Y-169885714D01*
X108735471Y-169885714D02*
X108806900Y-169814285D01*
X108806900Y-169814285D02*
X108878328Y-169671428D01*
X108878328Y-169671428D02*
X108878328Y-169385714D01*
X108878328Y-169385714D02*
X108806900Y-169242857D01*
X108806900Y-169242857D02*
X108735471Y-169171428D01*
X108735471Y-169171428D02*
X108592614Y-169099999D01*
X108592614Y-169099999D02*
X108306900Y-169099999D01*
X108306900Y-169099999D02*
X108164042Y-169171428D01*
X108164042Y-169171428D02*
X108092614Y-169242857D01*
X108092614Y-169242857D02*
X108021185Y-169385714D01*
D12*
X97050000Y-169700000D02*
X110586420Y-169700000D01*
X110586420Y-171500000D02*
X97050000Y-171500000D01*
X110000000Y-169700000D02*
X110000000Y-171500000D01*
X110000000Y-169700000D02*
X110586421Y-170826504D01*
X110000000Y-169700000D02*
X109413579Y-170826504D01*
X110000000Y-171500000D02*
X109413579Y-170373496D01*
X110000000Y-171500000D02*
X110586421Y-170373496D01*
D13*
X72850000Y-101900000D03*
X75350000Y-101900000D03*
X65800000Y-101850000D03*
X68300000Y-101850000D03*
D14*
X88350000Y-166350000D03*
X88350000Y-167000000D03*
X88350000Y-167650000D03*
X90250000Y-167650000D03*
X90250000Y-167000000D03*
X90250000Y-166350000D03*
D15*
X31097056Y-166497056D03*
X31800000Y-164800000D03*
X31800000Y-168194112D03*
X33497056Y-164097056D03*
D16*
X33497056Y-166497056D03*
D15*
X33497056Y-168897056D03*
X35194112Y-164800000D03*
X35194112Y-168194112D03*
X35897056Y-166497056D03*
D17*
X45000000Y-138190000D03*
D18*
X45000000Y-145810000D03*
D13*
X62000000Y-139500000D03*
X62000000Y-142000000D03*
X54000000Y-134500000D03*
X56500000Y-134500000D03*
X95850000Y-118800000D03*
X98350000Y-118800000D03*
D19*
X84750000Y-154750000D03*
X84750000Y-161250000D03*
X80250000Y-154750000D03*
X80250000Y-161250000D03*
D13*
X78250000Y-166500000D03*
X70630000Y-166500000D03*
D20*
X89662000Y-149050000D03*
X89662000Y-149700000D03*
X89662000Y-150350000D03*
X89662000Y-151000000D03*
X89662000Y-151650000D03*
X89662000Y-152300000D03*
X89662000Y-152950000D03*
X95538000Y-152950000D03*
X95538000Y-152300000D03*
X95538000Y-151650000D03*
X95538000Y-151000000D03*
X95538000Y-150350000D03*
X95538000Y-149700000D03*
X95538000Y-149050000D03*
D15*
X94150000Y-166500000D03*
X94852944Y-164802944D03*
X94852944Y-168197056D03*
X96550000Y-164100000D03*
D16*
X96550000Y-166500000D03*
D15*
X96550000Y-168900000D03*
X98247056Y-164802944D03*
X98247056Y-168197056D03*
X98950000Y-166500000D03*
X31200000Y-103500000D03*
X31902944Y-101802944D03*
X31902944Y-105197056D03*
X33600000Y-101100000D03*
D16*
X33600000Y-103500000D03*
D15*
X33600000Y-105900000D03*
X35297056Y-101802944D03*
X35297056Y-105197056D03*
X36000000Y-103500000D03*
D13*
X93200000Y-114800000D03*
X93200000Y-112300000D03*
X92700000Y-125010000D03*
X92700000Y-117390000D03*
D21*
X78994888Y-120300000D03*
D13*
X81494888Y-120300000D03*
X64000000Y-159690000D03*
X64000000Y-167310000D03*
D22*
X32900000Y-132400000D03*
X32900000Y-126800000D03*
D19*
X84800000Y-120100000D03*
X84800000Y-113600000D03*
X89300000Y-120100000D03*
X89300000Y-113600000D03*
D21*
X37794888Y-140000000D03*
D13*
X40294888Y-140000000D03*
D22*
X32100000Y-109700000D03*
D23*
X57000000Y-106000000D03*
X56000000Y-106000000D03*
X55000000Y-106000000D03*
X54000000Y-106000000D03*
X53000000Y-106000000D03*
X52000000Y-106000000D03*
X51000000Y-106000000D03*
X50000000Y-106000000D03*
X49000000Y-106000000D03*
X48000000Y-106000000D03*
X47000000Y-106000000D03*
X46000000Y-106000000D03*
X45000000Y-106000000D03*
X44000000Y-106000000D03*
X43000000Y-106000000D03*
X42000000Y-106000000D03*
X41000000Y-106000000D03*
D24*
X37000000Y-110000000D03*
X37000000Y-111000000D03*
X37000000Y-112000000D03*
X37000000Y-113000000D03*
X37000000Y-114000000D03*
X37000000Y-115000000D03*
X37000000Y-116000000D03*
X37000000Y-117000000D03*
X37000000Y-118000000D03*
X37000000Y-119000000D03*
X37000000Y-120000000D03*
X37000000Y-121000000D03*
X37000000Y-122000000D03*
X37000000Y-123000000D03*
X37000000Y-124000000D03*
X37000000Y-125000000D03*
X37000000Y-126000000D03*
D23*
X41000000Y-130000000D03*
X42000000Y-130000000D03*
X43000000Y-130000000D03*
X44000000Y-130000000D03*
X45000000Y-130000000D03*
X46000000Y-130000000D03*
X47000000Y-130000000D03*
X48000000Y-130000000D03*
X49000000Y-130000000D03*
X50000000Y-130000000D03*
X51000000Y-130000000D03*
X52000000Y-130000000D03*
X53000000Y-130000000D03*
X54000000Y-130000000D03*
X55000000Y-130000000D03*
X56000000Y-130000000D03*
X57000000Y-130000000D03*
D24*
X61000000Y-126000000D03*
X61000000Y-125000000D03*
X61000000Y-124000000D03*
X61000000Y-123000000D03*
X61000000Y-122000000D03*
X61000000Y-121000000D03*
X61000000Y-120000000D03*
X61000000Y-119000000D03*
X61000000Y-118000000D03*
X61000000Y-117000000D03*
X61000000Y-116000000D03*
X61000000Y-115000000D03*
X61000000Y-114000000D03*
X61000000Y-113000000D03*
X61000000Y-112000000D03*
X61000000Y-111000000D03*
X61000000Y-110000000D03*
D25*
X98760000Y-127805000D03*
X97490000Y-127805000D03*
X96220000Y-127805000D03*
X94950000Y-127805000D03*
X93680000Y-127805000D03*
X92410000Y-127805000D03*
X91140000Y-127805000D03*
X89870000Y-127805000D03*
X88600000Y-127805000D03*
X87330000Y-127805000D03*
X86060000Y-127805000D03*
X84790000Y-127805000D03*
X83520000Y-127805000D03*
X82250000Y-127805000D03*
D26*
X81000000Y-129570000D03*
X81000000Y-130840000D03*
X81000000Y-132110000D03*
X81000000Y-133380000D03*
X81000000Y-134650000D03*
X81000000Y-135920000D03*
X81000000Y-137190000D03*
X81000000Y-138460000D03*
X81000000Y-139730000D03*
X81000000Y-141000000D03*
X81000000Y-142270000D03*
X81000000Y-143540000D03*
D25*
X82250000Y-145305000D03*
X83520000Y-145305000D03*
X84790000Y-145305000D03*
X86060000Y-145305000D03*
X87330000Y-145305000D03*
X88600000Y-145305000D03*
X89870000Y-145305000D03*
X91140000Y-145305000D03*
X92410000Y-145305000D03*
X93680000Y-145305000D03*
X94950000Y-145305000D03*
X96220000Y-145305000D03*
X97490000Y-145305000D03*
X98760000Y-145305000D03*
D27*
X91040000Y-135055000D03*
X92440000Y-135055000D03*
X92440000Y-133655000D03*
X91040000Y-133655000D03*
X89640000Y-133655000D03*
X89640000Y-135055000D03*
X89640000Y-136455000D03*
X91040000Y-136455000D03*
X92440000Y-136455000D03*
D21*
X60794888Y-134000000D03*
D13*
X63294888Y-134000000D03*
X86350000Y-101590000D03*
X86350000Y-109210000D03*
X55500000Y-146120000D03*
X55500000Y-138500000D03*
X40810000Y-146500000D03*
X33190000Y-146500000D03*
X90190000Y-156000000D03*
X97810000Y-156000000D03*
D15*
X94050000Y-103450000D03*
X94752944Y-101752944D03*
X94752944Y-105147056D03*
X96450000Y-101050000D03*
D16*
X96450000Y-103450000D03*
D15*
X96450000Y-105850000D03*
X98147056Y-101752944D03*
X98147056Y-105147056D03*
X98850000Y-103450000D03*
D13*
X89200000Y-123500000D03*
X86700000Y-123500000D03*
D22*
X46700000Y-102000000D03*
D13*
X48950000Y-138400000D03*
X51450000Y-138400000D03*
D28*
X34205113Y-140500000D03*
D13*
X31705113Y-140500000D03*
D29*
X90500000Y-162500000D03*
D30*
X89025000Y-161000000D03*
D29*
X90500000Y-159500000D03*
D30*
X91975000Y-161000000D03*
D31*
X70500000Y-109555000D03*
D32*
X73040000Y-109555000D03*
X70500000Y-112095000D03*
X73040000Y-112095000D03*
X70500000Y-114635000D03*
X73040000Y-114635000D03*
X70500000Y-117175000D03*
X73040000Y-117175000D03*
X70500000Y-119715000D03*
X73040000Y-119715000D03*
X70500000Y-122255000D03*
X73040000Y-122255000D03*
X70500000Y-124795000D03*
X73040000Y-124795000D03*
X70500000Y-127335000D03*
X73040000Y-127335000D03*
X70500000Y-129875000D03*
X73040000Y-129875000D03*
X70500000Y-132415000D03*
X73040000Y-132415000D03*
X70500000Y-134955000D03*
X73040000Y-134955000D03*
X70500000Y-137495000D03*
X73040000Y-137495000D03*
X70500000Y-140035000D03*
X73040000Y-140035000D03*
X70500000Y-142575000D03*
X73040000Y-142575000D03*
X70500000Y-145115000D03*
X73040000Y-145115000D03*
X70500000Y-147655000D03*
X73040000Y-147655000D03*
X70500000Y-150195000D03*
X73040000Y-150195000D03*
X70500000Y-152735000D03*
X73040000Y-152735000D03*
X70500000Y-155275000D03*
X73040000Y-155275000D03*
X70500000Y-157815000D03*
X73040000Y-157815000D03*
D33*
X96250000Y-122950000D03*
X96250000Y-124850000D03*
X98350000Y-123900000D03*
D29*
X80450000Y-106500000D03*
D30*
X78975000Y-105000000D03*
D29*
X80450000Y-103500000D03*
D30*
X81925000Y-105000000D03*
D13*
X97150000Y-115910000D03*
X97150000Y-108290000D03*
D22*
X53700000Y-102100000D03*
D34*
X60300000Y-147800000D03*
X60300000Y-148300000D03*
X60300000Y-148800000D03*
X60300000Y-149300000D03*
D35*
X61000000Y-150000000D03*
X61500000Y-150000000D03*
X62000000Y-150000000D03*
X62500000Y-150000000D03*
D34*
X63200000Y-149300000D03*
X63200000Y-148800000D03*
X63200000Y-148300000D03*
X63200000Y-147800000D03*
D35*
X62500000Y-147100000D03*
X62000000Y-147100000D03*
X61500000Y-147100000D03*
X61000000Y-147100000D03*
D36*
X61750000Y-148550000D03*
D29*
X83500000Y-168000000D03*
D30*
X82025000Y-166500000D03*
D29*
X83500000Y-165000000D03*
D30*
X84975000Y-166500000D03*
D37*
X53000000Y-167000000D03*
X53000000Y-165900000D03*
X53000000Y-164800000D03*
X53000000Y-163700000D03*
X53000000Y-162600000D03*
X53000000Y-161500000D03*
X53000000Y-160400000D03*
X53000000Y-157400000D03*
X53000000Y-156300000D03*
X53000000Y-155200000D03*
X53000000Y-154100000D03*
X53000000Y-153000000D03*
X41000000Y-153000000D03*
X41000000Y-154100000D03*
X41000000Y-155200000D03*
X41000000Y-156300000D03*
X41000000Y-157400000D03*
X41000000Y-160400000D03*
X41000000Y-161500000D03*
X41000000Y-162600000D03*
X41000000Y-163700000D03*
X41000000Y-164800000D03*
X41000000Y-165900000D03*
X41000000Y-167000000D03*
D13*
X91200000Y-109260000D03*
X91200000Y-101640000D03*
D22*
X40900000Y-101900000D03*
D13*
X34250000Y-158610000D03*
X34250000Y-150990000D03*
D38*
X84100000Y-105000000D03*
X87300000Y-153400000D03*
X57750000Y-119450000D03*
X51550000Y-132450000D03*
X44500000Y-132400000D03*
X89750000Y-138350000D03*
X97500000Y-141700000D03*
X58750000Y-149050000D03*
X55450000Y-166350000D03*
X87400000Y-162000000D03*
X98850000Y-126100000D03*
X41500000Y-103850000D03*
X56250000Y-102150000D03*
X93550000Y-160950000D03*
D39*
X35200000Y-122000000D03*
D38*
X86650000Y-166550000D03*
X94350000Y-135050000D03*
X38400000Y-152250000D03*
X57650000Y-124250000D03*
X80750000Y-164500000D03*
X88200000Y-136950000D03*
D39*
X31850000Y-119350000D03*
X39000000Y-110050000D03*
D38*
X61250000Y-145700000D03*
X61900000Y-148150000D03*
D39*
X45150000Y-109150000D03*
D38*
X55850000Y-152650000D03*
X64350000Y-148000000D03*
X49950000Y-121250000D03*
X77800000Y-103250000D03*
X43950000Y-166600000D03*
X46550000Y-118500000D03*
X58150000Y-115950000D03*
X57950000Y-113550000D03*
X89000000Y-131450000D03*
X40250000Y-111050000D03*
X91950000Y-143200000D03*
X91650000Y-168150000D03*
X88400000Y-154400000D03*
D39*
X99250000Y-148500000D03*
D38*
X92600000Y-164900000D03*
X98850000Y-124800000D03*
X55850000Y-119950000D03*
X80900000Y-146150000D03*
X81000000Y-148950000D03*
X64700000Y-161450000D03*
X80850000Y-110250000D03*
X97700000Y-148250000D03*
X98200000Y-130750000D03*
X60400000Y-157850000D03*
X47000000Y-111800000D03*
X66350000Y-137600000D03*
X49650000Y-111000000D03*
X79350000Y-137100000D03*
X88350000Y-148050000D03*
X69650000Y-136200000D03*
X87400000Y-148950000D03*
X79450000Y-135800000D03*
X50700000Y-110300000D03*
X88350000Y-138200000D03*
X74500000Y-134250000D03*
X66500000Y-135950000D03*
X65700000Y-104200000D03*
X86450000Y-150550000D03*
X87300000Y-140400000D03*
X77250000Y-113550000D03*
X82200000Y-149700000D03*
X64850000Y-111950000D03*
D39*
X98800000Y-151700000D03*
D38*
X83050000Y-149100000D03*
D39*
X98750000Y-150550000D03*
D38*
X88050000Y-142550000D03*
D39*
X98800000Y-149500000D03*
D38*
X91150000Y-147200000D03*
X98250000Y-146800000D03*
X89950000Y-143050000D03*
X96250000Y-126150000D03*
X59200000Y-148100000D03*
D39*
X40800000Y-121950000D03*
D38*
X44300000Y-116550000D03*
X42800000Y-119100000D03*
D39*
X34150000Y-121900000D03*
X41050000Y-123950000D03*
D40*
X41800000Y-116650000D03*
D39*
X41350000Y-124900000D03*
X35100000Y-126000000D03*
D38*
X57850000Y-126000000D03*
X98050000Y-139100000D03*
X96450000Y-146950000D03*
D39*
X43550000Y-163700000D03*
D38*
X95100000Y-146750000D03*
D39*
X43550000Y-162600000D03*
D38*
X97000000Y-143200000D03*
X93300000Y-137900000D03*
X82750000Y-143700000D03*
X91200000Y-129750000D03*
D39*
X55400000Y-164650000D03*
D38*
X68100000Y-147550000D03*
X75050000Y-145150000D03*
X88000000Y-126050000D03*
X59950000Y-143800000D03*
D39*
X51100000Y-164800000D03*
D38*
X82450000Y-126150000D03*
X79100000Y-127800000D03*
X77050000Y-130100000D03*
X75600000Y-113250000D03*
X78250000Y-122800000D03*
X81400000Y-156600000D03*
X85400000Y-142250000D03*
X85050000Y-150700000D03*
X83700000Y-142500000D03*
X84050000Y-149950000D03*
X77950000Y-153300000D03*
X59100000Y-144950000D03*
X74250000Y-126450000D03*
D39*
X76450000Y-124500000D03*
X82750000Y-131300000D03*
D38*
X84600000Y-139950000D03*
X74850000Y-143750000D03*
X79000000Y-134800000D03*
X78100000Y-130550000D03*
X82850000Y-135750000D03*
X83550000Y-137050000D03*
X79000000Y-138400000D03*
X78700000Y-132800000D03*
X74650000Y-132250000D03*
X74800000Y-138600000D03*
X78500000Y-141100000D03*
X77550000Y-142150000D03*
X74950000Y-129850000D03*
X84800000Y-147100000D03*
X76950000Y-131650000D03*
X75900000Y-142550000D03*
X75800000Y-131850000D03*
X92400000Y-146950000D03*
X79950000Y-125250000D03*
X93850000Y-141250000D03*
X85600000Y-134100000D03*
X83850000Y-132200000D03*
X94700000Y-140300000D03*
X79000000Y-131800000D03*
X62150000Y-135650000D03*
X96650000Y-132450000D03*
X62000000Y-144550000D03*
X93400000Y-154350000D03*
X57600000Y-144900000D03*
X59200000Y-151900000D03*
X59850000Y-128850000D03*
D39*
X51200000Y-161300000D03*
D41*
X78975000Y-105000000D02*
X78975000Y-104425000D01*
D42*
X60300000Y-148800000D02*
X59650000Y-148800000D01*
D41*
X89640000Y-135055000D02*
X88595000Y-135055000D01*
X98760000Y-142960000D02*
X97500000Y-141700000D01*
X55850000Y-154050000D02*
X55850000Y-152650000D01*
D43*
X61000000Y-116000000D02*
X58200000Y-116000000D01*
D41*
X91050000Y-158950000D02*
X92600000Y-158950000D01*
X92440000Y-133655000D02*
X92955000Y-133655000D01*
X91040000Y-133655000D02*
X91040000Y-133490000D01*
X86600000Y-166500000D02*
X86650000Y-166550000D01*
X61750000Y-148550000D02*
X61750000Y-148300000D01*
X91975000Y-161000000D02*
X93500000Y-161000000D01*
D43*
X61000000Y-115000000D02*
X59100000Y-115000000D01*
D41*
X90500000Y-159500000D02*
X91050000Y-158950000D01*
D43*
X52000000Y-130000000D02*
X52000000Y-132000000D01*
D42*
X61500000Y-145950000D02*
X61250000Y-145700000D01*
D43*
X41000000Y-104350000D02*
X41500000Y-103850000D01*
D41*
X91040000Y-136455000D02*
X91040000Y-137060000D01*
X55500000Y-153000000D02*
X55850000Y-152650000D01*
D43*
X56000000Y-102400000D02*
X56250000Y-102150000D01*
X56000000Y-106000000D02*
X56000000Y-102400000D01*
X52000000Y-132000000D02*
X51550000Y-132450000D01*
D41*
X94345000Y-135055000D02*
X94350000Y-135050000D01*
D43*
X57900000Y-124000000D02*
X57650000Y-124250000D01*
D41*
X88595000Y-135055000D02*
X88200000Y-135450000D01*
X93500000Y-161000000D02*
X93550000Y-160950000D01*
D42*
X63200000Y-148300000D02*
X64050000Y-148300000D01*
D43*
X59200000Y-117000000D02*
X58150000Y-115950000D01*
D41*
X82025000Y-165775000D02*
X80750000Y-164500000D01*
D43*
X61000000Y-119000000D02*
X58200000Y-119000000D01*
D41*
X43550000Y-167000000D02*
X43950000Y-166600000D01*
D43*
X36200000Y-121000000D02*
X35200000Y-122000000D01*
D41*
X88400000Y-161000000D02*
X87400000Y-162000000D01*
X84975000Y-166500000D02*
X86600000Y-166500000D01*
D42*
X59650000Y-148800000D02*
X59350000Y-149100000D01*
D43*
X58200000Y-119000000D02*
X57750000Y-119450000D01*
D42*
X87100000Y-167000000D02*
X86650000Y-166550000D01*
D41*
X98760000Y-145305000D02*
X98760000Y-142960000D01*
X89640000Y-132090000D02*
X89000000Y-131450000D01*
X83000000Y-164500000D02*
X80750000Y-164500000D01*
D43*
X58400000Y-114000000D02*
X57950000Y-113550000D01*
D41*
X78050000Y-103500000D02*
X77800000Y-103250000D01*
D43*
X61000000Y-113000000D02*
X58500000Y-113000000D01*
X37000000Y-121000000D02*
X36200000Y-121000000D01*
D44*
X98760000Y-127805000D02*
X98760000Y-126190000D01*
D43*
X37000000Y-110000000D02*
X38950000Y-110000000D01*
X51000000Y-130000000D02*
X51000000Y-131900000D01*
D42*
X59350000Y-149100000D02*
X58800000Y-149100000D01*
D41*
X91040000Y-133490000D02*
X89000000Y-131450000D01*
D43*
X45000000Y-131900000D02*
X44500000Y-132400000D01*
D41*
X41000000Y-153000000D02*
X39150000Y-153000000D01*
X92600000Y-158950000D02*
X93550000Y-159900000D01*
D43*
X61000000Y-114000000D02*
X58400000Y-114000000D01*
D41*
X53000000Y-155200000D02*
X54700000Y-155200000D01*
X82025000Y-166500000D02*
X82025000Y-165775000D01*
D43*
X58500000Y-113000000D02*
X57950000Y-113550000D01*
D41*
X88695000Y-136455000D02*
X88200000Y-136950000D01*
D43*
X58300000Y-120000000D02*
X57750000Y-119450000D01*
D41*
X92945000Y-136455000D02*
X94350000Y-135050000D01*
X91040000Y-135055000D02*
X89640000Y-135055000D01*
X88200000Y-135450000D02*
X88200000Y-136950000D01*
D43*
X61000000Y-120000000D02*
X58300000Y-120000000D01*
D41*
X89640000Y-133655000D02*
X89640000Y-132090000D01*
X80450000Y-103500000D02*
X78050000Y-103500000D01*
D45*
X87750000Y-152950000D02*
X87300000Y-153400000D01*
D41*
X61750000Y-148300000D02*
X61900000Y-148150000D01*
X39150000Y-153000000D02*
X38400000Y-152250000D01*
D42*
X61500000Y-147100000D02*
X61500000Y-145950000D01*
D41*
X91040000Y-137060000D02*
X89750000Y-138350000D01*
X91040000Y-135055000D02*
X91040000Y-133655000D01*
D43*
X38950000Y-110000000D02*
X39000000Y-110050000D01*
X58200000Y-116000000D02*
X58150000Y-115950000D01*
D41*
X89640000Y-136455000D02*
X88695000Y-136455000D01*
D45*
X61000000Y-124000000D02*
X57900000Y-124000000D01*
D41*
X93550000Y-159900000D02*
X93550000Y-160950000D01*
D43*
X45000000Y-130000000D02*
X45000000Y-131900000D01*
X41000000Y-106000000D02*
X41000000Y-104350000D01*
D41*
X91040000Y-135055000D02*
X91040000Y-136455000D01*
D42*
X58800000Y-149100000D02*
X58750000Y-149050000D01*
D41*
X91040000Y-135055000D02*
X92440000Y-135055000D01*
X53000000Y-165900000D02*
X55000000Y-165900000D01*
X92440000Y-136455000D02*
X92945000Y-136455000D01*
D42*
X88350000Y-167000000D02*
X87100000Y-167000000D01*
D41*
X92955000Y-133655000D02*
X94350000Y-135050000D01*
X54700000Y-155200000D02*
X55850000Y-154050000D01*
X53000000Y-153000000D02*
X55500000Y-153000000D01*
D43*
X51000000Y-131900000D02*
X51550000Y-132450000D01*
D41*
X92440000Y-135055000D02*
X94345000Y-135055000D01*
D42*
X64050000Y-148300000D02*
X64350000Y-148000000D01*
D45*
X89662000Y-152950000D02*
X87750000Y-152950000D01*
D43*
X59100000Y-115000000D02*
X58150000Y-115950000D01*
D41*
X55000000Y-165900000D02*
X55450000Y-166350000D01*
X41000000Y-167000000D02*
X43550000Y-167000000D01*
X83500000Y-165000000D02*
X83000000Y-164500000D01*
X78975000Y-104425000D02*
X77800000Y-103250000D01*
D44*
X98760000Y-126190000D02*
X98850000Y-126100000D01*
D43*
X61000000Y-117000000D02*
X59200000Y-117000000D01*
D41*
X89025000Y-161000000D02*
X88400000Y-161000000D01*
X81925000Y-105000000D02*
X84100000Y-105000000D01*
D46*
X86400000Y-101640000D02*
X86350000Y-101590000D01*
X91200000Y-101640000D02*
X86400000Y-101640000D01*
X75660000Y-101590000D02*
X75350000Y-101900000D01*
X86350000Y-101590000D02*
X75660000Y-101590000D01*
X66250000Y-113900000D02*
X66250000Y-108300000D01*
X82700000Y-110300000D02*
X82700000Y-110350000D01*
X82700000Y-110350000D02*
X83250000Y-110900000D01*
X75200000Y-108750000D02*
X81150000Y-108750000D01*
X68300000Y-101850000D02*
X75200000Y-108750000D01*
X68300000Y-106250000D02*
X68300000Y-101850000D01*
X66250000Y-108300000D02*
X68300000Y-106250000D01*
X83250000Y-110900000D02*
X89560000Y-110900000D01*
X61000000Y-118000000D02*
X62150000Y-118000000D01*
X89560000Y-110900000D02*
X91200000Y-109260000D01*
X81150000Y-108750000D02*
X82700000Y-110300000D01*
X62150000Y-118000000D02*
X66250000Y-113900000D01*
D45*
X90500000Y-162500000D02*
X90500000Y-163000000D01*
D46*
X88350000Y-165150000D02*
X88350000Y-166350000D01*
X90500000Y-163000000D02*
X88350000Y-165150000D01*
X88350000Y-167650000D02*
X88000000Y-168000000D01*
X88000000Y-168000000D02*
X83500000Y-168000000D01*
D42*
X89600000Y-130800000D02*
X94050000Y-130800000D01*
X94050000Y-130800000D02*
X95850000Y-132600000D01*
X95850000Y-132600000D02*
X95850000Y-138050000D01*
X88600000Y-129800000D02*
X89600000Y-130800000D01*
X88600000Y-127805000D02*
X88600000Y-129800000D01*
X91150000Y-167650000D02*
X90250000Y-167650000D01*
X95850000Y-138050000D02*
X91950000Y-141950000D01*
X91950000Y-141950000D02*
X91950000Y-143200000D01*
X91650000Y-168150000D02*
X91150000Y-167650000D01*
D46*
X50200000Y-155100000D02*
X51200000Y-154100000D01*
X50200000Y-167150000D02*
X50200000Y-155100000D01*
X91800000Y-169250000D02*
X52400000Y-169250000D01*
X92700000Y-168350000D02*
X91800000Y-169250000D01*
X92300000Y-166500000D02*
X92700000Y-166900000D01*
X51200000Y-154100000D02*
X53000000Y-154100000D01*
X52400000Y-169250000D02*
X50300000Y-167150000D01*
X92700000Y-166900000D02*
X92700000Y-168350000D01*
X90250000Y-167000000D02*
X91350000Y-167000000D01*
X91850000Y-166500000D02*
X92300000Y-166500000D01*
X91350000Y-167000000D02*
X91850000Y-166500000D01*
X50300000Y-167150000D02*
X50200000Y-167150000D01*
D42*
X98850000Y-124400000D02*
X98850000Y-124800000D01*
X98350000Y-123900000D02*
X98850000Y-124400000D01*
D45*
X37990000Y-164800000D02*
X41000000Y-164800000D01*
X90250000Y-166350000D02*
X91700000Y-164900000D01*
X37990000Y-162350000D02*
X34250000Y-158610000D01*
D42*
X95850000Y-119100000D02*
X98350000Y-121600000D01*
D45*
X37990000Y-164800000D02*
X37990000Y-162350000D01*
D42*
X99400000Y-156800000D02*
X92600000Y-163600000D01*
D45*
X91700000Y-164900000D02*
X92600000Y-164900000D01*
D42*
X99250000Y-149000000D02*
X99400000Y-149150000D01*
X95850000Y-118800000D02*
X95850000Y-119100000D01*
X92600000Y-163600000D02*
X92600000Y-164900000D01*
X98350000Y-121600000D02*
X98350000Y-123900000D01*
D45*
X37990000Y-164800000D02*
X39090000Y-165900000D01*
D42*
X99250000Y-148500000D02*
X99250000Y-149000000D01*
X99400000Y-149150000D02*
X99400000Y-156800000D01*
D45*
X39090000Y-165900000D02*
X41000000Y-165900000D01*
D42*
X44310000Y-146500000D02*
X45000000Y-145810000D01*
X40810000Y-146500000D02*
X44310000Y-146500000D01*
D44*
X60794888Y-134000000D02*
X60794888Y-131294888D01*
X62000000Y-139500000D02*
X59050000Y-136550000D01*
D41*
X61000000Y-123000000D02*
X55850000Y-123000000D01*
D44*
X37794888Y-139305112D02*
X43250000Y-133850000D01*
X56050000Y-136550000D02*
X54000000Y-134500000D01*
D43*
X55900000Y-121000000D02*
X55850000Y-121050000D01*
D44*
X55850000Y-119950000D02*
X55850000Y-121050000D01*
D43*
X59050000Y-136550000D02*
X58950000Y-136550000D01*
X34705113Y-140000000D02*
X34205113Y-140500000D01*
X60794888Y-134000000D02*
X60794888Y-134705112D01*
D44*
X50000000Y-133050000D02*
X51450000Y-134500000D01*
X46950000Y-133850000D02*
X47750000Y-133050000D01*
D41*
X61000000Y-121000000D02*
X55900000Y-121000000D01*
D43*
X37794888Y-140000000D02*
X37794888Y-139305112D01*
D44*
X55850000Y-122000000D02*
X55850000Y-123000000D01*
X43250000Y-133850000D02*
X46950000Y-133850000D01*
X58950000Y-136550000D02*
X56050000Y-136550000D01*
X51450000Y-134500000D02*
X54000000Y-134500000D01*
X60794888Y-131294888D02*
X55850000Y-126350000D01*
X37794888Y-140000000D02*
X34705113Y-140000000D01*
X55850000Y-121050000D02*
X55850000Y-122000000D01*
X55850000Y-126350000D02*
X55850000Y-123150000D01*
X60794888Y-134705112D02*
X58950000Y-136550000D01*
D41*
X61000000Y-122000000D02*
X55850000Y-122000000D01*
D44*
X55850000Y-123000000D02*
X55850000Y-123150000D01*
X47750000Y-133050000D02*
X50000000Y-133050000D01*
D42*
X81000000Y-154000000D02*
X80250000Y-154750000D01*
X82250000Y-145305000D02*
X81745000Y-145305000D01*
X81000000Y-148950000D02*
X81000000Y-154000000D01*
X81745000Y-145305000D02*
X80900000Y-146150000D01*
D41*
X82944888Y-121750000D02*
X81494888Y-120300000D01*
X96250000Y-124850000D02*
X93150000Y-121750000D01*
D44*
X80850000Y-119655112D02*
X80850000Y-110250000D01*
D43*
X66330000Y-162200000D02*
X66330000Y-162180000D01*
D45*
X80850000Y-110250000D02*
X82550000Y-111950000D01*
D41*
X97490000Y-130040000D02*
X98200000Y-130750000D01*
D45*
X90550000Y-111950000D02*
X92100000Y-110400000D01*
D44*
X81494888Y-120300000D02*
X80850000Y-119655112D01*
D41*
X97490000Y-126090000D02*
X96250000Y-124850000D01*
D44*
X81694888Y-120500000D02*
X81494888Y-120300000D01*
D41*
X84950000Y-121750000D02*
X82944888Y-121750000D01*
X97700000Y-148250000D02*
X96900000Y-149050000D01*
D43*
X70630000Y-166500000D02*
X66330000Y-162200000D01*
D45*
X86700000Y-123500000D02*
X84950000Y-121750000D01*
D43*
X65600000Y-161450000D02*
X64700000Y-161450000D01*
D45*
X82550000Y-111950000D02*
X90550000Y-111950000D01*
D41*
X97490000Y-127805000D02*
X97490000Y-130040000D01*
D45*
X95040000Y-110400000D02*
X97150000Y-108290000D01*
X92100000Y-110400000D02*
X95040000Y-110400000D01*
D41*
X93150000Y-121750000D02*
X84950000Y-121750000D01*
X96900000Y-149050000D02*
X95538000Y-149050000D01*
D43*
X66330000Y-162180000D02*
X65600000Y-161450000D01*
D41*
X97490000Y-127805000D02*
X97490000Y-126090000D01*
D43*
X67800000Y-157850000D02*
X60400000Y-157850000D01*
X90190000Y-156000000D02*
X87490000Y-158700000D01*
X43000000Y-107800000D02*
X43000000Y-106000000D01*
X43000000Y-103100000D02*
X44100000Y-102000000D01*
X43000000Y-106000000D02*
X43000000Y-103100000D01*
X92250000Y-149700000D02*
X92250000Y-153940000D01*
X92250000Y-153940000D02*
X90190000Y-156000000D01*
X44100000Y-102000000D02*
X46700000Y-102000000D01*
X89662000Y-149050000D02*
X91600000Y-149050000D01*
X91600000Y-149050000D02*
X92250000Y-149700000D01*
X78350000Y-160950000D02*
X70900000Y-160950000D01*
X47000000Y-111800000D02*
X43000000Y-107800000D01*
X80600000Y-158700000D02*
X78350000Y-160950000D01*
X70900000Y-160950000D02*
X67800000Y-157850000D01*
X87490000Y-158700000D02*
X80600000Y-158700000D01*
X48000000Y-106000000D02*
X48000000Y-109350000D01*
X48000000Y-109350000D02*
X49650000Y-111000000D01*
X89662000Y-149700000D02*
X88600000Y-149700000D01*
X88350000Y-149450000D02*
X88350000Y-148050000D01*
X88600000Y-149700000D02*
X88350000Y-149450000D01*
X88000000Y-150350000D02*
X87400000Y-149750000D01*
X89662000Y-150350000D02*
X88000000Y-150350000D01*
X49000000Y-106000000D02*
X49000000Y-108600000D01*
X49000000Y-108600000D02*
X50700000Y-110300000D01*
X87400000Y-149750000D02*
X87400000Y-148950000D01*
X58800000Y-104200000D02*
X65700000Y-104200000D01*
X57000000Y-106000000D02*
X58800000Y-104200000D01*
X86900000Y-151000000D02*
X86450000Y-150550000D01*
X89662000Y-151000000D02*
X86900000Y-151000000D01*
X84300000Y-151800000D02*
X82200000Y-149700000D01*
X88000000Y-151650000D02*
X87850000Y-151800000D01*
X61000000Y-112000000D02*
X64800000Y-112000000D01*
X64800000Y-112000000D02*
X64850000Y-111950000D01*
X89662000Y-151650000D02*
X88000000Y-151650000D01*
X87850000Y-151800000D02*
X84300000Y-151800000D01*
D42*
X95538000Y-152950000D02*
X97810000Y-155222000D01*
X97810000Y-155222000D02*
X97810000Y-156000000D01*
D43*
X83050000Y-149100000D02*
X85600000Y-149100000D01*
X85600000Y-149100000D02*
X88600000Y-146100000D01*
X88600000Y-146100000D02*
X88600000Y-145305000D01*
X95538000Y-151650000D02*
X98750000Y-151650000D01*
X98750000Y-151650000D02*
X98800000Y-151700000D01*
D42*
X95538000Y-151000000D02*
X98300000Y-151000000D01*
X98300000Y-151000000D02*
X98750000Y-150550000D01*
D43*
X87330000Y-145305000D02*
X87350000Y-145285000D01*
X87350000Y-145285000D02*
X87350000Y-143250000D01*
X87350000Y-143250000D02*
X88050000Y-142550000D01*
X87300000Y-145275000D02*
X87330000Y-145305000D01*
D42*
X91150000Y-145315000D02*
X91140000Y-145305000D01*
X98800000Y-149500000D02*
X97950000Y-150350000D01*
X91150000Y-147200000D02*
X91150000Y-145315000D01*
X97950000Y-150350000D02*
X95538000Y-150350000D01*
D43*
X91150000Y-145295000D02*
X91140000Y-145305000D01*
D42*
X98650000Y-147200000D02*
X98250000Y-146800000D01*
D43*
X89900000Y-145275000D02*
X89870000Y-145305000D01*
D42*
X89950000Y-143050000D02*
X89950000Y-145225000D01*
X97450000Y-149700000D02*
X98650000Y-148500000D01*
X89950000Y-145225000D02*
X89870000Y-145305000D01*
X98650000Y-148500000D02*
X98650000Y-147200000D01*
X95538000Y-149700000D02*
X97450000Y-149700000D01*
X96220000Y-126180000D02*
X96250000Y-126150000D01*
X92900000Y-115300000D02*
X92400000Y-114800000D01*
X93200000Y-114800000D02*
X92400000Y-114800000D01*
X94310000Y-115910000D02*
X93200000Y-114800000D01*
X92400000Y-114800000D02*
X89300000Y-117900000D01*
X97150000Y-115910000D02*
X94310000Y-115910000D01*
X89300000Y-117900000D02*
X89300000Y-120100000D01*
X96220000Y-127805000D02*
X96220000Y-126180000D01*
X92410000Y-125300000D02*
X92700000Y-125010000D01*
X92410000Y-127805000D02*
X92410000Y-125300000D01*
X92410000Y-127805000D02*
X92500000Y-127715000D01*
X92700000Y-117390000D02*
X92700000Y-119400000D01*
X92500000Y-117590000D02*
X92700000Y-117390000D01*
X92700000Y-119400000D02*
X96250000Y-122950000D01*
X60300000Y-148300000D02*
X59400000Y-148300000D01*
X59400000Y-148300000D02*
X59200000Y-148100000D01*
D43*
X36000000Y-132400000D02*
X42100000Y-126300000D01*
X42100000Y-121750000D02*
X40350000Y-120000000D01*
X40350000Y-120000000D02*
X37000000Y-120000000D01*
X42100000Y-126300000D02*
X42100000Y-121750000D01*
X32900000Y-132400000D02*
X36000000Y-132400000D01*
X32850000Y-120600000D02*
X34450000Y-119000000D01*
X32900000Y-126800000D02*
X32900000Y-120650000D01*
X34450000Y-119000000D02*
X37000000Y-119000000D01*
X32900000Y-120650000D02*
X32850000Y-120600000D01*
X37000000Y-116000000D02*
X33250000Y-116000000D01*
X33250000Y-116000000D02*
X32100000Y-114850000D01*
X32100000Y-114850000D02*
X32100000Y-109700000D01*
X52000000Y-103800000D02*
X53700000Y-102100000D01*
X52000000Y-106000000D02*
X52000000Y-103800000D01*
X42750000Y-115000000D02*
X37000000Y-115000000D01*
X39650000Y-103150000D02*
X39650000Y-108400000D01*
X39650000Y-108400000D02*
X41900000Y-110650000D01*
X44050000Y-111600000D02*
X44050000Y-113700000D01*
X44050000Y-113700000D02*
X42750000Y-115000000D01*
X41900000Y-110650000D02*
X43100000Y-110650000D01*
X43100000Y-110650000D02*
X44050000Y-111600000D01*
X40900000Y-101900000D02*
X39650000Y-103150000D01*
X44300000Y-116550000D02*
X44300000Y-118200000D01*
X44300000Y-118200000D02*
X43400000Y-119100000D01*
X37050000Y-121950000D02*
X37000000Y-122000000D01*
X40800000Y-121950000D02*
X37050000Y-121950000D01*
X43400000Y-119100000D02*
X42800000Y-119100000D01*
X37000000Y-123000000D02*
X35250000Y-123000000D01*
X35250000Y-123000000D02*
X34150000Y-121900000D01*
X37000000Y-124000000D02*
X41000000Y-124000000D01*
X41000000Y-124000000D02*
X41050000Y-123950000D01*
X41250000Y-125000000D02*
X41350000Y-124900000D01*
X37000000Y-125000000D02*
X41250000Y-125000000D01*
X37000000Y-126000000D02*
X35100000Y-126000000D01*
X57850000Y-126000000D02*
X61000000Y-126000000D01*
D42*
X98100000Y-134050000D02*
X98100000Y-139050000D01*
X94950000Y-127805000D02*
X94950000Y-128600000D01*
X94950000Y-128600000D02*
X98350000Y-132000000D01*
X98350000Y-132000000D02*
X98350000Y-133800000D01*
X98100000Y-139050000D02*
X98050000Y-139100000D01*
X98350000Y-133800000D02*
X98100000Y-134050000D01*
X43550000Y-163700000D02*
X41000000Y-163700000D01*
X93680000Y-128480000D02*
X97600000Y-132400000D01*
X93680000Y-127805000D02*
X93680000Y-128480000D01*
X96800000Y-140550000D02*
X96800000Y-143000000D01*
X43550000Y-162600000D02*
X41000000Y-162600000D01*
X97200000Y-140150000D02*
X96800000Y-140550000D01*
X97600000Y-132400000D02*
X97600000Y-133000000D01*
X97600000Y-133000000D02*
X97200000Y-133400000D01*
X97200000Y-133400000D02*
X97200000Y-140150000D01*
X96800000Y-143000000D02*
X97000000Y-143200000D01*
X93300000Y-137900000D02*
X91350000Y-139850000D01*
X91350000Y-139850000D02*
X89450000Y-139850000D01*
X55400000Y-164650000D02*
X54450000Y-163700000D01*
X54450000Y-163700000D02*
X53000000Y-163700000D01*
X89450000Y-139850000D02*
X86300000Y-143000000D01*
X83050000Y-143400000D02*
X82750000Y-143700000D01*
X86300000Y-143400000D02*
X83050000Y-143400000D01*
X86300000Y-143000000D02*
X86300000Y-143400000D01*
X91140000Y-127805000D02*
X91200000Y-127865000D01*
X91200000Y-127865000D02*
X91200000Y-129750000D01*
X89050000Y-126000000D02*
X88050000Y-126000000D01*
X88050000Y-126000000D02*
X88000000Y-126050000D01*
X89870000Y-126820000D02*
X89050000Y-126000000D01*
X53000000Y-164800000D02*
X51100000Y-164800000D01*
X82450000Y-126150000D02*
X80750000Y-126150000D01*
X80750000Y-126150000D02*
X79100000Y-127800000D01*
X89870000Y-127805000D02*
X89870000Y-126820000D01*
X87330000Y-126980000D02*
X82300000Y-121950000D01*
X87330000Y-127805000D02*
X87330000Y-126980000D01*
X77300000Y-114950000D02*
X75600000Y-113250000D01*
X77300000Y-120850000D02*
X77300000Y-114950000D01*
X82300000Y-121950000D02*
X78400000Y-121950000D01*
X78400000Y-121950000D02*
X77300000Y-120850000D01*
X79300000Y-123850000D02*
X78250000Y-122800000D01*
X86060000Y-127805000D02*
X86060000Y-126960000D01*
X86060000Y-127805000D02*
X86000000Y-127745000D01*
X82950000Y-123850000D02*
X79300000Y-123850000D01*
X86060000Y-126960000D02*
X82950000Y-123850000D01*
X75200000Y-120750000D02*
X75200000Y-114255000D01*
X80450000Y-124400000D02*
X78850000Y-124400000D01*
X75200000Y-114255000D02*
X73040000Y-112095000D01*
X84790000Y-127805000D02*
X84750000Y-127765000D01*
X78850000Y-124400000D02*
X75200000Y-120750000D01*
X82000000Y-124500000D02*
X80550000Y-124500000D01*
X84790000Y-127290000D02*
X82000000Y-124500000D01*
X84790000Y-127805000D02*
X84790000Y-127290000D01*
X80550000Y-124500000D02*
X80450000Y-124400000D01*
X83520000Y-127805000D02*
X83520000Y-129070000D01*
X87150000Y-135950000D02*
X86200000Y-136900000D01*
X87150000Y-132700000D02*
X87150000Y-135950000D01*
X78250000Y-159750000D02*
X72550000Y-159750000D01*
X83520000Y-129070000D02*
X87150000Y-132700000D01*
X70615000Y-157815000D02*
X72550000Y-159750000D01*
X81400000Y-156600000D02*
X78250000Y-159750000D01*
X86200000Y-136900000D02*
X86200000Y-141450000D01*
X70500000Y-157815000D02*
X70615000Y-157815000D01*
X86200000Y-141450000D02*
X85400000Y-142250000D01*
X77950000Y-153300000D02*
X77250000Y-154000000D01*
X82250000Y-129250000D02*
X82850000Y-129850000D01*
X77250000Y-154000000D02*
X71775000Y-154000000D01*
X82850000Y-129850000D02*
X82950000Y-129850000D01*
X82250000Y-127805000D02*
X82250000Y-129250000D01*
X86300000Y-135450000D02*
X85450000Y-136300000D01*
X85450000Y-140750000D02*
X83700000Y-142500000D01*
X86300000Y-133200000D02*
X86300000Y-135450000D01*
X85450000Y-136300000D02*
X85450000Y-140750000D01*
X82950000Y-129850000D02*
X86300000Y-133200000D01*
X71775000Y-154000000D02*
X70500000Y-155275000D01*
X79370000Y-129570000D02*
X76250000Y-126450000D01*
X59100000Y-146600000D02*
X60300000Y-147800000D01*
X76250000Y-126450000D02*
X74250000Y-126450000D01*
X59100000Y-144950000D02*
X59100000Y-146600000D01*
X81000000Y-129570000D02*
X79370000Y-129570000D01*
X79740000Y-130840000D02*
X76800000Y-127900000D01*
X67750000Y-130500000D02*
X67750000Y-139750000D01*
X64150000Y-143350000D02*
X61800000Y-143350000D01*
X76800000Y-127900000D02*
X74000000Y-127900000D01*
X60500000Y-144650000D02*
X60500000Y-146600000D01*
X67750000Y-139750000D02*
X64150000Y-143350000D01*
X61800000Y-143350000D02*
X60500000Y-144650000D01*
X81000000Y-130840000D02*
X79740000Y-130840000D01*
X60500000Y-146600000D02*
X61000000Y-147100000D01*
X73200000Y-128700000D02*
X69550000Y-128700000D01*
X74000000Y-127900000D02*
X73200000Y-128700000D01*
X69550000Y-128700000D02*
X67750000Y-130500000D01*
D43*
X81940000Y-132110000D02*
X82750000Y-131300000D01*
X76450000Y-124500000D02*
X73335000Y-124500000D01*
X81000000Y-132110000D02*
X81940000Y-132110000D01*
X73335000Y-124500000D02*
X73040000Y-124795000D01*
D42*
X81000000Y-133380000D02*
X83880000Y-133380000D01*
X84600000Y-134100000D02*
X84600000Y-139950000D01*
X73040000Y-140035000D02*
X74235000Y-140035000D01*
X74235000Y-140035000D02*
X74850000Y-140650000D01*
X83880000Y-133380000D02*
X84600000Y-134100000D01*
X74850000Y-140650000D02*
X74850000Y-143750000D01*
X73040000Y-129875000D02*
X73040000Y-129610000D01*
X81000000Y-134650000D02*
X79150000Y-134650000D01*
X76550000Y-128550000D02*
X78100000Y-130100000D01*
X74100000Y-128550000D02*
X76550000Y-128550000D01*
X78100000Y-130100000D02*
X78100000Y-130550000D01*
X79150000Y-134650000D02*
X79000000Y-134800000D01*
X73040000Y-129610000D02*
X74100000Y-128550000D01*
X82680000Y-135920000D02*
X82850000Y-135750000D01*
X81000000Y-135920000D02*
X82680000Y-135920000D01*
X83410000Y-137190000D02*
X83550000Y-137050000D01*
X81000000Y-137190000D02*
X83410000Y-137190000D01*
X81000000Y-138460000D02*
X79060000Y-138460000D01*
X79060000Y-138460000D02*
X79000000Y-138400000D01*
X78700000Y-132800000D02*
X78700000Y-133750000D01*
X77250000Y-135200000D02*
X77250000Y-138400000D01*
X78550000Y-139700000D02*
X80970000Y-139700000D01*
X77250000Y-138400000D02*
X78550000Y-139700000D01*
X78700000Y-133750000D02*
X77250000Y-135200000D01*
X80970000Y-139700000D02*
X81000000Y-139730000D01*
X78500000Y-141100000D02*
X80900000Y-141100000D01*
X80900000Y-141100000D02*
X81000000Y-141000000D01*
X77670000Y-142270000D02*
X77550000Y-142150000D01*
X81000000Y-142270000D02*
X77670000Y-142270000D01*
X82900000Y-147250000D02*
X78950000Y-147250000D01*
X83520000Y-145305000D02*
X83520000Y-146630000D01*
X76750000Y-145050000D02*
X76750000Y-136900000D01*
X76750000Y-136900000D02*
X74805000Y-134955000D01*
X78950000Y-147250000D02*
X76750000Y-145050000D01*
X83520000Y-146630000D02*
X82900000Y-147250000D01*
X74805000Y-134955000D02*
X73040000Y-134955000D01*
X84800000Y-145315000D02*
X84800000Y-147100000D01*
X75800000Y-129850000D02*
X74950000Y-129850000D01*
X76850000Y-131100000D02*
X76850000Y-130900000D01*
X76850000Y-130900000D02*
X75800000Y-129850000D01*
X76950000Y-131650000D02*
X76950000Y-131200000D01*
X76950000Y-131200000D02*
X76850000Y-131100000D01*
X84790000Y-145305000D02*
X84800000Y-145315000D01*
X86060000Y-147240000D02*
X85150000Y-148150000D01*
X86060000Y-145305000D02*
X86060000Y-147240000D01*
X78000000Y-148150000D02*
X75950000Y-146100000D01*
X75950000Y-146100000D02*
X75950000Y-142600000D01*
X75950000Y-142600000D02*
X75900000Y-142550000D01*
X85150000Y-148150000D02*
X78000000Y-148150000D01*
X74400000Y-125250000D02*
X73700000Y-125950000D01*
X79950000Y-125250000D02*
X74400000Y-125250000D01*
X73700000Y-125950000D02*
X71885000Y-125950000D01*
X92410000Y-146940000D02*
X92400000Y-146950000D01*
X92410000Y-145305000D02*
X92410000Y-146940000D01*
X71885000Y-125950000D02*
X70500000Y-127335000D01*
X93680000Y-145305000D02*
X93680000Y-141420000D01*
X93680000Y-141420000D02*
X93850000Y-141250000D01*
X79000000Y-131800000D02*
X78850000Y-131950000D01*
X78850000Y-131950000D02*
X78500000Y-131950000D01*
X94950000Y-140550000D02*
X94700000Y-140300000D01*
X78500000Y-131950000D02*
X76900000Y-133550000D01*
X76900000Y-133550000D02*
X71905000Y-133550000D01*
X71905000Y-133550000D02*
X70500000Y-134955000D01*
X94950000Y-145305000D02*
X94950000Y-140550000D01*
D43*
X65550000Y-134050000D02*
X65550000Y-126600000D01*
D42*
X96200000Y-139050000D02*
X96450000Y-138800000D01*
D43*
X63950000Y-135650000D02*
X65550000Y-134050000D01*
D42*
X96450000Y-132650000D02*
X96650000Y-132450000D01*
D43*
X69875000Y-117175000D02*
X70500000Y-117175000D01*
D42*
X96450000Y-138800000D02*
X96450000Y-132650000D01*
D43*
X66850000Y-120200000D02*
X69875000Y-117175000D01*
X66850000Y-125300000D02*
X66850000Y-120200000D01*
X65550000Y-126600000D02*
X66850000Y-125300000D01*
X62150000Y-135650000D02*
X63950000Y-135650000D01*
D42*
X96220000Y-145305000D02*
X96220000Y-139070000D01*
X96220000Y-139070000D02*
X96200000Y-139050000D01*
X94150000Y-147850000D02*
X93500000Y-148500000D01*
X97490000Y-147160000D02*
X96800000Y-147850000D01*
X96800000Y-147850000D02*
X94150000Y-147850000D01*
X97490000Y-145305000D02*
X97490000Y-147160000D01*
X93500000Y-154250000D02*
X93400000Y-154350000D01*
X62000000Y-144550000D02*
X62000000Y-147100000D01*
X93500000Y-148500000D02*
X93500000Y-154250000D01*
D46*
X83160000Y-109210000D02*
X80450000Y-106500000D01*
X86350000Y-109210000D02*
X83160000Y-109210000D01*
D42*
X59800000Y-149800000D02*
X57500000Y-149800000D01*
X60300000Y-149300000D02*
X59800000Y-149800000D01*
X57500000Y-149800000D02*
X55500000Y-147800000D01*
X55500000Y-147800000D02*
X55500000Y-146120000D01*
X62000000Y-151650000D02*
X62250000Y-151900000D01*
X62000000Y-150000000D02*
X62000000Y-151650000D01*
X62500000Y-151650000D02*
X62250000Y-151900000D01*
X62500000Y-150000000D02*
X62500000Y-151650000D01*
D44*
X59200000Y-151900000D02*
X62250000Y-151900000D01*
D42*
X67250000Y-146800000D02*
X67250000Y-142450000D01*
X69665000Y-140035000D02*
X70500000Y-140035000D01*
X63200000Y-148800000D02*
X65250000Y-148800000D01*
X67250000Y-142450000D02*
X69665000Y-140035000D01*
X65250000Y-148800000D02*
X67250000Y-146800000D01*
X69100000Y-148250000D02*
X68050000Y-149300000D01*
X69100000Y-143975000D02*
X69100000Y-148250000D01*
X68050000Y-149300000D02*
X63200000Y-149300000D01*
X70500000Y-142575000D02*
X69100000Y-143975000D01*
X51200000Y-159200000D02*
X51200000Y-161300000D01*
X53000000Y-157400000D02*
X51200000Y-159200000D01*
M02*
