G04 #@! TF.GenerationSoftware,KiCad,Pcbnew,10.0.0*
G04 #@! TF.CreationDate,2026-04-24T13:35:17+02:00*
G04 #@! TF.ProjectId,MCU_board,4d43555f-626f-4617-9264-2e6b69636164,rev?*
G04 #@! TF.SameCoordinates,Original*
G04 #@! TF.FileFunction,Soldermask,Bot*
G04 #@! TF.FilePolarity,Negative*
%FSLAX46Y46*%
G04 Gerber Fmt 4.6, Leading zero omitted, Abs format (unit mm)*
G04 Created by KiCad (PCBNEW 10.0.0) date 2026-04-24 13:35:17*
%MOMM*%
%LPD*%
G01*
G04 APERTURE LIST*
G04 Aperture macros list*
%AMRoundRect*
0 Rectangle with rounded corners*
0 $1 Rounding radius*
0 $2 $3 $4 $5 $6 $7 $8 $9 X,Y pos of 4 corners*
0 Add a 4 corners polygon primitive as box body*
4,1,4,$2,$3,$4,$5,$6,$7,$8,$9,$2,$3,0*
0 Add four circle primitives for the rounded corners*
1,1,$1+$1,$2,$3*
1,1,$1+$1,$4,$5*
1,1,$1+$1,$6,$7*
1,1,$1+$1,$8,$9*
0 Add four rect primitives between the rounded corners*
20,1,$1+$1,$2,$3,$4,$5,0*
20,1,$1+$1,$4,$5,$6,$7,0*
20,1,$1+$1,$6,$7,$8,$9,0*
20,1,$1+$1,$8,$9,$2,$3,0*%
G04 Aperture macros list end*
%ADD10C,1.600000*%
%ADD11C,0.800000*%
%ADD12C,6.400000*%
%ADD13RoundRect,0.249999X-0.850001X0.850001X-0.850001X-0.850001X0.850001X-0.850001X0.850001X0.850001X0*%
%ADD14C,2.200000*%
%ADD15C,1.540000*%
%ADD16RoundRect,0.250000X-0.550000X-0.550000X0.550000X-0.550000X0.550000X0.550000X-0.550000X0.550000X0*%
%ADD17C,2.000000*%
%ADD18RoundRect,0.250000X0.550000X0.550000X-0.550000X0.550000X-0.550000X-0.550000X0.550000X-0.550000X0*%
%ADD19R,1.530000X1.530000*%
%ADD20C,1.530000*%
%ADD21R,0.280000X0.200000*%
%ADD22R,0.700000X1.000000*%
%ADD23RoundRect,0.250000X-0.275000X-0.350000X0.275000X-0.350000X0.275000X0.350000X-0.275000X0.350000X0*%
%ADD24R,0.940000X0.730000*%
%ADD25RoundRect,0.102000X-0.350000X0.500000X-0.350000X-0.500000X0.350000X-0.500000X0.350000X0.500000X0*%
%ADD26RoundRect,0.102000X-1.000000X0.500000X-1.000000X-0.500000X1.000000X-0.500000X1.000000X0.500000X0*%
%ADD27R,0.700000X0.500000*%
%ADD28RoundRect,0.102000X-0.350000X0.250000X-0.350000X-0.250000X0.350000X-0.250000X0.350000X0.250000X0*%
G04 APERTURE END LIST*
D10*
X72850000Y-101900000D03*
X75350000Y-101900000D03*
X65800000Y-101850000D03*
X68300000Y-101850000D03*
D11*
X31097056Y-166497056D03*
X31800000Y-164800000D03*
X31800000Y-168194112D03*
X33497056Y-164097056D03*
D12*
X33497056Y-166497056D03*
D11*
X33497056Y-168897056D03*
X35194112Y-164800000D03*
X35194112Y-168194112D03*
X35897056Y-166497056D03*
D13*
X45000000Y-138190000D03*
D14*
X45000000Y-145810000D03*
D10*
X62000000Y-139500000D03*
X62000000Y-142000000D03*
X54000000Y-134500000D03*
X56500000Y-134500000D03*
X95850000Y-118800000D03*
X98350000Y-118800000D03*
D15*
X84750000Y-154750000D03*
X84750000Y-161250000D03*
X80250000Y-154750000D03*
X80250000Y-161250000D03*
D10*
X78250000Y-166500000D03*
X70630000Y-166500000D03*
D11*
X94150000Y-166500000D03*
X94852944Y-164802944D03*
X94852944Y-168197056D03*
X96550000Y-164100000D03*
D12*
X96550000Y-166500000D03*
D11*
X96550000Y-168900000D03*
X98247056Y-164802944D03*
X98247056Y-168197056D03*
X98950000Y-166500000D03*
X31200000Y-103500000D03*
X31902944Y-101802944D03*
X31902944Y-105197056D03*
X33600000Y-101100000D03*
D12*
X33600000Y-103500000D03*
D11*
X33600000Y-105900000D03*
X35297056Y-101802944D03*
X35297056Y-105197056D03*
X36000000Y-103500000D03*
D10*
X93200000Y-114800000D03*
X93200000Y-112300000D03*
X92700000Y-125010000D03*
X92700000Y-117390000D03*
D16*
X78994888Y-120300000D03*
D10*
X81494888Y-120300000D03*
X64000000Y-159690000D03*
X64000000Y-167310000D03*
D17*
X32900000Y-132400000D03*
X32900000Y-126800000D03*
D15*
X84800000Y-120100000D03*
X84800000Y-113600000D03*
X89300000Y-120100000D03*
X89300000Y-113600000D03*
D16*
X37794888Y-140000000D03*
D10*
X40294888Y-140000000D03*
D17*
X32100000Y-109700000D03*
D16*
X60794888Y-134000000D03*
D10*
X63294888Y-134000000D03*
X86350000Y-101590000D03*
X86350000Y-109210000D03*
X55500000Y-146120000D03*
X55500000Y-138500000D03*
X40810000Y-146500000D03*
X33190000Y-146500000D03*
X90190000Y-156000000D03*
X97810000Y-156000000D03*
D11*
X94050000Y-103450000D03*
X94752944Y-101752944D03*
X94752944Y-105147056D03*
X96450000Y-101050000D03*
D12*
X96450000Y-103450000D03*
D11*
X96450000Y-105850000D03*
X98147056Y-101752944D03*
X98147056Y-105147056D03*
X98850000Y-103450000D03*
D10*
X89200000Y-123500000D03*
X86700000Y-123500000D03*
D17*
X46700000Y-102000000D03*
D10*
X48950000Y-138400000D03*
X51450000Y-138400000D03*
D18*
X34205113Y-140500000D03*
D10*
X31705113Y-140500000D03*
D19*
X70500000Y-109555000D03*
D20*
X73040000Y-109555000D03*
X70500000Y-112095000D03*
X73040000Y-112095000D03*
X70500000Y-114635000D03*
X73040000Y-114635000D03*
X70500000Y-117175000D03*
X73040000Y-117175000D03*
X70500000Y-119715000D03*
X73040000Y-119715000D03*
X70500000Y-122255000D03*
X73040000Y-122255000D03*
X70500000Y-124795000D03*
X73040000Y-124795000D03*
X70500000Y-127335000D03*
X73040000Y-127335000D03*
X70500000Y-129875000D03*
X73040000Y-129875000D03*
X70500000Y-132415000D03*
X73040000Y-132415000D03*
X70500000Y-134955000D03*
X73040000Y-134955000D03*
X70500000Y-137495000D03*
X73040000Y-137495000D03*
X70500000Y-140035000D03*
X73040000Y-140035000D03*
X70500000Y-142575000D03*
X73040000Y-142575000D03*
X70500000Y-145115000D03*
X73040000Y-145115000D03*
X70500000Y-147655000D03*
X73040000Y-147655000D03*
X70500000Y-150195000D03*
X73040000Y-150195000D03*
X70500000Y-152735000D03*
X73040000Y-152735000D03*
X70500000Y-155275000D03*
X73040000Y-155275000D03*
X70500000Y-157815000D03*
X73040000Y-157815000D03*
D10*
X97150000Y-115910000D03*
X97150000Y-108290000D03*
D17*
X53700000Y-102100000D03*
D10*
X91200000Y-109260000D03*
X91200000Y-101640000D03*
D17*
X40900000Y-101900000D03*
D21*
X46150000Y-109350000D03*
X46150000Y-109750000D03*
D22*
X47600000Y-122550000D03*
X49500000Y-122550000D03*
X48550000Y-124950000D03*
D23*
X53500000Y-112450000D03*
X55800000Y-112450000D03*
D24*
X46750000Y-115630000D03*
X46750000Y-117050000D03*
D10*
X34250000Y-158610000D03*
X34250000Y-150990000D03*
D25*
X42805000Y-120440000D03*
X42805000Y-117900000D03*
X42805000Y-115360000D03*
D26*
X37010000Y-123200000D03*
D27*
X31215000Y-120090000D03*
D25*
X31215000Y-117900000D03*
X31215000Y-115360000D03*
D26*
X37010000Y-112600000D03*
D28*
X31215000Y-120790000D03*
M02*
